<svg width="218" height="218" viewBox="0 0 218 218" fill="none" xmlns="http://www.w3.org/2000/svg">
<path d="M5.49423 33.9066C4.42017 34.4678 3.18087 35.6333 2.39598 36.8421C1.69371 37.9213 0.8262 39.4754 0.53703 40.2524C0.24786 40.9863 0 42.6267 0 43.7923C0 45.001 0.28917 46.6846 0.619651 47.5912C0.950131 48.4546 1.61109 49.4906 2.14812 49.8791C2.68515 50.2677 3.75921 50.7425 4.5441 50.9152C5.45292 51.0879 6.69223 51.0015 7.8076 50.613C8.84035 50.3108 10.4101 49.3611 11.319 48.4977C12.3104 47.6343 13.4258 45.9507 14.0041 44.6125C14.6651 43.0584 14.9955 41.418 14.9955 39.6912C15.0369 38.0076 14.789 36.583 14.3346 35.7197C13.9215 34.8994 13.0127 34.0361 12.1865 33.6475C11.4016 33.3022 9.95572 33 8.96428 33C8.01415 33 6.44437 33.4317 5.49423 33.9066Z" fill="white"/>
<path d="M111.236 65.1704C111.355 65.8162 111.828 67.148 112.261 68.157C112.734 69.1659 113.128 70.1749 113.167 70.3767C113.207 70.6189 113.719 71.5471 114.31 72.5157C114.862 73.444 115.099 74.0897 114.823 73.9283C114.586 73.7669 115.296 75.4216 116.478 77.6413C117.621 79.8611 118.961 82.2019 119.433 82.8476C119.867 83.4934 120.773 84.462 121.443 84.9867C122.31 85.6728 123.177 85.9553 124.596 85.9956C125.778 86.036 127.079 85.7938 127.828 85.3902C128.537 85.027 129.325 84.3005 129.561 83.8162C129.837 83.2916 130.034 82.2422 129.995 81.4754C129.995 80.7086 129.483 79.0539 128.892 77.8431C128.3 76.6323 127.039 74.6144 126.133 73.4036C125.227 72.1929 123.414 70.296 122.074 69.1659C120.773 68.0762 118.566 66.5426 117.227 65.8162C115.847 65.0897 113.916 64.4036 112.892 64.2421L111 64L111.236 65.1704Z" fill="white"/>
<path fill-rule="evenodd" clip-rule="evenodd" d="M157.37 2.0625C158.043 1.43112 158.969 0.757654 159.432 0.505102C159.895 0.25255 161.158 0 162.252 0C163.81 0 164.568 0.252552 165.536 1.0523C166.377 1.72577 167.009 2.86225 167.43 4.33547C167.766 5.51405 168.061 7.11354 168.061 7.78701C168.061 8.50258 168.23 9.30232 168.398 9.59697C168.65 10.06 169.324 10.0179 172.27 9.47069C174.417 9.04977 177.153 8.79722 179.089 8.88141C181.488 9.00768 182.583 9.26023 183.425 9.89161C184.056 10.3546 185.15 11.5753 185.908 12.5855C187.087 14.2271 187.213 14.648 187.171 17.4261C187.129 19.0677 186.834 21.6774 186.413 23.2769C186.034 24.8343 185.824 26.2233 185.908 26.4338C185.992 26.6021 187.003 26.8547 188.097 26.9809C189.233 27.1493 190.791 27.5702 191.506 27.9491C192.264 28.3279 193.358 29.3381 193.948 30.222C194.663 31.2322 195 32.3687 195 33.4631C195 34.3891 194.621 35.7361 194.2 36.4095C193.737 37.083 192.517 38.43 191.38 39.356C190.286 40.282 187.171 43.481 184.519 46.4695C181.825 49.458 178.079 53.2884 176.185 55.0142C174.249 56.6979 172.186 58.2132 171.555 58.3395C170.881 58.5078 169.534 58.3395 168.524 58.0448C167.514 57.7081 166.251 57.0346 165.788 56.5716C165.64 56.423 165.058 55.8338 164.15 54.9152C161.974 52.7111 157.924 48.6111 153.497 44.1545C147.226 37.7986 141.712 31.9478 141.206 31.1481C140.743 30.3483 140.238 29.0014 140.07 28.2016C139.817 26.8547 140.112 26.2654 143.269 21.4669C145.163 18.5626 148.067 14.3955 149.751 12.2067C151.393 10.0179 153.539 7.07145 154.465 5.68241C155.434 4.29338 156.738 2.65179 157.37 2.0625ZM158.843 7.61865C159.18 6.60844 159.895 5.42986 160.443 5.00894C160.99 4.58802 161.705 4.2092 162.042 4.2092C162.337 4.2092 162.715 4.46175 162.884 4.7564C163.052 5.05104 163.221 6.22961 163.263 7.3661C163.263 8.23589 163.309 9.58713 163.349 10.7938C163.364 11.2222 163.378 11.6323 163.389 11.9962C163.431 13.3852 163.599 14.8164 163.81 15.1531C164.189 15.7003 165.115 15.6161 171.302 14.3534C177.027 13.1748 178.71 12.9643 180.015 13.3011C181.025 13.5536 181.994 14.1429 182.541 14.9006C183.088 15.6582 183.383 16.6263 183.383 17.6365C183.341 18.4784 182.793 20.8776 182.204 22.9401C181.615 25.0447 180.773 27.444 180.352 28.3279C179.721 29.759 179.721 30.0116 180.268 30.3483C180.605 30.5588 181.825 30.7692 183.004 30.8113C184.14 30.8534 185.698 30.8955 186.371 30.8534C187.045 30.8113 188.265 30.9376 188.981 31.1901C189.865 31.4427 190.454 31.9057 190.622 32.5371C190.791 33.1264 190.58 33.8419 190.033 34.5154C189.233 35.5677 189.233 35.5677 174.585 35.5677L174.543 34.305C174.501 33.6315 174.922 30.5167 175.469 27.3598C176.059 24.245 176.69 21.2564 176.9 20.7513C177.237 19.9937 177.153 19.7411 176.564 19.5728C176.185 19.4465 172.818 19.7411 169.113 20.2041C165.409 20.6672 161.747 21.046 160.99 21.046C159.643 21.046 159.643 21.046 159.432 18.6467C159.306 17.2998 159.011 14.6901 158.759 12.838C158.38 10.1442 158.422 9.09187 158.843 7.61865ZM151.225 17.8887C152.698 15.8263 154.171 13.764 154.508 13.3852C154.844 12.9643 155.307 12.6276 155.476 12.6276C155.686 12.6276 155.897 12.9643 155.939 13.3852C155.939 13.6599 155.983 14.1781 156.023 14.6508C156.039 14.83 156.053 15.0027 156.065 15.1531C156.119 15.5336 156.209 16.4232 156.311 17.4364C156.367 17.9922 156.426 18.5852 156.486 19.1518C156.654 20.7934 156.823 22.4771 156.865 22.9401C156.949 23.4031 157.117 24.1187 157.244 24.5396C157.412 24.9184 157.875 25.3815 158.254 25.4656C158.675 25.5919 162.126 25.0447 165.957 24.245C169.787 23.4452 172.944 22.8138 173.028 22.8559C173.112 22.898 172.565 25.3394 171.849 28.2016C171.134 31.106 170.46 34.5154 170.292 35.7782C170.082 37.7986 170.166 38.1774 170.839 38.5141C171.26 38.7246 173.996 38.9351 176.9 38.9772C179.805 38.9772 182.793 39.0192 183.509 39.0613C184.309 39.1455 184.898 39.3981 184.898 39.6927C184.898 39.9874 183.341 41.7131 181.404 43.5652C179.51 45.4172 177.279 47.7744 176.48 48.7846C175.301 50.2999 174.838 50.5945 174.038 50.3841C173.533 50.2157 171.344 48.2374 169.198 46.0065C167.093 43.7336 161.495 37.9669 156.781 33.1685C148.909 25.0868 148.278 24.3292 148.404 23.0664C148.488 22.1825 149.499 20.2883 151.224 17.8891L151.225 17.8887ZM143.732 27.6544C143.648 27.4019 143.9 26.8126 144.321 26.4338C144.7 26.0128 145.289 25.6761 145.584 25.6761C145.921 25.6761 151.898 31.6952 158.885 39.0192C166.925 47.3955 171.639 52.6149 171.639 53.1621C171.639 53.6252 171.218 54.2565 170.671 54.5933C169.787 55.1405 169.492 54.8879 164.357 49.5843C161.369 46.5116 155.56 40.4504 151.393 36.0728C147.268 31.7373 143.816 27.9491 143.732 27.6544Z" fill="white"/>
<path d="M180.626 151.059C180.028 151.651 179.43 152.625 179.302 153.303C179.131 153.938 179.43 156.14 179.943 158.257C180.455 160.374 180.839 162.449 180.839 162.915C180.839 163.38 180.626 163.973 180.327 164.227C179.9 164.608 178.576 164.439 174.862 163.465C170.892 162.449 169.739 162.322 168.757 162.661C168.117 162.915 167.007 164.016 166.323 165.159C165.598 166.26 165.043 167.445 165 167.784C165 168.123 165.256 168.673 165.555 168.927C165.854 169.224 168.117 169.986 170.593 170.664C173.069 171.341 176.911 172.23 179.131 172.654C182.248 173.204 183.443 173.289 184.383 172.908C185.023 172.654 185.92 171.807 186.389 171.087C186.859 170.325 187.371 168.843 187.499 167.784C187.67 166.514 187.499 164.439 186.901 161.644C186.389 159.316 185.877 156.563 185.706 155.505C185.578 154.446 185.108 152.922 184.681 152.117C184.297 151.313 183.614 150.508 183.23 150.296C182.846 150.127 182.333 150 182.12 150C181.864 150 181.181 150.466 180.626 151.059ZM192.409 163.253C191.854 163.508 191.256 164.1 191.043 164.481C190.872 164.905 191 167.572 191.342 170.409C191.683 173.289 191.939 176.041 191.939 176.549C191.939 177.1 191.555 177.735 191.085 177.947C190.445 178.243 188.951 178.074 185.407 177.269C182.632 176.634 180.071 176.295 179.217 176.422C178.491 176.549 177.338 177.142 176.655 177.65C176.015 178.201 175.246 179.217 174.947 179.894C174.563 180.784 174.521 181.419 174.862 182.266C175.076 182.943 175.801 183.79 176.442 184.171C177.125 184.594 180.796 185.653 184.681 186.542C189.25 187.559 192.452 188.109 193.86 187.982C195.184 187.897 196.55 187.516 197.361 186.923C198.3 186.331 199.026 185.314 199.496 184.002C200.136 182.181 200.136 181.503 199.667 177.735C199.368 175.406 198.557 171.299 197.874 168.631C197.19 165.963 196.379 163.508 196.08 163.211C195.782 162.915 195.099 162.661 194.501 162.703C193.903 162.703 192.964 162.957 192.409 163.253Z" fill="white"/>
<path d="M94.3532 107.498C93.8428 107.968 93.3324 109.164 93.0772 110.617C92.8219 111.899 92.6518 114.334 92.6518 116.043C92.6518 117.752 92.4391 119.248 92.2265 119.376C91.9713 119.461 91.0781 119.29 90.1849 118.906C89.3342 118.521 86.4844 117.667 83.9324 116.983C81.3379 116.299 78.4456 115.744 77.4248 115.744C76.0212 115.744 75.2981 116 74.2348 116.983C72.8737 118.179 72.8737 118.308 72.9588 121.555C73.0013 123.478 73.6818 127.665 74.49 131.339C75.2981 134.843 75.8085 137.877 75.6809 138.047C75.5533 138.218 72.7036 138.389 69.3859 138.475C66.0683 138.517 63.2611 138.688 63.091 138.817C62.9634 138.902 62.9634 139.671 63.1335 140.526C63.3036 141.337 64.1118 142.747 64.9624 143.645C65.8131 144.542 67.1316 145.439 67.9823 145.653C68.8755 145.867 70.1515 145.867 71.1723 145.61C72.1081 145.397 74.8728 145.226 77.3397 145.226C80.9551 145.226 81.9759 145.097 82.8265 144.457L83.8474 143.73C82.4437 135.441 81.8908 131.254 81.6781 129.118C81.4229 125.785 81.4655 125.144 82.0184 124.93C82.3587 124.802 84.5704 125.058 86.9098 125.528C89.2491 126.041 92.8645 126.896 94.9912 127.494C98.1386 128.434 98.9043 128.519 99.2871 128.049C99.5848 127.708 99.8825 124.375 100.053 119.376C100.308 111.685 100.265 111.172 99.4572 109.848C98.9893 109.079 97.8409 108.096 96.9052 107.626C95.3314 106.814 95.2038 106.814 94.3532 107.498ZM102.179 115.189C102.349 115.829 102.477 119.632 102.477 123.649C102.435 128.861 102.264 131.04 101.882 131.425C101.456 131.809 99.6273 131.468 93.2898 129.801C88.8238 128.648 84.9532 127.793 84.6555 127.921C84.3152 128.049 84.2302 128.562 84.4003 129.288C84.5279 129.929 85.0808 132.664 85.6338 135.398C86.1442 138.09 86.7396 141.466 86.8672 142.876C87.0799 144.756 87.0374 145.525 86.612 145.867C86.3143 146.123 83.9324 146.55 81.3804 146.806C78.7859 147.02 75.9361 147.148 75.0004 147.063C74.0646 146.977 73.0013 147.106 72.661 147.319C72.1081 147.704 72.2357 148.003 73.5117 149.114C74.3198 149.84 76.9144 151.976 79.2537 153.814C81.5931 155.694 83.975 157.317 84.5704 157.446C85.1659 157.574 86.1442 157.446 86.8247 157.104C87.4627 156.805 90.0998 154.626 92.6944 152.276C95.2889 149.926 100.138 145.397 103.413 142.192C106.73 139.03 110.601 135.356 112.047 134.074C113.451 132.792 115.024 131.083 115.535 130.271C116.045 129.417 116.471 128.178 116.428 127.494C116.428 126.383 115.45 125.272 110.176 120.102C105.752 115.829 103.625 114.035 102.902 114.035C102.009 114.035 101.924 114.163 102.179 115.189ZM109.027 139.543C104.093 144.414 97.288 150.951 93.9278 154.113C88.8238 158.855 87.803 160.009 87.888 160.949C87.9306 161.718 88.2708 162.274 89.1215 162.658C89.8021 163 90.7378 163.085 91.3758 162.915C91.9713 162.786 95.4165 159.71 99.0319 156.121C102.647 152.532 106.858 148.601 108.389 147.319C109.92 146.08 113.578 142.619 116.556 139.671C121.319 134.971 122 134.159 122 132.92C122 131.98 121.745 131.382 121.149 131.126C120.681 130.869 119.788 130.698 119.15 130.698C118.257 130.698 116.215 132.45 109.027 139.543Z" fill="white"/>
<path fill-rule="evenodd" clip-rule="evenodd" d="M173.484 88.2856C174.187 87.9546 177.829 87.3338 181.553 86.8786C185.443 86.4234 191.444 86.0509 195.417 86.0095C200.755 85.9682 202.576 86.0509 202.949 86.4648C203.197 86.7544 203.611 87.6649 203.818 88.4512C204.024 89.2374 205.142 92.424 206.301 95.4863C207.459 98.5487 208.908 103.018 209.528 105.418C210.108 107.819 210.604 110.798 210.604 112.04C210.604 113.364 210.315 114.978 209.86 115.93C209.239 117.213 207.997 118.247 203.28 121.351C200.093 123.461 195.541 126.276 193.141 127.6C190.534 129.048 188.34 130 187.554 130C186.726 130 184.616 128.883 180.933 126.482C177.994 124.537 173.69 121.599 171.414 119.902C169.138 118.247 166.779 116.385 166.159 115.806C165.414 115.143 165 114.316 165 113.612C165 112.95 165.579 110.095 166.283 107.198C166.945 104.26 168.269 99.5005 169.18 96.5209C170.132 93.5827 171.166 90.6445 171.539 89.9823C171.952 89.3616 172.821 88.5753 173.484 88.2856ZM183.209 92.0102C185.816 91.6377 188.878 91.3067 190.037 91.2239C191.154 91.1411 193.761 91.0997 199.472 91.1411L201.086 96.314C201.997 99.1695 203.28 103.929 203.942 106.867C205.142 111.957 205.183 112.329 204.562 113.612C204.107 114.523 202.659 115.764 199.886 117.585C197.651 118.992 194.093 121.144 191.982 122.344C189.913 123.503 187.844 124.372 187.471 124.248C187.057 124.165 185.03 122.799 183.002 121.268C180.974 119.737 177.374 117.088 175.056 115.433C171.787 113.157 170.752 112.164 170.587 111.336C170.421 110.633 171.125 107.156 172.242 102.728C173.277 98.6315 174.394 94.8656 174.725 94.369C175.056 93.831 176.049 93.2517 176.877 93.0034C177.746 92.7964 180.602 92.3412 183.209 92.0102Z" fill="white"/>
<path fill-rule="evenodd" clip-rule="evenodd" d="M64.971 13.8311C63.2558 13.9984 60.7039 14.3749 59.3234 14.6677C57.9429 14.9606 56.5623 15.3789 56.2695 15.6718C55.9766 15.9228 55.7256 16.383 55.7675 16.6758C55.7675 16.9268 56.7715 18.1818 58.0265 19.395C59.5326 20.8592 60.3692 22.0306 60.5784 23.0346C60.7876 24.1641 60.6202 25.1263 59.7417 27.218C59.1142 28.7241 57.9847 31.7361 57.1898 33.9115C55.9766 37.3838 55.7675 38.3878 55.7675 41.86C55.7675 44.0354 56.1021 47.1312 56.4787 48.7627C56.8552 50.3942 57.148 52.3605 57.1898 53.1553C57.2317 54.3267 57.0643 54.6613 56.395 54.745C55.9348 54.8287 55.2236 54.5358 54.8471 54.1175C54.4706 53.6991 53.6758 52.5278 53.1319 51.4819C52.5044 50.2269 51.835 49.5576 51.2494 49.5157C50.7055 49.4321 50.2035 49.6831 50.0362 50.1432C49.9107 50.5197 50.1198 52.1513 50.5382 53.7828C50.9565 55.4144 51.5004 57.1296 51.7514 57.6734C52.0024 58.1754 52.4626 58.7193 52.7136 58.8029C53.0064 58.9284 54.3451 58.5938 55.642 58.0917L58.0684 57.1714C62.9211 59.8488 65.3894 60.8946 66.6444 61.2293C67.8994 61.6058 70.0748 62.0242 71.4553 62.1497C72.8359 62.317 74.3001 62.6099 74.6766 62.819C75.0949 63.0282 75.5551 63.823 75.6806 64.5761C75.8479 65.4964 75.5551 66.8351 74.8021 68.8432C74.1746 70.4747 73.7981 72.0226 73.9236 72.3154C74.0491 72.5664 74.3001 72.8174 74.4674 72.8174C74.6766 72.8593 75.2623 72.4828 75.8479 72.0644C76.4336 71.6042 77.8141 69.889 78.9855 68.2157L81.0772 65.1618C79.4875 64.1159 78.6508 63.4884 78.1907 63.1119C77.605 62.6377 77.4516 62.2752 77.7305 62.0242C77.9815 61.7732 80.7007 61.1875 83.7965 60.6855C86.8922 60.1835 90.2389 59.3886 91.243 58.9703C92.2051 58.5101 93 57.8826 93 57.5479C93 57.2132 92.0378 55.749 90.9083 54.3267C89.7369 52.8625 88.3564 50.7707 87.7707 49.5994C87.2269 48.4699 86.5994 46.671 86.3483 45.6251C86.0973 44.5793 85.7627 42.3202 85.6372 40.605C85.5117 38.8898 85.0515 35.2921 84.5913 32.6565C84.173 30.0209 83.4199 26.4232 82.9179 24.708C82.4578 22.9928 81.4537 20.65 80.6589 19.4787C79.9059 18.3492 78.4417 16.8013 77.4376 16.1319C76.4336 15.4208 75.1368 14.6259 74.4674 14.3331C73.8399 14.0402 72.1665 13.7474 70.7023 13.6637C69.2799 13.5801 66.6862 13.6219 64.971 13.8311ZM69.2799 16.9268C68.7361 17.1778 68.0249 17.8472 67.6902 18.3492C67.3555 18.8512 67.0209 19.9807 66.979 20.8592C66.979 21.7378 67.2719 22.9928 67.7321 23.7876C68.1504 24.5407 69.1963 25.461 69.9911 25.8375C71.1625 26.3395 71.7481 26.4232 72.9195 26.0467C73.7144 25.7957 74.802 25.1682 75.3041 24.6243C75.8479 24.1223 76.3918 23.0346 76.5173 22.1979C76.7264 21.1939 76.5591 20.2317 76.0152 19.1022C75.5551 18.2237 74.7184 17.2197 74.049 16.9268C73.4215 16.5921 72.292 16.3411 71.539 16.383C70.8278 16.383 69.7819 16.634 69.2799 16.9268ZM61.2477 17.0523C60.9131 17.1778 60.6621 17.4707 60.7039 17.7635C60.7457 18.0145 61.2477 19.1022 61.8334 20.1062C62.5864 21.4449 62.9211 22.6163 62.9211 24.0805C62.9211 25.5447 62.4609 27.3017 61.3732 29.9373C60.5365 32.029 59.6162 34.9574 59.2815 36.4216C58.9468 38.095 58.7795 41.1489 58.8632 44.3701C58.9468 47.3822 59.2397 50.3943 59.5744 51.4401C59.909 52.486 60.9131 54.1593 61.8334 55.1634C62.7538 56.2092 64.2598 57.4224 65.1802 57.8826C66.1005 58.3428 68.0667 58.9703 69.5728 59.2631C71.0788 59.5978 73.0868 59.8488 74.049 59.8488C75.0531 59.8488 76.6428 59.5141 77.6049 59.0958C78.609 58.6775 79.9058 57.7153 80.5333 57.0041C81.4537 55.9582 81.7047 55.247 81.7047 53.7828C81.7047 52.5696 81.5374 51.9003 81.1609 51.9003C80.9099 51.9003 80.2405 52.3186 79.7385 52.8625C79.2783 53.3645 78.1488 54.1593 77.2284 54.5777C75.8061 55.2889 75.4714 55.3307 74.0072 54.7869C72.7103 54.3267 72.1247 53.7828 71.3716 52.3186C70.4931 50.6871 70.3676 49.8086 70.3258 44.9976C70.2839 42.0274 70.3676 39.3918 70.4931 39.1408C70.6186 38.9317 70.8696 37.9695 70.9951 37.0491C71.1625 36.1288 71.8736 34.037 72.543 32.3637C73.2123 30.6903 73.7562 29.0588 73.7562 28.6823C73.7562 28.2639 73.3797 28.0966 72.5848 28.1384C71.9573 28.1802 70.8278 28.1802 70.0748 28.1384C69.2381 28.0966 68.1922 27.5946 67.23 26.716C66.4352 25.963 65.5985 24.7917 65.3893 24.0805C65.1383 23.4111 64.9292 21.6959 64.8037 20.3154C64.72 18.4747 64.469 17.6798 63.8833 17.3033C63.4231 17.0105 62.7956 16.7595 62.4609 16.8013C62.1263 16.8013 61.5406 16.9268 61.2477 17.0523ZM70.7442 21.3612C70.7024 20.7337 70.9115 20.0644 71.2462 19.7715C71.5809 19.4787 72.2502 19.2695 72.7941 19.2695C73.5053 19.2695 73.8399 19.5624 74.0073 20.4409C74.1746 21.0684 74.0909 21.8632 73.8818 22.1979C73.6308 22.5326 73.1706 23.0346 72.7941 23.2438C72.3339 23.5366 71.9574 23.4948 71.4554 23.0346C71.0789 22.6999 70.7442 21.9469 70.7442 21.3612Z" fill="white"/>
<path fill-rule="evenodd" clip-rule="evenodd" d="M29.6066 91.6984C30.0961 90.6378 30.9119 89.5773 31.3605 89.3734C31.85 89.1694 32.829 89.0062 33.5224 89.0062C34.2566 88.9655 35.2355 89.1286 35.6842 89.3734C36.1329 89.6181 39.3961 93.4115 42.904 97.8168C46.4527 102.263 49.9198 106.913 50.654 108.137C51.3882 109.36 52 110.869 52 111.481C52 112.215 51.5921 112.95 50.8579 113.562C50.2461 114.092 49.104 114.704 48.329 114.948C47.554 115.234 42.5777 116.213 37.3158 117.192C32.054 118.13 26.629 118.905 25.2829 118.905C23.1618 118.864 22.7132 118.701 21.8974 117.763C21.4079 117.192 21 116.213 21 115.601C21 114.948 21.8974 111.808 22.9987 108.544C24.1 105.281 25.854 100.631 26.8329 98.1431C27.8526 95.6549 29.0763 92.7997 29.6066 91.6984ZM30.0145 104.669C31.4013 100.183 32.7066 96.1852 32.9105 95.7773C33.1553 95.3694 33.6039 95.0838 33.971 95.1654C34.3382 95.247 35.4395 96.3891 36.4592 97.7352C37.2273 98.7913 38.8492 100.902 40.4185 102.944C40.8493 103.505 41.2761 104.061 41.6803 104.588C43.5566 106.994 45.0658 109.279 45.0658 109.686C45.1066 110.094 44.4947 110.665 43.5566 111.073C42.7 111.44 41.6395 111.848 41.1908 111.971C40.7421 112.093 37.8868 112.664 34.8684 113.235C31.85 113.806 28.9539 114.255 28.4237 114.255C27.8254 114.255 27.5263 114.024 27.5263 113.561C27.5263 113.154 28.6684 109.156 30.0145 104.669Z" fill="white"/>
<path d="M135.189 180.276C134.562 180.974 134.06 181.959 134.102 182.533C134.102 183.067 133.851 184.75 133.516 186.309C133.181 187.828 132.638 189.429 132.303 189.88C131.717 190.66 131.592 190.619 128.831 188.238C127.284 186.884 124.941 184.914 123.687 183.929C122.432 182.903 120.759 181.877 119.922 181.589C119.002 181.302 118.165 181.261 117.705 181.507C117.329 181.712 116.618 182.656 116.158 183.641C115.739 184.585 115.154 186.679 114.945 188.238C114.694 189.839 114.485 193.081 114.485 195.544C114.485 198.171 114.317 199.936 114.066 199.936C113.815 199.936 112.184 198.704 110.385 197.145C108.629 195.626 106.119 193.574 104.864 192.63C103.4 191.522 101.936 190.824 100.891 190.66C99.6358 190.455 99.0084 190.578 98.2973 191.152C97.4607 191.85 97.3353 192.343 97.2934 196.037C97.2934 198.294 97.4189 202.686 97.6281 205.805L97.9627 211.428C96.3314 211.428 95.1184 211.182 94.1982 210.853C93.278 210.525 91.3539 210.115 89.9736 209.95C87.8822 209.663 87.2548 209.704 86.7111 210.197C86.2928 210.566 86 211.428 86 212.249C86 213.029 86.251 213.891 86.5438 214.137C86.8366 214.424 89.8063 215.368 93.1525 216.312C96.4987 217.215 100.138 217.995 101.309 217.995C102.773 218.036 103.609 217.831 104.028 217.338C104.53 216.764 104.613 215.943 104.32 212.7C104.153 210.525 103.819 206.913 103.568 204.656C103.275 201.783 103.275 200.387 103.568 200.059C103.944 199.648 104.655 200.059 106.621 201.742C108.085 202.973 110.385 204.943 111.766 206.092C113.146 207.241 114.945 208.35 115.739 208.555C116.618 208.76 117.58 208.76 118.124 208.514C118.667 208.309 119.253 207.816 119.462 207.447C119.671 207.036 120.048 205.6 120.34 204.245C120.591 202.891 120.926 199.279 121.093 196.242C121.344 191.809 121.512 190.701 122.014 190.578C122.348 190.537 124.69 192.137 127.242 194.19C129.793 196.283 132.805 198.458 134.018 199.033C136.068 200.059 136.235 200.1 136.946 199.443C137.406 199.033 137.992 197.391 138.41 195.134C138.786 193.164 139.372 189.018 139.665 185.94C140.125 181.056 140.125 180.276 139.581 179.66C139.246 179.291 138.368 178.962 137.615 179.003C136.695 179.003 135.984 179.373 135.189 180.276Z" fill="white"/>
<path fill-rule="evenodd" clip-rule="evenodd" d="M28.3644 212.73C38.9849 212.253 47.2076 203.256 46.7302 192.636C46.2528 182.015 37.2562 173.792 26.6356 174.27C16.0151 174.747 7.7924 183.744 8.26978 194.364C8.74716 204.985 17.7438 213.208 28.3644 212.73ZM28.6001 217.975C42.1172 217.367 52.5824 205.917 51.9748 192.4C51.3673 178.883 39.917 168.418 26.3999 169.025C12.8828 169.633 2.4176 181.083 3.02517 194.6C3.63274 208.117 15.083 218.582 28.6001 217.975Z" fill="white"/>
<path d="M14.8068 193.672C14.7308 191.982 16.039 190.551 17.7286 190.475C19.4182 190.399 20.8495 191.707 20.9255 193.397L21.3184 202.138C21.3943 203.828 20.0862 205.259 18.3965 205.335C16.7069 205.411 15.2756 204.103 15.1997 202.413L14.8068 193.672Z" fill="white"/>
<path d="M33.5978 192.729C33.5218 191.039 34.83 189.608 36.5196 189.532C38.2092 189.456 39.6405 190.764 39.7165 192.454L40.1094 201.195C40.1853 202.885 38.8772 204.316 37.1875 204.392C35.4979 204.468 34.0666 203.16 33.9907 201.47L33.5978 192.729Z" fill="white"/>
</svg>
