<svg width="205" height="237" viewBox="0 0 205 237" fill="none" xmlns="http://www.w3.org/2000/svg">
<path fill-rule="evenodd" clip-rule="evenodd" d="M74.5068 153.341L71.388 161.166H77.5696L74.5068 153.341ZM92.8196 71.8692V49.0231C92.8196 45.3814 91.1402 43.7 87.6376 43.7H81.9359V77.2002H87.6376C91.1402 77.2002 92.8196 75.5109 92.8196 71.8772V71.8692ZM186.367 0H18.6167C5.00604 0 0 4.99634 0 18.551V182.115L0.19992 186.395C0.503801 189.359 0.575773 192.228 3.33469 195.479C4.33865 196.316 5.37084 197.118 6.42948 197.885L10.6918 199.862L93.2914 234.342C97.5857 236.294 99.369 237.067 102.488 236.995H102.512C105.631 237.059 107.414 236.294 111.708 234.342L194.308 199.862L198.57 197.885L201.665 195.479C204.424 192.212 204.488 189.343 204.8 186.395C204.939 184.972 205.006 183.544 205 182.115V18.559C205 4.99634 199.978 0.00796902 186.383 0.00796902H186.367V0ZM112.948 31.4921H126.822V122.367H112.948V31.4921ZM113.883 144.495H121.96V171.987H114.347V156.193L107.294 166.951H107.134L100.121 156.273V171.987H92.6277V144.495H100.705L107.286 155.15L113.867 144.495H113.883ZM68.0613 31.4921H89.8368C101.112 31.4921 106.694 37.0701 106.694 48.3697V72.5147C106.694 83.8062 101.12 89.3923 89.8368 89.3923H81.9359V122.374H68.0613V31.4921ZM30.2441 31.4921H61.104V44.0825H44.1187V69.7814H60.4563V82.3719H44.1187V109.768H61.3679V122.359H30.2441V31.4921ZM56.7697 168.306C53.8509 170.696 49.7885 172.545 44.7904 172.545C36.1938 172.545 29.7723 166.648 29.7723 158.321V158.241C29.7723 150.233 36.0738 143.938 44.6305 143.938C49.4846 143.938 52.9072 145.428 55.8261 147.946L51.3319 153.325C49.3566 151.675 47.3894 150.735 44.6705 150.735C40.688 150.735 37.6172 154.066 37.6172 158.281V158.361C37.5648 159.363 37.7214 160.364 38.0773 161.303C38.4332 162.241 38.9805 163.095 39.6847 163.812C40.389 164.529 41.2347 165.092 42.1686 165.466C43.1025 165.841 44.1042 166.018 45.1103 165.987C46.9656 165.987 48.389 165.588 49.5246 164.847V161.516H44.0867V155.938H56.7777V168.314L56.7697 168.306ZM70.8842 144.304H78.2573L89.9967 171.995H81.7999L79.7847 167.079H69.1329L67.1577 171.995H59.1208L70.8602 144.304H70.8842ZM101.864 217.863L62.9833 204.539H142.4L101.864 217.863ZM149.421 172.003H127.03V144.511H149.221V150.99H134.603V155.157H147.854V161.174H134.603V165.533H149.429V172.011V171.995L149.421 172.003ZM134.171 106.27V47.5887C134.171 36.2972 139.745 30.7112 151.029 30.7112H157.77C169.046 30.7112 174.5 36.1697 174.5 47.4612V66.0282H160.889V48.2422C160.889 44.6005 159.194 42.9191 155.707 42.9191H153.372C149.749 42.9191 148.054 44.6085 148.054 48.2422V105.616C148.054 109.258 149.749 110.939 153.372 110.939H155.971C159.473 110.939 161.153 109.25 161.153 105.616V85.1131H174.763V106.27C174.763 117.561 169.19 123.155 157.906 123.155H151.029C139.753 123.155 134.171 117.577 134.171 106.27ZM175.475 163.517C175.475 169.134 171.021 172.465 164.32 172.465C159.425 172.465 154.779 170.935 151.389 167.907L155.643 162.831C158.152 164.925 161.311 166.088 164.583 166.122C166.639 166.122 167.742 165.421 167.742 164.234V164.154C167.742 163.015 166.839 162.385 163.088 161.524C157.21 160.186 152.676 158.536 152.676 152.878V152.799C152.676 147.683 156.739 143.993 163.368 143.993C168.062 143.993 171.725 145.252 174.723 147.643L170.901 153.022C168.382 151.253 165.623 150.313 163.168 150.313C161.313 150.313 160.409 151.093 160.409 152.082V152.161C160.409 153.42 161.353 153.97 165.183 154.831C171.525 156.209 175.475 158.241 175.475 163.397V163.477V163.501V163.517Z" fill="white"/>
</svg>
