<svg width="819" height="606" viewBox="0 0 819 606" fill="none" xmlns="http://www.w3.org/2000/svg">
<g clip-path="url(#clip0_669_145)">
<path d="M647.5 524.8C647 524 644.3 518.8 644 518.1C643.7 517.4 640.1 512.4 639.5 511.7C638.9 510.9 635.8 504.9 635.2 504C634.5 503.2 627 491.7 626.5 491C626.3 490.6 625 488.4 623.7 486.1C623.7 487.2 623.6 488 623.6 488.4C623.5 489.8 624.3 502.4 624.2 503.7C624.1 505 623.5 521.1 623.5 522.1C623.5 523.1 623.6 530.4 623.4 530.6C623.1 530.9 621.6 530.9 621.1 531C620.6 531.1 614.3 530.5 613.7 530.5C613.1 530.5 604.8 531.1 604.2 531.1C603.6 531.1 596 530.8 595.9 530.5C595.8 530.2 595.9 525.1 595.9 524.1C595.9 523.1 596.4 517.3 596.5 516.6C596.6 515.9 596.2 509.7 596.1 508.7C596 507.7 596.6 500.9 596.5 499.9C596.4 498.8 596.1 485.1 596.1 484.3C596.1 483.4 596.5 474.7 596.5 473.1C596.5 471.5 595.4 463.4 595.4 462.6C595.4 461.8 595.9 450.7 595.9 449.1C595.9 447.4 595.6 434.4 595.9 434.3C596.2 434.2 598.9 434.2 599.3 434.2C599.7 434.2 604.6 433.8 605.4 433.9C606.2 434 611.9 434.3 613.3 434.3C614.7 434.3 620.3 433.9 621.6 434.1C622.7 434.3 623.3 434 623.5 434.1C623.7 434.5 628.7 443.2 629.4 444.1C630.1 444.9 633.6 449.8 634.3 451.2C635.1 452.6 639.7 460.1 640.3 461.4C640.9 462.6 645.9 469.8 646.5 470.9C647 471.8 649.5 476 650.9 478.5C651 476.2 651.1 474 651.1 473.2C651.1 471.6 650 463.5 650 462.7C650 461.9 650.5 450.8 650.5 449.2C650.5 447.5 650.2 434.5 650.5 434.4C650.8 434.3 653.5 434.3 653.9 434.3C654.3 434.3 659.2 433.9 660 434C660.8 434.1 666.5 434.4 667.9 434.4C669.3 434.4 674.9 434 676.2 434.2C677.6 434.4 678.5 434.2 678.5 434.6C678.5 435 678.1 445.1 678.2 446.2C678.3 447.3 678.7 453.2 678.6 454.8C678.5 456.4 678.4 465.2 678.3 466.6C678.2 468 678.6 476.7 678.5 478C678.4 479.3 678.2 487.3 678.1 488.7C678 490.1 678.8 502.7 678.7 504C678.6 505.3 678 521.4 678 522.4C678 523.4 678.1 530.7 677.9 530.9C677.6 531.2 676.1 531.2 675.6 531.3C675.1 531.4 668.8 530.8 668.2 530.8C667.6 530.8 659.3 531.4 658.7 531.4C658.1 531.4 650.5 531.1 650.4 530.8L649.1 528.5L647.5 524.8Z" fill="white"/>
<path d="M113.1 433.5C113.1 433.5 113 442.2 113 443.5C113 444.8 112.5 454.4 112.4 455.9C112.3 457.4 113 461.3 112.9 462.2C112.8 463.1 112.2 471.5 112.2 472.7C112.2 473.9 112.8 479.6 112.8 480.1C112.8 480.6 112.4 487.3 112.3 488.3C112.2 489.3 113 492.9 113 493.4C113 493.9 112.4 497.2 112.4 498.7C112.4 500.2 112.5 507.5 112.5 508.7C112.5 509.9 112 516.2 111.9 517C111.8 517.8 112.6 522.3 112.6 522.9C112.6 523.5 111.9 529.4 112 529.9C112.1 530.3 117.8 530.9 118.8 530.9C119.7 530.9 128.2 530.6 130.3 530.5C132.4 530.4 141.1 531.4 142.7 531.3C144.4 531.2 150.5 530.5 151.7 530.3C152.9 530.1 165 530.6 166 530.6C167.1 530.6 173.1 531.1 174.3 531C175.5 530.9 178.2 530.9 178.6 530.6C179 530.3 179.1 523.6 179.1 522.4C179.1 521.2 178.8 516.1 179 514.8C179.1 513.5 179 509.6 178.9 508.9C178.8 508.2 179.5 506 179 505.6C178.8 505.4 172.8 505.3 171 505.4C169.2 505.5 164.4 506.2 163.3 506.2C162.2 506.2 157.3 505.7 155.8 505.6C154.4 505.5 150.8 505.9 149.6 505.8C148.4 505.7 143 505.5 142.4 505.5C141.8 505.5 141.8 504.6 141.8 504.1C141.8 503.6 142.2 498.5 142.2 497.3C142.2 496.1 141.6 493.1 141.7 492.7C141.8 492.3 147.7 492.5 148.7 492.6C149.8 492.7 157.9 493.5 159.5 493.6C161 493.7 165.5 493.1 166.6 493C167.7 492.9 173.6 493 173.8 492.8C174.1 492.5 174 489 174.2 487.8C174.4 486.6 174.2 481.7 174 481.1C173.8 480.5 174.1 476.7 174.1 475.8C174.1 474.8 174.2 471.3 173.7 471.1C173.3 470.9 172.4 471 171.7 471C170.3 471 159.3 470.9 157.9 470.8C156.6 470.7 153.2 471.3 151.9 471.3C150.6 471.3 143.6 470.9 143.1 470.9C142.6 470.9 142.2 464.9 142 464.2C141.8 463.5 142.7 458.1 142.8 457.8C142.9 457.5 149.8 458.2 151.5 458.2C153.2 458.2 162.1 458.2 163.9 458.2C165.7 458.2 174.3 458.7 175.1 458.7C175.9 458.7 177.7 458.4 178.2 458.5C178.7 458.6 178.3 450.9 178.4 449.2C178.5 447.5 178.8 441.6 178.8 440.8C178.8 440 178.8 434.9 178.8 434.5C178.8 434.1 172.9 434 170.7 434C168.5 434 165.2 433.6 163.9 433.6C162.6 433.6 151.9 434 150.6 434C149.3 434 142.2 433.2 140.3 433.4C138.4 433.5 129.2 434.2 128 434C126.8 433.9 117.1 433.6 116 433.6C114.9 433.6 113.4 433.4 113.1 433.5Z" fill="white"/>
<path d="M275.7 474.5C275.6 473.4 273.8 463.6 273.5 462.7C273.2 461.7 269.2 452.8 269 452.3C268.8 451.8 265.5 446.3 264.8 445.1C264.1 443.9 257.1 439.5 256.5 439.2C255.9 438.9 247.7 436.4 246.8 436.2C245.8 436 239.6 434.2 238.3 434C237 433.9 232 433.1 230.4 433.1C228.8 433.1 221.4 433.6 220.6 433.6C219.7 433.6 210.3 432.8 208.7 433C207.1 433.1 199.7 433.3 199.1 433.3C198.5 433.3 193.6 433.2 193.5 433.4C193.2 434 193.8 448.9 193.7 449.6C193.6 450.4 193.2 461.4 193.2 462.6C193.2 463.8 193.8 465.2 193.7 465.8C193.6 466.4 193.1 476.9 193.2 478.1C193.3 479.3 193.9 488.5 193.8 489.4C193.7 490.3 193.8 500.3 193.7 501.5C193.6 502.8 194 507.5 194.1 508.3C194.2 509.1 193.9 517.5 193.9 518.5C193.9 519.5 194.4 522.9 194.4 523.6C194.4 524.3 194.2 530.1 194.4 530.4C194.6 530.7 207.5 531 208.7 531.2C210 531.3 225.3 530.7 226 530.6C226.7 530.5 240.4 529.6 241 529.6C241.5 529.6 249.1 527.3 249.8 527.1C250.4 526.9 262.2 518.1 262.8 517.5C263.3 517 269.5 509.2 270.1 508.3C270.6 507.3 273.2 500.2 273.5 499.3C273.8 498.3 275.2 490.3 275.5 488.5C275.8 486.8 275.8 475.6 275.7 474.5ZM247 482.8C246.9 483.6 245.4 493 245 494C244.6 495 240.4 498 240 498.3C239.6 498.6 233.8 501.6 233 501.6C232.3 501.6 222.7 501.8 221.8 501.7C220.8 501.6 220.8 501.6 220.8 501.3C220.8 501 220.8 495.3 220.8 494.2C220.8 493.1 220.5 485.2 220.7 483.1C220.9 481.1 221.2 475.4 221 473.7C220.8 472.1 221 462.5 221 462.5C221.2 462.3 227.2 461.7 228 461.7C228.8 461.7 235.1 462.6 236.6 462.9C238.1 463.2 242.1 466.7 242.4 467.1C242.7 467.5 245.3 471.5 245.4 472.3C245.4 473.1 247.1 482 247 482.8Z" fill="white"/>
<path d="M286.5 433.5C286.3 433.7 286.4 441.1 286.4 442.1C286.4 443.1 285.8 459.3 285.7 460.6C285.6 461.9 286.4 474.6 286.3 476C286.2 477.4 286 485.5 285.9 486.8C285.8 488.1 286.2 496.9 286.1 498.3C286 499.7 285.9 508.6 285.8 510.2C285.7 511.8 286.1 517.8 286.2 518.9C286.3 520 285.9 530.1 285.9 530.6C285.9 531 286.8 530.8 288.2 531C289.6 531.2 295.2 530.8 296.5 530.8C297.8 530.8 303.6 531.1 304.4 531.2C305.2 531.3 310.1 530.9 310.5 530.9C310.9 530.9 313.6 530.9 313.9 530.8C314.2 530.7 313.9 517.5 313.9 515.9C313.9 514.2 314.4 503.1 314.4 502.2C314.4 501.3 313.3 493.2 313.3 491.6C313.3 490 313.7 481.2 313.7 480.3C313.7 479.4 313.4 465.6 313.3 464.5C313.2 463.4 313.8 456.6 313.7 455.6C313.6 454.6 313.2 448.4 313.3 447.7C313.4 447 313.9 441.1 313.9 440.1C313.9 439.1 314 434 313.9 433.7C313.8 433.4 306.2 433.1 305.6 433.1C305 433.1 296.7 433.7 296.1 433.7C295.5 433.7 289.2 433.1 288.7 433.2C288.3 433.2 286.8 433.2 286.5 433.5Z" fill="white"/>
<path d="M413.1 527.7C413 527 412.4 522.5 412.1 521.5C411.8 520.5 409.5 514.2 409.3 513.4C409.1 512.5 408.1 507.4 407.7 506.5C407.3 505.6 405.3 500.3 405.1 499.3C404.9 498.3 402.7 490 402.4 489.1C402.1 488.2 399.8 482.5 399.6 481.7C399.4 481 398 475.1 397.7 474.3C397.4 473.6 393.2 463.8 393.1 463.3C393 462.8 392 458.9 391.5 457.3C391 455.7 388 447.1 387.5 445.5C387 443.9 383.7 433.5 383.4 433.3C383.1 433.1 381.2 433.5 380.5 433.5C379.8 433.5 374.8 432.9 373.6 432.9C372.4 432.9 368.3 433.4 367.1 433.4C365.9 433.4 360.9 432.8 360 432.9C359.1 433 355.7 433 355.5 433.3C355.3 433.7 352.7 441.3 352.6 442C352.5 442.7 347.6 454.5 347.3 455.6C347 456.7 344.7 464.6 344.2 465.7C343.7 466.8 338.6 481.3 338.3 482.3C338 483.3 336.3 489.7 336.1 490.5C335.9 491.4 332.6 500.9 332.3 501.8C332 502.8 330.3 511 329.9 512.3C329.5 513.6 327.1 521.1 326.6 522.2C326.1 523.4 324 530 324.1 530.2C324.2 530.4 325.6 530.4 326 530.4C326.4 530.4 332 530.3 332.5 530.3C333 530.3 340.7 531.2 342.1 531C343.5 530.9 353.2 530.9 353.3 530.5C353.4 530.1 354.1 525.3 354.2 524.5C354.3 523.8 355.5 519.7 355.5 519C355.5 518.6 356.8 515.2 356.8 515.2C356.8 515.2 364.2 515.6 365.3 515.6C366.4 515.6 374.3 514.9 375 514.9C375.7 514.9 381 515.2 381 515.2L381.6 516.3C381.6 516.3 382.9 521.1 383.2 522.4C383.5 523.7 385 530.8 385.2 530.8C385.4 530.8 391 530.9 391.4 530.9C391.8 530.9 398.4 530.7 399 530.7C399.6 530.7 405.3 531.1 406.3 531.1C407.3 531.1 413.8 530.8 413.8 530.5C413.8 530.2 413.2 528.5 413.1 527.7ZM376.6 492.8C376.1 492.8 371.4 492.8 370.6 492.8C369.8 492.8 363.6 493.3 362.1 493.2C361.6 493.2 361.6 493 361.6 492.6C361.7 492.1 362.9 485.7 363.3 484.9C363.7 484.1 365.1 477.5 365.2 476.7C365.3 475.9 368.8 466.7 369 466.1C369.4 464.9 369.5 465.2 369.7 466C369.9 466.8 372 473.6 372.2 474.4C372.4 475.2 374.7 482.2 375.2 483.9C375.7 485.6 376.7 491.7 376.9 492.2C377 492.5 376.9 492.8 376.6 492.8Z" fill="white"/>
<path d="M718 434.3C718.2 434.5 718.1 441.8 718.1 442.8C718.1 443.8 718.7 459.9 718.8 461.2C718.9 462.5 718.1 475.1 718.2 476.5C718.3 477.9 718.5 486 718.6 487.2C718.7 488.5 718.3 497.2 718.4 498.6C718.5 500 718.6 508.8 718.7 510.4C718.8 512 718.4 517.9 718.3 519C718.2 520.1 718.6 530.2 718.6 530.6C718.6 531 717.7 530.8 716.3 531C714.9 531.2 709.4 530.8 708.1 530.8C706.7 530.8 701.1 531.1 700.3 531.2C699.5 531.3 694.7 530.9 694.2 530.9C693.8 530.9 691.2 530.9 690.9 530.8C690.6 530.7 690.6 520.6 690.6 519C690.6 517.3 691.1 503.2 691.1 502.4C691.1 501.6 691.4 493.5 691.4 491.9C691.4 490.3 691 481.6 691 480.7C691 479.8 691 470.9 691.1 469.9C691.2 468.8 690.9 457.2 691 456.3C691.1 455.4 691.2 449.3 691.1 448.5C691 447.7 690.8 441.8 690.8 440.9C690.8 440 690.7 434.8 690.8 434.5C690.9 434.2 698.3 434.3 698.9 434.3C699.5 434.3 708 434.1 708.6 434.1C709.2 434.1 716.6 434 717.1 434.1C717.7 434.1 717.6 434 718 434.3Z" fill="white"/>
<path d="M486.8 461.5C486.1 461.5 479.9 461.8 478.9 461.9C477.9 462 471.1 461.4 470.1 461.5C469.8 461.5 463.6 461.6 461.9 461.6C461.8 464.3 461.8 467 461.7 467.7C461.6 469 462 477.6 461.9 478.8C461.8 480 461.6 487.9 461.5 489.3C461.4 490.6 462.2 503 462.1 504.2C462 505.4 461.4 521.2 461.4 522.2C461.4 523.1 461.5 530.3 461.3 530.5C461 530.8 459.5 530.8 459 530.9C458.5 531 451.7 530.5 451.1 530.5C450.5 530.5 442.8 531 442.1 531C441.5 531 433.9 530.7 433.8 530.4C433.7 530.1 433.2 525.1 433.2 524.2C433.2 523.3 433.7 517.6 433.8 516.8C433.9 516.1 433.5 510.1 433.4 509.1C433.3 508.2 433.9 501.5 433.8 500.5C433.7 499.5 433.4 486.1 433.4 485.2C433.4 484.3 433.6 476.7 433.6 475.2C433.6 473.7 433.2 468.6 433.2 467.8C433.2 467.6 433.4 462.6 433.4 462.3C433.1 462.3 423.3 461.9 422.9 461.9C422.1 461.9 411.1 462 409.5 462C409.5 462 409 462 408.7 462C408.5 462 408.5 461.7 408.5 461.5C408.5 461.2 408.4 457 408.5 456.6C408.6 456.2 408.2 453.2 408.2 452.4C408.3 451.6 408.5 443.1 408.5 442.6C408.5 442.1 408.2 434.9 408.2 434.6C408.2 434.3 408.4 434.2 408.6 434.2C409.7 434.3 413.5 433.7 415.1 433.8C416.7 433.9 430.4 434 431.8 434.1C433.2 434.2 441.9 433.8 443.2 433.9C444.5 434 452.5 434.2 453.9 434.3C455.3 434.4 472.8 433.6 474.1 433.7C474.9 433.8 482.1 433.9 487.3 434.2C487.6 434.2 487.7 434.3 487.7 434.4C487.8 434.5 487.7 439.4 487.7 440.3C487.7 441.1 487.7 449.9 487.7 450.6C487.7 451.3 487.3 457.1 487.3 457.5C487.3 457.9 487.4 461 487.4 461.2C487.4 461.4 487 461.5 486.8 461.5Z" fill="white"/>
<path d="M582.9 465.8C582.4 464.4 579.8 458.6 579.4 457.5C579 456.4 576.3 450.3 575.4 449C574.4 447.7 569 443.4 568 442.3C567 441.2 560.9 436.6 558.8 435.9C556.7 435.3 551.6 434.3 550.4 434C549.3 433.7 544.3 432.7 542.7 432.7C541.7 432.7 533.2 432.5 531.5 433C530.1 433.4 521.4 435.1 520.4 435.4C519.4 435.7 512.5 440 511.2 440.7C509.9 441.4 503.5 447.1 502.8 447.7C502.2 448.3 498.9 454.7 498.1 455.7C497.3 456.7 495 464.2 494.7 465.6C494.4 467 493.7 475.3 493.4 476.9C493.1 478.5 493.9 487 493.9 487.7C493.9 488.4 494.4 497 494.7 498.2C495 499.5 498.6 508.7 499 509.8C499.5 510.9 502.4 517.3 503.2 518.3C504 519.3 507.4 522 507.9 522.4C508.4 522.9 516.1 526.9 517.1 527.3C518.1 527.8 522.6 529.9 524.3 530.5C526 531.1 533.6 531.3 535.2 531.5C536.8 531.7 546.1 530.9 547.3 530.7C548.4 530.5 554.9 530.2 555.8 530.1C556.8 529.9 565.3 525.7 566.8 524.6C568.3 523.6 573.3 517.8 574.1 516.4C574.7 515.3 579.8 509.6 580.3 508.5C580.8 507.4 583 500.8 583.3 499.5C583.6 498.2 585 489.8 585 488.8C585 487.8 584.4 478.6 584.4 476.9C584.4 475.2 583.4 467.3 582.9 465.8ZM555.5 484.4C555.4 485.1 555.2 488.4 555 489C554.9 489.6 554.1 492.7 553.8 493C553.5 493.4 552.3 496 552.1 496.3C551.9 496.6 549.5 498.9 549.1 499.2C548.7 499.5 546.1 501.2 545.8 501.4C545.5 501.5 542.3 502.2 541.8 502.4C541.2 502.6 538.1 502.5 537.7 502.5C537.1 502.5 535.3 502.1 534.9 502C534.5 501.9 532.6 501.5 531.9 501.2C531.1 500.9 528.9 499 528.6 498.6C528.3 498.1 526.3 496.4 525.9 495.9C525.6 495.4 524.6 492.9 524.4 492.4C524.2 491.9 523.3 489.6 523.1 489C522.9 488.4 522.5 485.2 522.5 484.4C522.5 483.7 522.8 479.6 522.8 479.3C522.8 479 522.8 475.7 522.9 475.2C523 474.7 524.2 472.2 524.4 471.7C524.6 471.2 525.7 468.4 526 468C526.3 467.7 529 465.6 529.5 465.1C530 464.6 532.5 462.6 532.8 462.6C533.1 462.5 535.5 462.4 535.9 462.3C536.3 462.2 539.7 461.9 540.3 462C540.9 462.1 543.6 462.1 544.3 462.4C544.9 462.7 546.6 463.5 546.9 463.7C547.2 463.9 550 465.5 550.2 465.7C550.4 465.9 551.6 467 551.9 467.4C552.2 467.8 553.2 470.4 553.4 470.9C553.6 471.4 554.9 475.1 555 475.7C555.1 476.2 555.3 479.7 555.3 480C555.3 480.3 555.6 483.8 555.5 484.4Z" fill="white"/>
<path d="M800.9 494.8C800.1 494.8 795.2 493.8 794.4 493.8C793.7 493.8 789.3 493.3 788.5 493.3C788.4 493.3 788.3 493.3 788.2 493.3C788.2 493.4 788.1 493.4 788.1 493.5C787.8 493.9 786.6 496.5 786.4 496.7C786.2 497 783.8 499.3 783.3 499.5C782.8 499.8 780.3 501.5 779.9 501.6C779.5 501.7 776.3 502.4 775.8 502.6C775.1 502.8 772 502.7 771.7 502.7C771.1 502.7 769.3 502.3 768.9 502.2C768.5 502.1 766.6 501.7 765.8 501.4C765 501.1 762.8 499.3 762.4 498.8C762 498.3 760 496.6 759.7 496.1C759.4 495.6 758.4 493.1 758.2 492.7C758 492.2 757.1 489.9 756.9 489.4C756.7 488.8 756.3 485.6 756.3 484.9C756.3 484.2 756.6 480.2 756.6 479.8C756.6 479.4 756.6 476.3 756.7 475.7C756.8 475.2 758.1 472.7 758.2 472.3C758.4 471.8 759.5 469 759.9 468.7C760.3 468.4 762.9 466.3 763.4 465.9C763.9 465.4 766.4 463.5 766.8 463.4C767.2 463.3 769.5 463.2 769.9 463.1C770.3 463 773.7 462.7 774.3 462.8C774.9 462.9 777.7 462.9 778.3 463.2C779 463.5 780.6 464.3 781 464.5C781.4 464.7 784.2 466.3 784.4 466.5C784.6 466.7 785.8 467.8 786.1 468.2C786.4 468.6 787.5 471.2 787.6 471.6C787.7 471.8 787.8 472.3 788.1 472.9C790.1 472.8 792.3 472.7 792.5 472.6C792.9 472.6 797.2 472.4 798.2 472.3C799.1 472.2 804.6 471.3 805.1 471.2C805.7 471.1 812 470.4 812.8 470.4C813.2 470.4 815.6 470.1 818.2 469.8C817.9 468.3 817.7 467 817.5 466.5C817 465.1 814.4 459.4 813.9 458.3C813.4 457.2 810.8 451.2 809.8 450C808.8 448.7 803.3 444.5 802.3 443.4C801.3 442.3 795.1 437.7 793 437.1C790.9 436.5 785.7 435.5 784.5 435.2C783.4 434.9 778.3 433.9 776.7 433.9C775.7 433.9 767.1 433.7 765.3 434.2C763.9 434.6 755 436.2 754.1 436.6C753.1 436.9 746.1 441.2 744.8 441.8C743.5 442.4 737 448.1 736.3 448.7C735.6 449.3 732.4 455.6 731.6 456.6C730.8 457.5 728.5 464.9 728.2 466.4C727.9 467.8 727.2 476 726.9 477.6C726.6 479.2 727.4 487.5 727.4 488.3C727.4 489.1 727.9 497.4 728.2 498.7C728.5 500 732.1 509.1 732.6 510.2C733.1 511.3 736 517.6 736.8 518.5C737.6 519.4 741 522.1 741.5 522.6C742 523.1 749.8 527 750.8 527.5C751.8 528 756.3 530 758.1 530.7C759.9 531.3 767.6 531.5 769.2 531.6C770.8 531.8 780.3 531 781.4 530.8C782.5 530.6 789.1 530.3 790 530.2C790.9 530.1 799.6 525.8 801.1 524.8C802.6 523.8 807.7 518.1 808.5 516.7C809.2 515.6 814.3 510 814.8 508.9C815.3 507.8 817.5 501.3 817.9 500C818 499.6 818.2 498.6 818.4 497.4C815.5 496.9 808.5 495.5 807.7 495.4C806.9 495.3 801.7 494.8 800.9 494.8Z" fill="white"/>
<path d="M98.2 508.2C98.2 508.1 98.2 508 98.2 507.9C98.3 505.2 98.4 502.7 98.4 502.3C98.4 501.5 97.6 494.7 97.5 492.2C97.5 491.4 97.6 490.9 97.6 490.7C97.6 490.5 97.6 489.9 97.6 488.9C97.7 485.7 97.9 480.9 97.9 480.2C97.9 479.3 97.6 465.5 97.6 464.4C97.6 464 97.6 462.7 97.7 461.2C97.8 460.1 97.9 459 97.9 458.7C97.9 458.4 97.9 457.6 97.9 456.8C97.9 456.2 97.9 455.7 97.9 455.5C97.9 454.5 97.9 453.7 97.9 453.6C97.9 453.6 97.9 453.6 97.8 453.6C97.7 451.4 97.5 448.1 97.6 447.6C97.7 446.8 98.2 440.9 98.2 440C98.2 439 98.3 433.9 98.2 433.6C98.1 433.3 91.5 433 90.9 433C90.3 433 84.9 433.6 84.3 433.6C83.7 433.6 78 433.1 77.5 433.2L74 433.5C73.7 433.7 70.1 437.4 69.4 438.1C68.7 438.8 64.9 443.3 64.4 443.9C63.9 444.5 59.3 448.6 58.5 449.3C57.8 449.9 53.3 455.2 52.5 455.9C52.2 456.1 51.2 457.1 49.7 458.5C49.5 458.7 49.1 458.7 48.8 458.5C47.5 457.3 46.5 456.3 46.3 456.1C45.5 455.4 41 450.2 40.3 449.5C39.6 448.8 34.9 444.7 34.4 444.1C33.9 443.5 30.1 439 29.4 438.3C28.8 437.7 25.5 434.3 24.9 433.8L17.6 433.1C17 433.1 9.80001 433.7 9.30001 433.7C8.70001 433.7 3.30001 433.1 2.80001 433.2C2.30001 433.3 1.00001 433.3 0.800012 433.6C0.700012 433.8 0.700012 441.2 0.700012 442.2C0.700012 443.2 0.100012 459.4 1.21528e-05 460.7C-0.0999878 462 0.600012 474.8 0.600012 476.2C0.500012 477.6 0.300012 485.8 0.200012 487C0.100012 488.3 0.500012 497.1 0.400012 498.5C0.300012 499.9 0.200012 508.8 0.100012 510.4C1.21519e-05 512 0.400012 518 0.500012 519.1C0.600012 520.2 0.200012 530.4 0.200012 530.8C0.200012 531.2 1.00001 531 2.20001 531.2C3.10001 531.4 6.10001 531.2 8.10001 531C8.60001 531 9.10001 531 9.60001 530.9C10.9 530.9 15.7 531.2 16.4 531.3C16.8 531.4 18.4 531.2 19.7 531.1C20.6 531.2 25.4 530.8 25.8 530.8C26.2 530.8 28.9 530.8 29.2 530.7C29.5 530.6 29.2 520.2 29.2 518.8C29.2 517.5 29.7 508.6 29.7 508C29.7 507.3 28.6 500.9 28.6 499.6C28.6 498.3 29 491.3 29 490.6C29 490 28.8 480.6 28.6 478.5L28.7 478.6C29.2 479.3 33.6 483 34.1 483.7C34.7 484.4 38.7 488.6 39.4 489.4C40.1 490.2 43.1 492.7 43.7 493.1C44.1 493.4 46.7 496.1 48.2 497.7C48.8 498.3 49.8 498.3 50.4 497.7C52.2 495.7 55.8 492 56.5 491.3C57.5 490.3 63 485.2 63.6 484.6C64.2 484.1 68.5 479.2 69.4 478.2C69.6 481.6 70 486.5 69.9 487.2C69.8 488.3 69.6 494.8 69.5 495.8C69.4 496.8 69.8 503.8 69.7 504.9C69.6 506 69.5 513.1 69.4 514.3C69.3 515.6 69.7 520.3 69.8 521.2C69.9 522.1 69.5 530.1 69.5 530.5C69.5 530.8 70.4 530.7 71.8 530.8C72.3 530.9 73.3 530.9 74.5 530.8C74.7 530.8 75 530.8 75.2 530.9C76.4 531.1 81.3 530.7 82.5 530.7H82.6C83.3 530.7 84 530.8 84.7 530.8C86.6 530.9 89 531.1 89.4 531.1C90.1 531.2 94.4 530.8 94.8 530.8C95.2 530.8 97.5 530.8 97.8 530.7C98.1 530.6 97.8 517.4 97.8 515.7C97.8 515.1 97.9 513 98 510.6C98.2 509.5 98.2 508.4 98.2 508.2Z" fill="white"/>
<path d="M592.8 0.6C592.7 0.6 584.1 0.5 584.1 0.5H573.2L563.1 1.3C563.1 1.3 557.8 7.4 555.7 10.6C553.6 13.8 546.5 18.7 545.8 21C545.1 23.3 524 41.2 524 41.2C524 41.2 514.1 50.8 512.9 51.9C511.8 53 505.1 60.2 501.8 61.8C498.5 63.4 494.3 67.8 491.9 70.6C489.4 73.4 484.7 79.2 482.8 81C480.9 82.8 473.3 91 473.3 91C473.3 91 468.5 96.4 466.4 97.6C464.3 98.8 461.6 101.4 459.5 103.4C457.4 105.4 454.9 107.4 451.8 110C448.7 112.6 447.1 116.2 444 118.7C440.9 121.3 437 127.1 433.9 129.6C430.8 132.2 422.1 142 419.6 145.5C419.3 145.9 419 146.4 418.6 146.8C418.5 146.9 418.4 147 418.3 147.1C417 148.3 414.8 150.1 413.1 151.4C412.2 152 411.3 152.5 410.4 153L405.4 148.6C403.4 146.5 399 144 397.7 142.2C395.2 138.6 392.4 133.8 389.3 131.3C386.2 128.7 380.6 123.8 377.6 121.2C374.5 118.6 372.3 113.7 369.2 111.1C366.1 108.5 362.1 104.7 360 102.7C357.9 100.7 356.7 98.7 354.5 97.5C352.4 96.3 347.6 90.9 347.6 90.9C347.6 90.9 340 82.8 338.1 80.9C336.2 79.1 328 73.6 325.6 70.9C323.1 68.1 313.8 56.5 310.5 55C307.2 53.4 299.1 42.7 297.9 41.6C296.8 40.5 289.1 35 288.5 34.6C288.5 34.6 288.5 34.6 288.4 34.5C287.7 33.9 277.6 25.4 276.9 23.1C276.2 20.8 267.2 13.8 265.1 10.6C263.3 7.9 258.6 3.1 257.1 1.7C256.8 1.4 256.5 1.3 256.1 1.3H245.8L245.1 1.4C243.7 0.9 241.3 0.6 240.6 0.5C240.5 0.5 240.3 0.5 240.2 0.5C239.1 0.8 233.5 2 231.5 1C229.2 0 223.7 0.5 223.7 0.5L220.7 0.8C220.5 0.8 220.4 0.8 220.3 0.8C219.1 0.5 217.2 0.8 216.1 1C215.5 1.1 215 1.6 215 2.2L214.3 8.9C214.3 9.1 214.3 9.2 214.3 9.4C214.7 10.9 216.8 19.6 216 23C215.1 26.7 216.6 35.2 215.4 37.3C214.3 39.4 215.9 65.8 216 67V67.1V82.4C216 84 215.4 93.8 216.6 97.3C217.8 100.7 217.5 106.8 217.2 110.6C216.9 114.3 216 121.7 216 124.4C216 127.1 215.4 138.2 215.4 138.2C215.4 138.2 214.8 145.4 215.4 147.7C216 150.1 216 153.8 216 156.7C216 159.6 216.3 162.8 216.6 166.8C216.9 170.8 216.3 174 216.6 177.9C216.9 181.9 216.3 189.8 216.6 193.8C216.9 197.8 216.9 207.6 216 211.8C215.1 216 214 221.2 214.9 224.4C215.8 227.6 216 234.6 216 238.8C216 243 216 257.4 216 262.1C216 266.9 215.7 273.8 215.4 279.1C215.1 284.4 215.7 291.3 215.4 295C215.1 298.7 214.8 312 215.4 314.2C216 316.3 218.3 330.9 217.1 334.4C215.9 337.8 216.8 348.5 215.9 352.2C215 355.9 214.7 365.1 215.3 367.5C215.9 369.9 216.2 376 216.5 378.1C216.7 379.7 216.7 386 216.7 388.7C216.7 389.4 217.2 390 218 390.1L222.7 390.5C222.8 390.5 222.8 390.5 222.9 390.5L238.4 389.7C238.5 389.7 238.5 389.7 238.6 389.7C240.3 389.8 266.4 391.8 268.1 390.8C269.7 389.8 280 390.9 281.7 391C281.9 391 282 391 282.2 391C283.6 390.7 291 389 294.2 389.7C297.7 390.5 322.6 389.7 322.6 389.7C322.6 389.7 344.3 388.9 349.2 389.7C352.6 390.3 360.9 390.1 366.2 390.4C367 390.4 367.7 389.8 367.7 388.9L367.6 382.9C367.6 382.9 367.6 370.3 367.6 367L366.9 349.2L367.9 318.7C368.4 304.8 367.5 288.7 368.2 279.1C368.3 278.3 367.7 277.7 366.9 277.6L346 276H345.9H321.5C321.4 276 321.4 276 321.3 276L314 275C313.3 274.9 312.8 274.3 312.8 273.7L312.2 256V255.9C312.9 241.9 311.6 231.8 311.6 221.9C311.6 221.8 311.6 221.8 311.6 221.7C313.2 209.6 312 201.8 312.8 201.8L324.9 199.9C325 199.9 325.1 199.9 325.2 199.9L340 201L358.4 201.9L366.8 201.8L376 201C376.1 201 384.3 201.8 384.4 201.8L395.3 202.6C402 202.6 415.6 203.8 426.3 203.4L448.8 203L466.6 201.7L478.7 201.8C478.8 201.8 478.8 201.8 478.9 201.8L493.3 201.4C493.4 201.4 493.5 201.4 493.6 201.4C498.5 202.4 505.9 202.7 505.9 202.9L506.2 219.5L505.8 253.3C505.3 268.4 505 276 504 276L489.8 275.1C489.7 275.1 489.7 275.1 489.6 275.1L475.6 276.2H475.5H458.4L451 276.5C450.2 276.5 449.6 277.3 449.7 278.1C451.6 293.2 450.2 309.8 450.2 318.7L451.3 349.2C451.5 359.1 451.7 378.3 452 387.9C452 388.7 452.7 389.3 453.5 389.2C459.5 388.9 465.4 388.9 467.3 388.9C469.9 388.9 478.9 390.3 481.7 390C484.4 389.7 489.8 390 490.3 390H490.4C491 390 496 389.7 499.3 389.7C502.8 389.7 511.5 389.7 514.9 389.7C518.4 389.7 526.2 388.9 528.8 388.9C531.4 388.9 536.7 389.1 541 389.4C545.3 389.7 548.5 391 554.3 389.9C560.1 388.8 563.5 389.9 568.7 390.2C573.9 390.5 578.5 390.2 581.4 390.7C584.1 391.2 594.1 391.2 595.4 391.2C595.5 391.2 595.6 391.2 595.7 391.2L601.4 389.9C602 389.8 602.5 389.2 602.5 388.5C602.5 386.6 602.3 382.8 602.2 381.1C602.1 378.8 603.6 370.8 602.3 363C601 355.2 602.1 348.2 602.1 346.6C602.1 345 602.4 337.6 602.2 332.7C602.1 327.8 603.2 309.5 602.2 305.1C601.2 300.7 601.5 293.8 602.2 288.1C602.9 282.4 604.1 279.2 603.9 273.2C603.8 267.2 603.8 263.3 603.3 258.9C602.9 254.5 602.6 239.9 602.7 237.7C602.8 235.4 603.4 221.1 602.7 215.9C602 210.7 603.1 204.4 602.1 203.2C601.1 202 602 197.2 602 195.6C602 194.1 602.1 187.9 602.1 186.9C602.1 186.8 602.1 186.7 602.1 186.6C602.3 185.7 603.6 180.3 603.2 177.7C602.8 174.9 603.3 168.5 602.6 166.6C601.9 164.6 603.3 157.7 602.6 154.4C601.9 151.1 601.9 145.5 601.9 145.5C601.9 145.5 601.9 141.5 601.9 139.1C601.9 136.7 601.9 131.1 601.9 128C601.9 124.8 602.2 118.5 602 115.7C601.9 112.9 603.3 111.1 602.6 107.2C601.9 103.4 601.8 98.6 601.8 95.4C601.8 92.2 600.9 89.8 601.8 85.9C602.7 81.9 602.7 80.6 603.2 76.5C603.6 72.4 603.9 69.5 603.8 65.4C603.7 61.3 603.7 57.8 603.2 53.2C602.8 48.6 602.5 47 602.6 42.6C602.7 38.2 602.5 36.6 602.6 33.1C602.7 29.5 603.3 20.8 602.6 18.8C601.9 16.8 603 15.5 602 13C601.1 10.8 601.8 8 602 7.3C602 7.2 602 7.1 602 7V3.7C602 3.7 602 3.6 602 3.5C602.1 2.3 601.2 1.3 600 1.2H598.8L592.8 0.6Z" fill="white"/>
<path d="M601.9 592.8C601.9 592.1 601.6 582.2 601.6 581.4C601.6 580.9 601.5 576.8 601.4 574.1C601.4 572.9 600.3 571.9 598.9 571.9H592.5C591.2 571.9 583 572.1 582 572.2C581 572.3 572.6 572.2 571.3 572.1C570 572 554 572.3 552.6 572.2C551.2 572.1 538.9 572.1 537.7 572.1C536.5 572.1 524.4 572.6 522.2 572.6C520 572.6 509 572.2 507.8 572.2C506.6 572.2 487.2 571.6 484.9 571.6C483 571.6 473.4 571.6 469.9 571.8C468.2 571.8 466.7 571.8 466.1 571.8C464.8 571.8 456.6 572 455.6 572.1C454.6 572.2 446.2 572.1 444.9 572C443.6 571.9 427.6 572.2 426.2 572.1C424.7 572 412.5 572 411.3 572C410.1 572 398 572.5 395.8 572.5C393.6 572.5 382.6 572.1 381.4 572.1C380.2 572.1 360.8 571.5 358.5 571.5C356.6 571.5 347 571.5 343.5 571.7C341.8 571.7 340.3 571.7 339.7 571.7C338.4 571.7 330.2 571.9 329.2 572C328.2 572.1 319.8 572 318.5 571.9C317.2 571.8 301.2 572.1 299.8 572C298.3 571.9 286.1 571.9 284.9 571.9C283.7 571.9 271.6 572.4 269.4 572.4C267.2 572.4 256.2 572 255 572C253.8 572 234.4 571.4 232.1 571.4C230.4 571.4 222.3 571.6 218.2 571.7C216.9 571.7 215.8 572.7 215.8 573.9C215.8 574.7 215.7 575.4 215.7 575.6C215.7 576.1 215.1 581.7 215.3 582.7C215.4 583.7 215.9 590.2 215.9 591.8C215.9 593.4 215.3 599.8 215.6 601.4C215.7 601.8 215.7 602.1 215.8 602.4C216.1 603.5 217.1 604.2 218.3 604.2C222.3 604 230.9 603.6 232.1 603.7C233.6 603.8 241.8 604.3 243.9 604.2C246.1 604.1 258.2 604 260.1 603.8C262 603.7 274 604.2 275.8 604C277.6 603.9 288.7 603.6 290.6 603.5C292.5 603.4 309.9 604.4 311.7 604.2C313.5 604.1 335.7 603.3 337 603.3C337.6 603.3 342.9 604.1 345.2 604.1C345.2 604.5 357 603.4 358.5 603.6C360 603.8 368.2 604.2 370.3 604.1C372.5 604 384.6 603.9 386.5 603.7C388.4 603.6 400.4 604.1 402.2 603.9C404 603.8 415.1 603.5 417 603.4C418.9 603.3 436.3 604.3 438.1 604.1C439.9 604 462.1 603.2 463.4 603.2C464 603.2 470.7 604 470.7 604C470.7 604 483.4 603.3 484.9 603.5C486.4 603.7 494.6 604.1 496.7 604C498.9 603.9 511 603.8 512.9 603.6C514.8 603.5 526.8 604 528.6 603.8C530.4 603.6 541.5 603.4 543.4 603.3C545.3 603.2 562.7 604.2 564.5 604C566.3 603.9 588.5 603.1 589.8 603.1C590.7 603.1 596 603 599.1 603C600.4 603 601.5 602 601.6 600.8L601.9 592.8Z" fill="white"/>
</g>
<defs>
<clipPath id="clip0_669_145">
<rect width="818.7" height="605.2" fill="white"/>
</clipPath>
</defs>
</svg>
