<svg width="700" height="266" viewBox="0 0 700 266" fill="none" xmlns="http://www.w3.org/2000/svg">
<path fill-rule="evenodd" clip-rule="evenodd" d="M130.3 0.0115708C135.844 0.0479246 139.042 0.156993 141.024 0.356938C142.569 0.52053 144.859 0.774996 146.113 0.938588C147.367 1.084 149.821 1.46572 151.565 1.75655C153.31 2.04738 156.382 2.6654 158.381 3.10164C160.38 3.53789 163.852 4.42856 166.106 5.08293C168.36 5.71912 171.431 6.68249 172.922 7.19144C174.43 7.71857 176.993 8.68195 178.647 9.33632C180.301 9.99068 182.991 11.1177 184.645 11.8629C186.299 12.6082 189.116 13.9714 190.915 14.8984C192.715 15.8255 195.387 17.2978 196.877 18.1703C198.349 19.0246 200.585 20.406 201.875 21.224C203.147 22.042 205.001 23.278 206.001 23.9869C207.001 24.6776 208.873 26.0409 210.181 27.0224C211.49 28.004 213.689 29.749 215.089 30.9123C216.488 32.0756 218.724 34.0205 220.069 35.2384C221.396 36.4562 223.849 38.8374 225.503 40.546C227.157 42.2365 229.466 44.7449 230.629 46.09C231.774 47.4351 233.046 48.9437 233.446 49.4163C233.846 49.8889 234.118 50.2888 234.046 50.2707C233.955 50.2707 233.028 49.5072 231.956 48.5802C230.865 47.6532 229.175 46.2354 228.175 45.4356C227.175 44.6358 225.013 42.9636 223.359 41.7457C221.705 40.5097 218.96 38.5829 217.27 37.456C215.579 36.329 212.908 34.6567 211.363 33.7297C209.818 32.8027 207.11 31.2758 205.365 30.3488C203.62 29.4036 200.712 27.9676 198.913 27.1133C197.113 26.2772 193.969 24.9321 191.915 24.1141C189.861 23.278 186.753 22.1328 185.008 21.5512C183.263 20.9513 180.228 20.0243 178.283 19.4972C176.339 18.9519 173.231 18.1703 171.377 17.7704C169.523 17.3523 166.796 16.8252 165.288 16.5707C163.797 16.3162 161.289 15.9527 159.744 15.7528C158.199 15.5346 155.491 15.2438 153.746 15.0984C152.002 14.9348 148.148 14.7712 145.204 14.6985C141.914 14.644 138.297 14.6803 135.844 14.8076C133.644 14.9348 130.627 15.1529 129.119 15.2983C127.628 15.4437 125.211 15.7164 123.757 15.9163C122.303 16.1163 120.722 16.4071 120.213 16.5344C119.358 16.7707 119.504 16.7888 122.994 16.807C125.011 16.8252 127.919 16.9161 129.446 17.0251C130.954 17.116 133.463 17.3705 134.989 17.5704C136.498 17.7522 139.006 18.1521 140.533 18.4611C142.041 18.7519 144.477 19.3154 145.931 19.7153C147.385 20.1152 149.675 20.8241 151.02 21.2967C152.365 21.7693 154.528 22.5873 155.837 23.1507C157.145 23.6961 159.254 24.6776 160.562 25.3138C161.871 25.9682 163.779 27.0042 164.833 27.6041C165.888 28.2039 167.887 29.44 169.286 30.3488C170.686 31.2576 171.922 32.1301 172.013 32.2755C172.158 32.4937 172.122 32.5118 171.831 32.3846C171.631 32.3119 170.486 31.912 169.286 31.5303C168.087 31.1304 165.67 30.4033 163.925 29.8944C162.18 29.3854 159.108 28.5675 157.109 28.0949C155.11 27.6041 152.202 26.9679 150.657 26.6589C149.112 26.368 146.494 25.9136 144.84 25.6592C143.186 25.4047 140.696 25.0775 139.297 24.9321C137.897 24.7685 135.28 24.5504 133.481 24.4413C131.536 24.3141 128.446 24.2777 125.847 24.3322C123.448 24.405 120.431 24.5685 119.122 24.7321C117.814 24.8776 115.978 25.132 115.033 25.2956C114.088 25.4592 112.088 25.8954 110.58 26.2772C109.089 26.6589 106.872 27.3496 105.672 27.8222C104.473 28.2766 102.71 29.0582 101.765 29.549C100.819 30.0398 99.3472 30.9123 98.493 31.4758C97.6387 32.0392 96.2937 33.0571 95.494 33.7297C94.6943 34.4022 93.4584 35.6383 92.7495 36.4744C92.0407 37.3105 91.1319 38.492 90.732 39.0919C90.3322 39.6917 89.6778 40.8005 89.2598 41.5457C88.86 42.291 88.2965 43.4725 88.0239 44.1814C87.7513 44.8721 87.515 45.472 87.515 45.5083C87.4968 45.5265 86.279 45.2175 84.7705 44.8176C83.2801 44.4177 81.0263 43.8906 79.7722 43.6361C78.5181 43.3816 76.6824 43.0726 75.6827 42.9272C74.6831 42.7818 72.8474 42.5637 71.5932 42.4546C70.3391 42.3455 66.3405 42.1819 62.6873 42.0911C57.3618 41.982 55.8715 41.8911 55.1444 41.6548C54.6537 41.4912 53.9812 41.1822 53.6904 40.9823C53.3996 40.7642 52.9997 40.4006 52.8362 40.1643C52.6544 39.928 52.3818 39.2191 52.2182 38.5829C52.0001 37.7831 51.9455 37.0561 52.0182 36.0927C52.0728 35.3474 52.3091 34.1478 52.5272 33.457C52.7453 32.7481 53.1997 31.603 53.5632 30.9123C53.9085 30.2034 54.5265 29.1491 54.9263 28.5493C55.3262 27.9494 56.1259 26.877 56.6893 26.1863C57.271 25.4774 58.3251 24.2959 59.0703 23.5506C59.8155 22.7872 61.0696 21.6057 61.8694 20.915C62.6691 20.2061 63.9777 19.1337 64.7774 18.5338C65.5772 17.9158 67.3038 16.7161 68.5943 15.8618C69.8848 15.0075 72.193 13.6261 73.6834 12.7899C75.192 11.9538 77.5548 10.7541 78.9543 10.1179C80.3538 9.48173 82.4077 8.59106 83.4982 8.15481C84.5887 7.70039 86.8061 6.90062 88.4056 6.35531C90.005 5.81001 92.4587 5.0284 93.8582 4.62851C95.2577 4.21044 97.3843 3.64695 98.5838 3.3743C99.7834 3.08347 102.001 2.61086 103.491 2.30185C105 2.01102 107.653 1.55661 109.398 1.30213C111.143 1.04765 113.815 0.720474 115.305 0.556882C116.814 0.39329 119.013 0.193344 120.213 0.10246C121.412 0.0297523 125.956 -0.0247829 130.3 0.0115708ZM600.954 55.2693C603.463 55.3057 606.77 55.4693 608.315 55.6328C609.86 55.7783 612.405 56.1236 613.95 56.3599C615.495 56.6144 618.039 57.1233 619.584 57.4687C621.129 57.8322 623.637 58.523 625.128 59.0137C626.636 59.4863 628.836 60.2861 630.035 60.7769C631.235 61.2677 633.107 62.122 634.215 62.6491C635.324 63.1762 636.905 64.0124 637.76 64.5032C638.614 64.9939 640.195 65.9937 641.304 66.7207C642.413 67.4478 644.085 68.6838 645.03 69.4291C645.975 70.1925 647.574 71.6103 648.556 72.5919C649.537 73.5553 650.828 74.9003 651.409 75.5729C652.009 76.2636 652.482 76.8634 652.482 76.9361C652.482 77.027 647.556 81.5712 630.58 97.0034L629.89 95.6765C629.49 94.9495 628.781 93.8225 628.308 93.1681C627.836 92.5137 626.8 91.3686 626.018 90.6233C625.219 89.8599 623.892 88.7875 623.038 88.224C622.183 87.6605 620.711 86.8244 619.766 86.3881C618.821 85.9337 617.149 85.2975 616.04 84.934C614.931 84.5886 613.259 84.1342 612.314 83.9342C611.369 83.7161 609.733 83.4253 608.679 83.2799C607.625 83.1345 605.426 82.9164 603.772 82.7891C602.081 82.6801 599.627 82.6255 598.137 82.6982C596.683 82.7528 594.684 82.9345 593.684 83.0799C592.684 83.2253 591.212 83.5162 590.413 83.7343C589.613 83.9343 588.341 84.3523 587.595 84.6432C586.85 84.934 585.705 85.4793 585.051 85.8428C584.415 86.2245 583.233 87.1516 582.452 87.8968C581.307 88.9874 580.87 89.5509 580.307 90.7142C579.925 91.514 579.471 92.6592 579.326 93.259C579.18 93.8588 579.053 94.9676 579.053 95.7129C579.053 96.4581 579.18 97.5306 579.344 98.0759C579.507 98.6212 579.853 99.4391 580.143 99.8936C580.434 100.348 581.216 101.239 581.906 101.893C582.579 102.547 583.924 103.565 584.869 104.147C585.814 104.747 587.486 105.656 588.595 106.183C589.704 106.692 591.739 107.582 593.139 108.128C594.538 108.673 596.919 109.545 598.41 110.054C599.918 110.545 603.39 111.672 606.134 112.526C608.879 113.381 613.223 114.78 615.767 115.617C618.312 116.435 621.674 117.598 623.219 118.161C624.764 118.743 627.182 119.706 628.581 120.288C629.981 120.888 632.271 121.942 633.67 122.615C635.07 123.305 637.105 124.36 638.214 124.978C639.323 125.596 641.486 126.941 643.031 127.977C644.575 128.995 646.793 130.649 647.938 131.63C649.083 132.63 650.773 134.284 651.718 135.338C652.664 136.393 654.081 138.229 654.899 139.428C655.699 140.628 656.808 142.555 657.353 143.7C657.898 144.845 658.698 146.844 659.134 148.153C659.57 149.444 660.097 151.498 660.334 152.697C660.697 154.642 660.752 155.424 660.752 159.786C660.752 164.022 660.697 165.003 660.352 166.966C660.134 168.22 659.734 170.056 659.479 171.056C659.207 172.056 658.716 173.655 658.352 174.601C658.007 175.546 657.262 177.273 656.699 178.418C656.135 179.563 655.099 181.362 654.39 182.417C653.7 183.471 652.591 184.98 651.937 185.779C651.3 186.579 649.901 188.088 648.847 189.142C647.793 190.196 646.284 191.596 645.484 192.232C644.685 192.886 643.049 194.068 641.849 194.868C640.65 195.668 638.45 196.958 636.942 197.722C635.451 198.485 633.27 199.467 632.125 199.921C630.98 200.375 628.926 201.084 627.581 201.484C626.236 201.902 624.019 202.466 622.674 202.775C621.329 203.066 619.075 203.465 617.676 203.665C616.276 203.865 613.823 204.138 612.223 204.247C610.387 204.374 607.697 204.411 604.953 204.338C602.554 204.283 600.3 204.193 599.955 204.138C599.609 204.102 597.846 203.884 596.047 203.684C594.248 203.465 591.376 203.047 589.685 202.738C587.995 202.448 585.123 201.83 583.324 201.375C581.525 200.921 578.835 200.157 577.326 199.648C575.836 199.139 573.455 198.249 572.055 197.649C570.656 197.049 568.329 195.958 566.875 195.195C565.421 194.45 563.386 193.286 562.331 192.614C561.277 191.941 559.605 190.778 558.605 190.033C557.606 189.269 555.97 187.906 554.97 187.015C553.971 186.107 552.462 184.58 551.608 183.616C550.754 182.635 549.481 181.072 548.791 180.145C548.1 179.217 547.01 177.6 546.392 176.564C545.755 175.546 545.246 174.637 545.246 174.546C545.246 174.473 550.608 169.547 557.151 163.604C563.695 157.66 569.093 152.806 569.147 152.825C569.184 152.861 569.42 153.606 569.674 154.515C569.911 155.406 570.42 156.933 570.801 157.878C571.183 158.823 572.001 160.423 572.601 161.44C573.2 162.44 574.182 163.858 574.782 164.603C575.381 165.33 576.654 166.657 577.599 167.566C578.544 168.457 580.216 169.784 581.325 170.529C582.433 171.256 584.178 172.256 585.233 172.765C586.287 173.274 588.25 174.037 589.595 174.491C590.94 174.928 593.03 175.528 594.229 175.782C595.429 176.055 597.265 176.382 598.319 176.509C599.373 176.655 601.209 176.854 602.408 176.945C603.608 177.054 605.934 177.109 607.588 177.073C609.279 177.018 611.696 176.836 613.132 176.618C614.531 176.418 616.422 176.037 617.312 175.782C618.203 175.509 619.602 175.037 620.402 174.728C621.202 174.401 622.51 173.783 623.31 173.328C624.31 172.765 625.31 171.983 626.509 170.783C627.963 169.347 628.381 168.802 628.999 167.512C629.417 166.657 629.89 165.439 630.071 164.785C630.29 163.949 630.399 162.931 630.399 161.331C630.399 159.586 630.326 158.823 630.053 158.06C629.872 157.514 629.454 156.569 629.145 155.969C628.817 155.351 627.999 154.279 627.218 153.497C626.455 152.716 625.037 151.57 624.037 150.916C623.038 150.262 620.875 149.08 619.221 148.28C617.567 147.481 614.822 146.299 613.132 145.645C611.442 144.99 608.243 143.863 606.043 143.1C603.844 142.355 599.518 140.955 596.41 139.992C593.302 139.028 589.795 137.901 588.595 137.483C587.395 137.083 585.269 136.32 583.869 135.793C582.47 135.266 580.162 134.339 578.744 133.721C577.308 133.103 574.691 131.885 572.928 130.994C571.147 130.104 568.802 128.831 567.693 128.159C566.584 127.486 564.912 126.395 563.967 125.705C563.022 125.032 561.35 123.705 560.241 122.76C559.133 121.797 557.751 120.47 557.133 119.779C556.533 119.088 555.552 117.907 554.989 117.162C554.407 116.416 553.534 115.144 553.062 114.344C552.571 113.544 551.862 112.199 551.462 111.345C551.063 110.491 550.499 109.018 550.19 108.073C549.881 107.128 549.463 105.528 549.263 104.529C549.063 103.529 548.827 102.02 548.718 101.166C548.627 100.312 548.573 98.0577 548.609 96.1673C548.645 94.2587 548.809 91.8594 548.972 90.8051C549.118 89.7509 549.427 88.2058 549.627 87.3515C549.809 86.4972 550.19 85.1521 550.445 84.3523C550.717 83.5525 551.263 82.1166 551.662 81.1714C552.08 80.2262 552.735 78.8629 553.135 78.1722C553.516 77.4633 554.316 76.2091 554.879 75.3548C555.443 74.5004 556.406 73.1917 557.006 72.4465C557.624 71.7012 559.042 70.1743 560.169 69.0837C561.314 67.9749 562.895 66.5753 563.695 65.9573C564.494 65.3575 565.966 64.3396 566.966 63.7215C567.966 63.0854 569.729 62.0856 570.874 61.504C572.019 60.9223 573.982 60.0498 575.236 59.559C576.49 59.0683 578.453 58.3775 579.598 58.0322C580.743 57.6868 582.633 57.1779 583.779 56.9234C584.924 56.6689 586.85 56.3054 588.05 56.1054C589.249 55.9055 591.249 55.6692 592.503 55.5601C593.757 55.4511 595.138 55.3238 595.593 55.2875C596.047 55.2511 598.464 55.2511 600.954 55.2693ZM669.203 56.0873H699.92V86.6244H669.203V56.0873ZM473.726 56.3781C476.034 56.4144 479.015 56.5599 480.36 56.7235C481.705 56.8689 483.831 57.1779 485.086 57.3778C486.34 57.5959 488.666 58.0867 490.266 58.4866C491.865 58.8865 494.155 59.5409 495.355 59.9408C496.554 60.3407 498.645 61.1041 499.99 61.6494C501.334 62.1947 503.715 63.2853 505.26 64.0669C506.805 64.8303 509.059 66.0664 510.259 66.7934C511.458 67.5205 513.294 68.7202 514.348 69.4654C515.402 70.1925 517.111 71.4831 518.165 72.3192C519.219 73.1554 521.055 74.7186 522.236 75.8274C523.436 76.918 525.272 78.7538 526.326 79.899C527.38 81.0441 528.907 82.8436 529.743 83.8979C530.579 84.9522 531.869 86.6608 532.596 87.715C533.342 88.7693 534.505 90.5688 535.214 91.714C535.904 92.8591 536.886 94.5859 537.395 95.5311C537.904 96.4763 538.812 98.3849 539.412 99.7481C540.03 101.13 540.848 103.129 541.266 104.201C541.666 105.292 542.357 107.382 542.793 108.891C543.229 110.382 543.792 112.563 544.047 113.708C544.301 114.853 544.683 116.907 544.883 118.252C545.101 119.597 545.374 121.888 545.519 123.342C545.665 125.014 545.737 127.631 545.701 130.522C545.664 133.03 545.501 136.175 545.337 137.52C545.192 138.865 544.901 140.955 544.683 142.155C544.483 143.354 544.011 145.645 543.611 147.244C543.229 148.844 542.447 151.461 541.902 153.061C541.357 154.661 540.484 156.951 539.976 158.15C539.467 159.35 538.376 161.64 537.54 163.24C536.722 164.84 535.377 167.203 534.541 168.511C533.723 169.802 532.578 171.51 532.015 172.31C531.433 173.092 530.306 174.564 529.506 175.582C528.689 176.582 527.18 178.327 526.144 179.454C525.108 180.581 523.4 182.289 522.345 183.253C521.291 184.216 519.455 185.798 518.256 186.761C517.056 187.724 515.293 189.051 514.348 189.724C513.403 190.378 511.731 191.487 510.622 192.159C509.513 192.832 507.641 193.886 506.442 194.522C505.242 195.159 503.406 196.049 502.352 196.522C501.298 196.994 499.39 197.776 498.081 198.267C496.772 198.758 494.501 199.521 492.992 199.957C491.502 200.394 489.084 200.993 487.63 201.284C486.176 201.593 484.104 201.957 482.995 202.12C481.887 202.284 480.051 202.502 478.906 202.611C477.761 202.72 474.944 202.793 472.635 202.793C470.327 202.793 467.437 202.702 466.183 202.593C464.929 202.484 463.057 202.266 462.003 202.12C460.949 201.975 458.913 201.611 457.459 201.321C456.005 201.03 453.715 200.466 452.37 200.066C451.025 199.666 448.971 199.012 447.826 198.594C446.681 198.194 444.754 197.431 443.555 196.922C442.355 196.413 440.356 195.449 439.102 194.813C437.848 194.159 436.012 193.141 435.012 192.541C434.012 191.941 432.249 190.814 431.104 190.033C429.959 189.251 428.233 187.979 427.288 187.233C426.342 186.47 424.779 185.161 423.834 184.343C422.889 183.507 421.162 181.853 420.017 180.672C418.872 179.472 417.309 177.763 416.546 176.873C415.801 175.964 414.674 174.564 412.929 172.238L413.292 170.365C413.492 169.347 413.765 167.566 413.91 166.421C414.056 165.276 414.238 163.585 414.292 162.695C414.365 161.786 414.419 159.55 414.419 157.696C414.401 155.242 414.31 153.624 414.019 151.698C413.801 150.244 413.474 148.317 413.274 147.426C413.074 146.517 412.62 144.681 412.256 143.336C411.893 141.991 411.239 139.974 410.802 138.883C410.366 137.774 409.548 136.029 409.003 134.975C408.44 133.921 407.404 132.158 406.677 131.067C405.95 129.958 404.695 128.249 403.896 127.25C403.078 126.25 401.842 124.85 401.133 124.16C400.424 123.451 399.843 122.833 399.843 122.742C399.843 122.669 400.351 121.815 400.969 120.833C401.587 119.87 402.605 117.998 403.223 116.707C403.859 115.398 404.623 113.599 404.932 112.708C405.241 111.799 405.731 110.127 406.022 108.982C406.313 107.837 406.677 106.146 406.822 105.256C406.967 104.347 407.185 102.766 407.294 101.711C407.385 100.657 407.476 98.8938 407.458 95.8038L408.294 94.2951C408.749 93.4771 409.585 92.0411 410.148 91.1141C410.712 90.2053 411.838 88.5148 412.638 87.3697C413.456 86.2245 414.801 84.425 415.637 83.3708C416.491 82.3165 418.781 79.8445 420.726 77.8995C422.689 75.9364 425.27 73.5553 426.47 72.5919C427.669 71.6285 429.541 70.2107 430.65 69.4473C431.759 68.6838 433.758 67.3933 435.103 66.5753C436.448 65.7755 438.956 64.4486 440.647 63.6125C442.337 62.7945 444.681 61.7585 445.827 61.304C446.972 60.8496 448.935 60.1589 450.189 59.759C451.443 59.3591 453.478 58.7774 454.733 58.4684C455.987 58.1594 458.113 57.705 459.458 57.4687C460.803 57.2142 463.148 56.887 464.638 56.7416C466.147 56.578 467.855 56.4326 468.455 56.3781C469.055 56.3417 471.418 56.3417 473.726 56.3781ZM465.365 87.2788C464.366 87.4424 462.566 87.8423 461.367 88.1695C460.167 88.4967 458.368 89.0783 457.368 89.4419C456.368 89.8236 454.533 90.6415 453.279 91.2595C452.024 91.8957 450.152 92.9682 449.098 93.6589C448.044 94.3496 446.372 95.5856 445.372 96.3854C444.372 97.1852 442.737 98.6939 441.737 99.73C440.737 100.766 439.374 102.311 438.72 103.165C438.047 104.02 437.066 105.401 436.503 106.255C435.957 107.11 435.048 108.655 434.503 109.709C433.94 110.763 433.158 112.436 432.758 113.435C432.359 114.435 431.759 116.198 431.413 117.343C431.05 118.489 430.595 120.324 430.396 121.433C430.177 122.524 429.941 124.087 429.85 124.887C429.759 125.687 429.687 127.813 429.687 129.613C429.687 131.412 429.759 133.575 429.868 134.43C429.959 135.284 430.196 136.793 430.396 137.792C430.595 138.792 431.014 140.464 431.304 141.519C431.613 142.573 432.195 144.282 432.613 145.336C433.013 146.39 433.794 148.099 434.34 149.153C434.867 150.207 435.994 152.079 436.83 153.334C437.648 154.588 439.102 156.496 440.047 157.605C440.992 158.696 442.482 160.259 443.355 161.059C444.227 161.859 445.736 163.113 446.699 163.84C447.662 164.567 449.443 165.748 450.643 166.475C451.843 167.184 453.715 168.166 454.823 168.657C455.932 169.147 457.913 169.911 459.24 170.347C460.549 170.783 462.639 171.347 463.875 171.583C465.093 171.838 467.037 172.128 468.182 172.256C469.527 172.401 471.581 172.437 473.908 172.365C476.289 172.292 478.233 172.147 479.542 171.91C480.651 171.71 482.196 171.383 482.995 171.165C483.795 170.965 485.067 170.602 485.813 170.347C486.558 170.111 487.83 169.656 488.63 169.329C489.43 169.02 490.974 168.293 492.083 167.73C493.192 167.166 494.828 166.221 495.718 165.621C496.609 165.039 498.008 164.058 498.808 163.44C499.608 162.84 501.116 161.513 502.152 160.513C503.188 159.514 504.679 157.914 505.478 156.969C506.278 156.024 507.441 154.461 508.078 153.515C508.714 152.57 509.604 151.098 510.077 150.244C510.531 149.389 511.24 147.99 511.64 147.099C512.022 146.226 512.658 144.59 513.058 143.464C513.439 142.355 513.966 140.519 514.221 139.428C514.475 138.319 514.839 136.484 515.002 135.338C515.221 133.939 515.311 132.067 515.33 129.704C515.33 127.759 515.221 125.378 515.093 124.432C514.966 123.487 514.693 121.924 514.512 120.979C514.312 120.034 513.93 118.561 513.694 117.707C513.439 116.853 512.985 115.471 512.676 114.617C512.385 113.763 511.604 111.999 510.986 110.709C510.35 109.4 509.186 107.364 508.405 106.165C507.605 104.965 506.315 103.202 505.515 102.257C504.733 101.311 503.516 99.9481 502.807 99.2574C502.116 98.5485 500.753 97.3306 499.808 96.549C498.863 95.7492 497.39 94.6404 496.536 94.077C495.682 93.5135 494.301 92.641 493.446 92.1502C492.592 91.6776 491.047 90.896 489.993 90.4234C488.939 89.969 487.067 89.2601 485.813 88.842C484.559 88.4421 482.795 87.9332 481.905 87.7332C481.014 87.5333 479.415 87.2424 478.361 87.097C477.306 86.9334 475.144 86.7698 473.544 86.7335C471.945 86.679 469.855 86.7153 468.909 86.8062C467.964 86.8971 466.365 87.1152 465.365 87.2788ZM286.064 56.4508H316.29C334.647 56.4508 347.533 56.5235 349.133 56.6326C350.587 56.7416 353.113 56.9961 354.767 57.196C356.421 57.396 358.711 57.7595 359.856 57.9958C361.002 58.2321 362.928 58.6684 364.128 58.9774C365.327 59.2682 367.199 59.8317 368.308 60.1771C369.417 60.5406 371.162 61.195 372.216 61.6312C373.27 62.0493 374.906 62.7945 375.851 63.2671C376.796 63.7397 378.323 64.5759 379.213 65.1212C380.104 65.6665 381.776 66.8298 382.921 67.6841C384.066 68.5566 385.757 69.9926 386.665 70.9014C387.556 71.7921 388.81 73.1554 389.41 73.9006C390.028 74.6459 391.064 76.0818 391.718 77.0816C392.372 78.0813 393.354 79.8445 393.899 80.9896C394.444 82.1347 395.19 83.9706 395.535 85.0794C395.898 86.17 396.353 87.9513 396.553 89.0238C396.771 90.1144 397.025 91.9866 397.134 93.2045C397.262 94.5132 397.298 96.6581 397.243 98.3485C397.171 99.9481 396.971 102.202 396.771 103.347C396.589 104.492 396.226 106.219 395.971 107.164C395.699 108.11 395.208 109.618 394.844 110.527C394.481 111.418 393.845 112.781 393.445 113.526C393.045 114.271 392.227 115.58 391.645 116.435C391.064 117.289 389.991 118.67 389.264 119.525C388.519 120.379 387.138 121.76 384.412 124.16L385.956 125.069C386.793 125.559 388.247 126.505 389.155 127.159C390.082 127.813 391.864 129.358 393.136 130.612C394.39 131.867 395.917 133.539 396.516 134.339C397.116 135.139 397.97 136.356 398.425 137.065C398.879 137.756 399.679 139.192 400.206 140.246C400.733 141.3 401.351 142.664 401.587 143.282C401.824 143.918 402.314 145.554 402.66 146.917C403.005 148.299 403.459 150.371 403.678 151.516C403.987 153.188 404.077 154.424 404.132 157.696C404.168 160.314 404.096 162.531 403.932 163.876C403.805 165.021 403.55 166.748 403.387 167.693C403.223 168.639 402.896 170.147 402.66 171.056C402.423 171.947 401.969 173.419 401.66 174.328C401.351 175.219 400.551 177.073 399.915 178.418C399.261 179.763 398.207 181.653 397.571 182.598C396.934 183.544 395.771 185.107 394.971 186.052C394.19 186.997 393.009 188.27 392.372 188.851C391.736 189.451 390.591 190.433 389.846 191.032C389.101 191.614 387.701 192.614 386.756 193.25C385.811 193.868 384.084 194.868 382.939 195.486C381.794 196.086 379.74 197.013 378.395 197.558C377.05 198.103 374.96 198.849 373.761 199.194C372.561 199.557 370.562 200.103 369.308 200.394C368.054 200.703 365.854 201.139 364.4 201.393C362.946 201.63 360.62 201.975 359.22 202.12C357.821 202.284 355.531 202.502 354.131 202.611C352.386 202.757 341.299 202.847 286.064 202.956V56.4508ZM317.144 112.799C340.209 112.799 346.77 112.726 348.188 112.599C349.46 112.49 351.387 112.254 352.495 112.072C353.604 111.872 355.24 111.509 356.13 111.254C357.021 111 358.621 110.363 359.675 109.836C361.165 109.109 361.856 108.637 362.765 107.71C363.473 107.001 364.219 106.019 364.618 105.256C364.982 104.547 365.473 103.329 365.691 102.529C366 101.366 366.091 100.548 366.091 98.4394C366.109 96.4945 366.018 95.4766 365.782 94.5314C365.618 93.8225 365.236 92.7682 364.946 92.1684C364.673 91.5686 364 90.6052 363.473 90.0053C362.928 89.4237 361.965 88.5875 361.311 88.1513C360.656 87.7332 359.511 87.1152 358.766 86.8062C358.021 86.4972 356.621 86.0428 355.676 85.7883C354.731 85.552 352.841 85.1885 351.496 84.9885C350.151 84.7886 347.643 84.5523 345.952 84.4432C344.262 84.3523 337.083 84.2614 329.994 84.2614H317.144V112.799ZM317.144 174.964C349.315 174.855 351.659 174.8 353.495 174.528C354.64 174.364 356.367 174.055 357.312 173.837C358.257 173.637 359.856 173.183 360.856 172.837C361.856 172.492 363.292 171.892 364.037 171.492C364.782 171.111 365.963 170.347 366.672 169.82C367.363 169.311 368.363 168.348 368.908 167.693C369.435 167.039 370.198 165.857 370.58 165.058C370.98 164.258 371.471 162.858 371.707 161.968C372.034 160.641 372.107 159.823 372.107 157.514C372.107 155.478 372.016 154.261 371.78 153.152C371.598 152.298 371.198 150.952 370.889 150.153C370.58 149.353 369.962 148.208 369.508 147.608C369.035 147.026 368.181 146.136 367.581 145.663C366.981 145.172 365.8 144.427 364.946 143.991C364.091 143.554 362.456 142.9 361.311 142.537C360.165 142.191 358.366 141.719 357.312 141.519C356.258 141.319 354.386 141.028 353.132 140.846C351.205 140.592 348.333 140.537 334.011 140.483L317.162 140.41L317.144 174.964ZM134.48 57.8141C136.843 57.8686 139.86 58.014 141.205 58.1594C142.569 58.3048 144.895 58.632 146.385 58.8865C147.894 59.141 150.475 59.6863 152.111 60.1043C153.765 60.5042 156.182 61.195 157.472 61.613C158.781 62.0493 160.908 62.8309 162.198 63.3398C163.507 63.867 165.706 64.8485 167.105 65.5211C168.505 66.1936 170.759 67.3933 172.104 68.1567C173.467 68.9383 175.303 70.0835 176.193 70.6833C177.102 71.2831 178.738 72.4465 179.828 73.2463C180.937 74.0642 182.736 75.5002 183.827 76.4454C184.936 77.3906 187.135 79.4264 188.716 80.9714C190.297 82.5346 192.424 84.7704 193.442 85.9701C194.46 87.1516 195.841 88.8602 196.55 89.7872C197.24 90.6961 198.549 92.5865 199.476 93.9861C200.403 95.3857 201.621 97.3488 202.184 98.3485C202.766 99.3482 203.656 101.021 204.183 102.075C204.711 103.111 205.656 105.165 206.274 106.619C206.892 108.055 207.837 110.563 208.364 112.163C208.891 113.763 209.582 115.998 209.891 117.162C210.181 118.307 210.636 120.233 210.89 121.433C211.145 122.633 211.508 124.796 211.708 126.25C211.908 127.686 212.181 130.14 212.29 131.703C212.417 133.43 212.471 136.284 212.399 139.065C212.344 141.555 212.162 144.754 211.999 146.154C211.835 147.553 211.508 149.789 211.254 151.152C211.017 152.497 210.527 154.751 210.181 156.151C209.836 157.551 209.218 159.75 208.818 161.059C208.4 162.349 207.582 164.603 207.001 166.057C206.419 167.493 205.51 169.62 204.965 170.783C204.42 171.929 203.384 173.928 202.657 175.237C201.93 176.527 200.712 178.527 199.967 179.69C199.222 180.835 197.804 182.835 196.822 184.143C195.859 185.434 194.169 187.524 193.06 188.779C191.969 190.015 189.934 192.141 188.553 193.486C187.153 194.831 184.808 196.885 183.336 198.067C181.864 199.248 179.247 201.157 177.52 202.284C175.793 203.429 173.721 204.72 172.922 205.174C172.122 205.628 170.486 206.483 169.286 207.083C168.087 207.682 166.015 208.646 164.652 209.209C163.307 209.791 160.889 210.682 159.29 211.227C157.691 211.754 155.073 212.518 153.474 212.917C151.874 213.317 149.348 213.844 147.839 214.099C146.349 214.372 143.932 214.699 142.478 214.844C141.042 214.99 138.297 215.171 136.389 215.244C134.335 215.299 131.718 215.28 129.937 215.153C128.301 215.044 125.92 214.826 124.666 214.662C123.43 214.517 121.012 214.099 119.304 213.754C117.614 213.426 115.033 212.808 113.579 212.39C112.143 211.99 109.798 211.227 108.399 210.718C106.999 210.209 104.545 209.209 102.946 208.5C101.347 207.792 98.8928 206.574 97.4933 205.792C96.0938 205.01 93.5674 203.447 91.8589 202.32C90.1686 201.175 87.7876 199.467 86.588 198.503C85.3884 197.54 83.4255 195.867 82.2259 194.777C81.0263 193.686 78.8089 191.469 77.3004 189.833C75.7736 188.197 73.9924 186.216 73.3199 185.416C72.6656 184.616 71.5569 183.216 70.8844 182.326C70.2119 181.417 68.9941 179.708 68.1944 178.509C67.3947 177.309 66.3405 175.673 65.868 174.873C65.3954 174.073 64.3958 172.274 63.6687 170.874C62.9417 169.475 61.8694 167.184 61.2696 165.785C60.688 164.385 59.8155 162.168 59.3793 160.877C58.9249 159.568 58.2161 157.278 57.8162 155.787C57.3982 154.279 56.8711 152.025 56.6166 150.789C56.3804 149.535 55.9987 147.153 55.7806 145.518C55.5261 143.536 55.3625 141.01 55.2898 138.156C55.2353 135.484 55.2717 132.685 55.3989 130.976C55.5261 129.413 55.7442 127.213 55.8896 126.068C56.035 124.905 56.3622 122.869 56.6166 121.524C56.8711 120.161 57.3982 117.798 57.798 116.253C58.1979 114.69 58.9249 112.236 59.4157 110.8C59.9064 109.346 60.7607 107.055 61.3423 105.71C61.9057 104.347 62.9054 102.184 63.5597 100.893C64.214 99.5846 65.1046 97.8759 65.559 97.0761C66.0134 96.2764 67.1584 94.4223 68.1035 92.9863C69.0487 91.5322 70.321 89.6963 70.9208 88.8965C71.5387 88.0968 72.7747 86.5336 73.6834 85.4429C74.6104 84.3341 76.1735 82.571 77.1731 81.5349C78.1728 80.4806 79.954 78.7538 81.1354 77.7178C82.3168 76.6635 84.1343 75.1185 85.2067 74.2823C86.2609 73.4644 88.5328 71.8466 90.2231 70.7197C91.9316 69.5927 94.0581 68.2658 94.9487 67.7568C95.8575 67.2479 97.8568 66.2118 99.4017 65.4665C100.965 64.7213 103.2 63.7397 104.4 63.2671C105.6 62.7945 107.453 62.122 108.489 61.7766C109.544 61.4313 111.543 60.8314 112.942 60.4315C114.342 60.0316 116.723 59.4682 118.213 59.1773C119.722 58.8865 122.048 58.523 123.393 58.3594C124.757 58.1958 126.829 57.9958 128.028 57.905C129.228 57.8141 132.136 57.7777 134.48 57.8141ZM9.01505 92.3138C9.03323 92.3683 8.94235 93.0409 8.79694 93.8225C8.65154 94.6041 8.34255 96.4763 8.08809 97.985C7.83363 99.4755 7.47013 102.057 7.2702 103.711C7.07026 105.347 6.76128 108.219 6.57953 110.073C6.34325 112.654 6.27055 115.308 6.27055 121.524C6.27055 127.759 6.34325 130.376 6.57953 132.975C6.76128 134.811 7.10662 137.92 7.36108 139.883C7.61553 141.828 8.10626 144.936 8.4516 146.79C8.81511 148.626 9.45126 151.625 9.88747 153.424C10.3237 155.224 11.0144 157.841 11.4142 159.241C11.8141 160.641 12.6501 163.258 13.2681 165.058C13.8679 166.857 14.8312 169.475 15.3765 170.874C15.9399 172.274 16.8669 174.473 17.4303 175.782C18.0119 177.073 19.3024 179.781 20.302 181.78C21.3017 183.78 22.8829 186.761 23.8281 188.415C24.7732 190.051 26.3181 192.596 27.2451 194.05C28.172 195.486 29.5897 197.612 30.3894 198.776C31.1891 199.921 32.7522 202.048 33.8428 203.502C34.9515 204.938 36.2601 206.574 36.769 207.137C37.2779 207.682 37.7687 208.155 37.8414 208.173C37.9141 208.21 37.3143 207.101 36.4964 205.719C35.6785 204.356 34.2972 201.83 33.4066 200.139C32.5341 198.43 31.3345 195.904 30.7348 194.504C30.135 193.105 29.2444 190.76 28.7536 189.324C28.2447 187.87 27.5359 185.616 27.1723 184.325C26.827 183.016 26.2818 180.817 25.991 179.417C25.7001 178.018 25.3003 175.673 25.1004 174.237C24.9004 172.783 24.6278 170.293 24.5006 168.693C24.3733 166.821 24.3188 163.967 24.3915 160.695C24.446 157.896 24.5733 155.388 24.6823 155.151C24.7732 154.897 24.8641 154.751 24.8822 154.824C24.8822 154.897 25.1004 155.969 25.3548 157.187C25.6093 158.423 26.2636 161.168 26.8088 163.331C27.3541 165.476 28.2447 168.711 28.79 170.511C29.3171 172.31 30.244 175.091 30.8074 176.691C31.3709 178.29 32.2251 180.581 32.6977 181.78C33.1884 182.98 34.0063 184.943 34.5334 186.143C35.0423 187.343 36.1874 189.742 37.0598 191.505C37.9504 193.25 39.2591 195.704 39.9679 196.958C40.6949 198.194 41.949 200.212 42.7487 201.411C43.5485 202.611 44.6935 204.247 45.3115 205.047C45.9113 205.847 47.0382 207.228 47.8015 208.137C48.5831 209.028 50.0916 210.627 51.1822 211.681C52.2545 212.754 53.7268 214.063 54.4174 214.626C55.1263 215.171 56.5076 216.171 57.5072 216.825C58.5069 217.48 60.1972 218.425 61.2332 218.916C62.2874 219.425 63.8868 220.079 64.7774 220.37C65.6862 220.679 67.0676 221.061 67.8673 221.224C68.667 221.37 70.1937 221.588 71.2297 221.697C72.2839 221.788 73.8834 221.824 74.774 221.77C75.6827 221.697 76.955 221.57 77.5912 221.479C78.2455 221.388 78.7907 221.333 78.8271 221.352C78.8453 221.388 79.1361 222.46 79.4996 223.769C79.8449 225.06 80.4992 227.277 80.9718 228.677C81.4444 230.076 82.2986 232.348 82.8802 233.712C83.48 235.093 84.3888 237.093 84.9341 238.165C85.4793 239.238 86.8788 241.801 88.0421 243.854C89.2235 245.89 90.4412 248.108 90.7684 248.762C91.0955 249.398 91.4954 250.38 91.659 250.943C91.8226 251.489 91.9498 252.216 91.9498 252.579C91.9498 252.925 91.8044 253.543 91.6226 253.943C91.4409 254.343 90.932 254.979 90.4958 255.36C90.0414 255.742 89.2053 256.306 88.6419 256.596C88.0602 256.887 86.9515 257.305 86.1882 257.523C84.9704 257.869 84.3524 257.942 81.7715 257.923C79.6813 257.923 78.2818 257.814 77.1368 257.596C76.2462 257.433 74.574 257.033 73.4108 256.742C72.2657 256.433 70.2301 255.779 68.8669 255.27C67.5219 254.761 65.1955 253.761 63.6869 253.052C62.1965 252.325 60.07 251.216 58.9613 250.598C57.8708 249.962 55.8169 248.69 54.4174 247.763C53.0179 246.854 50.8187 245.29 49.51 244.309C48.2196 243.327 46.1294 241.655 44.8753 240.601C43.6394 239.528 41.2402 237.311 39.5499 235.675C37.8595 234.021 35.5513 231.64 34.4426 230.404C33.3157 229.149 31.589 227.15 30.6075 225.95C29.6261 224.751 27.8449 222.46 26.6453 220.861C25.4457 219.261 23.5554 216.553 22.4286 214.862C21.3017 213.154 19.9022 210.954 19.3024 209.955C18.7026 208.955 17.5939 207.028 16.8487 205.683C16.1035 204.32 14.9403 202.12 14.2496 200.775C13.5771 199.412 12.5229 197.176 11.8868 195.777C11.2688 194.377 10.251 191.996 9.65119 190.505C9.0514 188.997 8.1608 186.579 7.65189 185.143C7.14297 183.689 6.36143 181.271 5.88886 179.781C5.43448 178.272 4.65293 175.491 4.16219 173.601C3.68963 171.692 2.96261 168.457 2.56275 166.421C2.14472 164.367 1.61762 161.259 1.36316 159.514C1.12688 157.751 0.78155 154.97 0.636147 153.334C0.472567 151.679 0.272635 148.898 0.163582 147.153C0.0727044 145.39 0 142.373 0 140.428C0 138.465 0.0727044 135.448 0.163582 133.703C0.272635 131.939 0.472567 129.158 0.636147 127.522C0.78155 125.868 1.12688 123.087 1.36316 121.342C1.61762 119.579 2.10836 116.689 2.45369 114.889C2.8172 113.09 3.47152 110.145 3.90773 108.346C4.36212 106.546 5.08914 103.838 5.52535 102.347C5.97974 100.839 6.65224 98.6757 7.0521 97.5306C7.43379 96.3672 8.03357 94.7131 8.36073 93.8406C8.70606 92.95 8.99688 92.2775 9.01505 92.3138ZM669.203 98.0759H699.92L699.829 202.866L669.203 202.956V98.0759ZM257.528 114.471C258.237 114.508 258.91 114.708 259.782 115.162C260.491 115.508 261.6 116.307 262.309 116.98C262.999 117.616 263.981 118.761 264.49 119.525C264.98 120.27 265.707 121.579 266.125 122.433C266.525 123.269 267.198 125.032 267.634 126.341C268.052 127.631 268.616 129.722 268.87 130.976C269.124 132.212 269.47 134.175 269.633 135.338C269.833 136.702 269.961 139.301 270.015 142.791C270.088 146.899 270.051 148.917 269.815 151.425C269.652 153.225 269.361 155.787 269.161 157.151C268.961 158.496 268.543 160.822 268.252 162.331C267.943 163.822 267.343 166.439 266.907 168.148C266.453 169.838 265.635 172.656 265.071 174.419C264.508 176.164 263.545 178.908 262.945 180.508C262.345 182.108 261.291 184.671 260.618 186.234C259.946 187.779 258.946 189.978 258.401 191.142C257.856 192.287 256.729 194.486 255.893 196.049C255.075 197.594 253.639 200.121 252.712 201.684C251.785 203.229 250.113 205.883 248.968 207.592C247.823 209.282 246.005 211.863 244.915 213.317C243.824 214.753 242.261 216.771 241.443 217.771C240.625 218.77 239.026 220.643 237.881 221.951C236.754 223.242 234.191 225.95 232.192 227.95C230.174 229.949 227.484 232.512 226.176 233.657C224.885 234.784 222.577 236.711 221.068 237.929C219.56 239.129 216.943 241.11 215.252 242.309C213.562 243.509 211.163 245.163 209.909 245.963C208.673 246.763 206.419 248.144 204.91 249.035C203.42 249.907 200.548 251.471 198.549 252.507C196.55 253.525 193.733 254.888 192.278 255.542C190.843 256.197 188.425 257.214 186.917 257.814C185.426 258.414 182.609 259.45 180.646 260.105C178.701 260.777 176.011 261.631 174.648 262.031C173.303 262.413 170.886 263.049 169.286 263.449C167.687 263.849 165.561 264.34 164.561 264.558C163.561 264.758 161.562 265.14 160.108 265.394C158.672 265.63 157.309 265.849 157.109 265.83C156.909 265.83 158.436 265.23 160.471 264.503C162.525 263.758 165.233 262.758 166.469 262.249C167.723 261.741 169.886 260.832 171.286 260.214C172.685 259.596 175.593 258.214 177.738 257.124C179.901 256.051 183.009 254.397 184.645 253.452C186.299 252.507 188.843 250.962 190.279 250.053C191.733 249.126 194.205 247.453 195.768 246.345C197.331 245.218 199.621 243.527 200.857 242.582C202.075 241.619 204.274 239.837 205.728 238.583C207.182 237.329 210 234.711 211.981 232.767C213.962 230.822 216.615 228.077 217.87 226.677C219.124 225.278 220.887 223.224 221.795 222.133C222.686 221.024 224.286 218.988 225.34 217.589C226.376 216.189 228.193 213.608 229.356 211.863C230.52 210.1 231.974 207.864 232.574 206.865C233.173 205.865 234.228 204.065 234.918 202.866C235.591 201.666 237.027 198.921 238.099 196.776C239.171 194.613 240.68 191.396 241.461 189.596C242.225 187.797 243.024 185.87 243.206 185.325C243.388 184.761 243.552 184.198 243.552 184.053C243.533 183.889 242.734 185.125 241.77 186.779C240.789 188.415 239.408 190.633 238.717 191.687C238.026 192.723 236.627 194.686 235.609 196.049C234.591 197.394 232.992 199.394 232.046 200.503C231.101 201.593 228.975 203.811 227.339 205.41C225.703 207.01 223.286 209.173 221.977 210.227C220.669 211.281 218.597 212.827 217.342 213.699C216.107 214.553 214.035 215.898 212.726 216.698C211.435 217.48 208.855 218.879 207.001 219.806C205.165 220.733 203.62 221.461 203.602 221.406C203.565 221.352 203.893 221.006 204.329 220.624C204.747 220.261 205.91 219.225 206.91 218.316C207.909 217.425 210.581 214.844 212.835 212.59C215.089 210.336 217.979 207.283 219.287 205.792C220.578 204.302 222.541 201.975 223.631 200.594C224.74 199.212 226.503 196.885 227.575 195.395C228.648 193.904 230.156 191.65 230.956 190.414C231.737 189.16 233.101 186.87 233.955 185.325C234.827 183.762 236.1 181.235 236.79 179.69C237.481 178.127 238.444 175.764 238.899 174.419C239.371 173.056 239.971 171.02 240.262 169.875C240.534 168.711 240.916 166.875 241.098 165.785C241.352 164.312 241.443 162.822 241.443 160.241C241.425 157.714 241.352 156.224 241.134 155.06C240.971 154.152 240.607 152.679 240.353 151.789C240.098 150.88 239.535 149.371 239.117 148.426C238.699 147.462 237.917 145.99 237.39 145.154C236.845 144.3 236.063 143.155 234.864 141.609L237.245 139.247C238.553 137.938 240.28 136.138 241.061 135.248C241.843 134.339 243.206 132.666 244.06 131.521C244.933 130.358 246.26 128.486 247.023 127.341C247.768 126.177 249.222 123.814 250.258 122.069C251.294 120.306 252.548 118.27 253.057 117.543C253.566 116.798 254.311 115.907 254.711 115.562C255.111 115.198 255.693 114.799 255.984 114.671C256.293 114.526 256.983 114.453 257.528 114.471Z" fill="white"/>
</svg>
