<svg width="661" height="672" viewBox="0 0 661 672" fill="none" xmlns="http://www.w3.org/2000/svg">
<path fill-rule="evenodd" clip-rule="evenodd" d="M357.002 0.943997C356.305 0.169085 350.57 -0.0633863 330.887 0.0141049C317.017 0.0141049 305.315 0.324072 304.85 0.634037C304.385 0.944002 301.131 9.00308 297.566 18.612C294.079 28.2209 288.655 42.4793 285.555 50.3834C282.455 58.2875 279.743 65.5717 279.588 66.6565C279.356 68.4388 278.581 68.7488 268.12 71.3835C261.92 72.9333 253.086 75.568 248.359 77.1179C243.632 78.6677 235.496 81.6899 230.149 83.7821C224.802 85.7969 216.82 89.439 212.326 91.6862C207.831 94.0109 203.104 96.5682 201.865 97.2656L199.54 98.6604C183.344 89.594 171.101 82.6972 161.957 77.4278C152.813 72.1584 144.211 67.044 142.971 66.0366C141.654 65.0292 139.794 64.0219 138.709 63.7894C137.314 63.4794 135.92 64.0219 133.905 65.5717C132.776 66.4321 128.847 69.6062 124.011 73.5143C121.878 75.2378 119.568 77.1041 117.244 78.9776C109.65 85.0995 101.823 91.2213 99.8087 92.5386C97.7939 93.856 96.0116 95.2508 95.7791 95.7158C95.6242 96.1807 96.709 99.9778 98.1814 104.24C99.6537 108.502 104.846 124.542 109.805 139.886C115.307 157.089 118.484 168.093 118.097 168.712C117.709 169.177 114.609 173.517 111.122 178.399C107.713 183.203 102.753 190.488 100.196 194.517C97.6389 198.547 93.6094 205.676 91.2846 210.403C88.8824 215.13 85.3953 222.569 83.458 227.063C81.5982 231.558 79.5835 236.44 79.1185 237.912C78.8522 238.759 78.6691 239.342 78.314 239.788C77.5324 240.768 75.9177 241.084 70.7495 242.097L69.8509 242.263C65.506 243.068 58.2833 244.407 53.0815 245.274C47.5021 246.281 38.1257 247.986 32.1589 249.148C26.192 250.233 19.0628 251.706 16.2732 252.326C13.4835 253.023 11.0038 253.798 10.6938 254.108C10.4613 254.34 8.36905 263.484 6.1993 274.333C3.95205 285.182 1.62732 295.643 1.08488 297.58C0.464948 299.518 0 301.92 0 303.005C0 304.477 0.929897 305.562 3.71958 307.344C5.73435 308.662 10.8488 311.994 15.1108 314.706C17.0445 315.901 20.5735 318.118 24.8291 320.79C29.953 324.008 36.1304 327.888 41.8453 331.444C52.3066 337.953 61.1406 343.378 61.4505 343.533C61.838 343.61 62.4579 347.872 62.8454 352.987C63.2328 358.101 64.0852 366.315 64.7052 371.197C65.4026 376.079 66.6424 383.596 67.4948 387.858C68.2698 392.12 70.362 400.489 72.0668 406.456C73.6941 412.422 75.9414 419.629 77.0263 422.574C78.1111 425.441 79.041 428.386 79.041 429.16C79.1185 429.858 78.4986 431.02 77.8012 431.64C77.1037 432.26 73.8491 436.832 70.672 441.714C67.4173 446.596 60.0557 457.445 54.3988 465.736C48.6645 474.028 42.8526 482.319 41.3803 484.179L38.7456 487.434C45.4873 497.973 51.9966 507.582 57.576 515.718C63.0778 523.855 68.1923 530.829 68.8897 531.371C69.7421 532.069 70.672 532.069 72.0668 531.526C73.1517 531.061 79.7385 529.357 86.7902 527.729C91.5249 526.637 99.1593 524.81 106.527 523.048C110.132 522.186 113.673 521.338 116.779 520.6L133.982 516.493C145.141 527.729 152.193 534.238 156.92 538.191C161.647 542.143 169.086 548.11 173.58 551.519C178.075 554.929 182.414 558.028 183.267 558.493C184.119 559.036 185.204 559.191 185.591 558.881C186.056 558.571 187.296 556.943 188.381 555.239C188.721 554.705 189.251 553.874 189.897 552.861C191.314 550.641 193.289 547.545 195.045 544.777C197.603 540.748 203.182 531.836 207.444 525.017L208.871 522.735C213.099 515.972 218.865 506.747 222.4 500.995C226.352 494.641 235.573 479.995 242.935 468.448L243.11 468.171C250.35 456.695 258.455 443.848 261.145 439.389C263.858 434.895 271.839 422.186 278.891 411.105C285.865 400.024 297.334 381.736 304.385 370.422C308.93 363.049 313.738 355.315 317.158 349.813C318.987 346.872 320.418 344.569 321.201 343.3C323.448 339.658 326.16 335.086 327.168 332.994C328.098 330.979 329.493 329.352 330.113 329.274C330.81 329.274 334.065 333.769 337.784 339.581C338.817 341.22 339.948 343.01 341.084 344.807C343.868 349.211 346.682 353.665 348.168 356.086C349.272 357.821 352.021 362.205 355.548 367.828C358.952 373.255 363.081 379.838 367.153 386.308C371.264 392.839 376.5 401.2 381.65 409.425C386.886 417.788 392.035 426.011 395.825 432.028C403.264 443.961 415.508 463.489 423.025 475.423C430.619 487.356 439.608 501.692 443.017 507.194C444.433 509.478 446.302 512.51 448.288 515.73C451.085 520.266 454.112 525.175 456.423 528.892C460.375 535.323 466.265 544.622 469.519 549.737C472.774 554.774 475.641 559.036 475.951 559.191C476.338 559.346 478.043 558.571 479.826 557.486C481.685 556.324 486.8 552.604 491.294 549.194C495.789 545.785 502.066 540.67 505.243 537.881C508.42 535.091 514.774 529.202 519.346 524.862L527.715 516.881C534.855 518.403 541.426 519.89 547.307 521.221C550.107 521.854 552.75 522.453 555.224 523.002C559.33 523.956 564.278 525.132 568.811 526.209C572.749 527.144 576.374 528.005 578.859 528.582C584.206 529.899 589.243 531.294 590.096 531.759C591.413 532.456 591.955 532.224 593.815 529.977C594.977 528.504 598.62 523.312 601.874 518.43C602.286 517.827 602.732 517.173 603.204 516.481C606.555 511.566 611.236 504.703 614.428 500.22C617.992 495.105 621.324 489.991 621.789 488.906C622.564 486.969 622.254 486.349 618.302 481.545C615.9 478.6 607.763 466.976 600.169 455.662C592.575 444.349 585.291 433.81 583.974 432.105C581.726 429.315 581.649 428.928 582.579 426.681C583.199 425.363 584.671 421.566 585.911 418.312C587.151 414.98 589.553 406.765 591.18 400.101C592.885 393.36 594.745 384.758 595.442 380.883C596.14 377.009 597.147 368.795 597.845 362.518C598.465 356.164 599.007 349.499 599.007 347.562V344.075C610.175 337.264 616.824 333.174 620.801 330.727C621.846 330.084 622.707 329.555 623.417 329.119C625.124 328.033 627.375 326.597 629.626 325.161C631.87 323.73 634.113 322.299 635.815 321.215C639.225 319.045 646.277 314.628 651.469 311.451C660.148 306.182 660.922 305.484 661 303.392C661 302.152 660.613 299.828 660.225 298.355C659.76 296.883 657.9 287.971 655.963 278.595C654.103 269.219 652.398 260.152 652.166 258.447C651.933 256.742 651.314 254.96 650.771 254.418C650.229 253.953 647.672 253.023 645.114 252.403C642.557 251.783 633.646 250.001 625.354 248.451C619.571 247.424 611.64 245.983 604.899 244.758C601.975 244.226 599.274 243.735 597.07 243.337C589.786 242.019 583.664 240.702 583.431 240.392C583.199 240.082 582.036 237.215 580.797 234.038C579.634 230.86 576.147 223.034 573.125 216.602C570.025 210.248 565.531 201.646 563.051 197.617C560.571 193.587 555.844 186.458 552.667 181.731C549.49 177.004 546.003 172.122 544.918 170.882C543.523 169.1 543.136 168.015 543.523 166.233C543.833 164.993 546.855 154.997 550.265 144.148C553.675 133.299 558.557 118.111 561.036 110.439C563.516 102.767 565.376 96.1807 565.221 95.7158C565.066 95.2508 563.594 94.0884 562.044 93.0036C560.416 91.9187 552.822 86.0294 545.151 79.9076C537.479 73.7857 529.807 67.5864 528.103 66.1141C526.398 64.7193 524.461 63.5569 523.841 63.5569C523.221 63.5569 521.438 64.3318 519.966 65.1842C518.494 66.1141 510.125 71.0735 501.368 76.1105C492.612 81.2249 482.693 86.9592 479.283 88.8965C478.256 89.4803 477.073 90.1555 475.842 90.8587C472.988 92.4889 469.872 94.2688 467.814 95.4058C464.172 97.5755 462.08 98.273 460.84 97.963C459.91 97.653 458.283 96.8781 457.198 96.1807C456.113 95.4058 453.169 93.7785 450.611 92.4611C448.054 91.1438 442.087 88.4316 437.438 86.4168C432.788 84.3245 423.025 80.6825 415.74 78.2802C408.456 75.8005 398.227 72.7009 392.88 71.3835C387.534 69.9887 382.962 68.6713 382.652 68.3614C382.342 68.0514 380.017 62.0846 377.382 55.0329C374.747 47.9812 371.803 40.1546 370.795 37.5973C369.919 35.3738 368.282 30.8655 366.851 26.9249C366.636 26.3335 366.426 25.7549 366.223 25.1988C364.751 20.9367 362.271 13.9625 360.722 9.70051C359.172 5.43849 357.467 1.48644 357.002 0.943997ZM332.515 385.378C332.05 384.371 331.352 383.596 330.965 383.596C330.655 383.596 329.803 384.216 329.183 384.99C328.563 385.688 327.245 387.703 326.238 389.407C325.441 390.757 322.799 395.066 319.85 399.878C319.072 401.147 318.274 402.45 317.481 403.743C315.86 406.338 313.845 409.57 311.782 412.879C308.917 417.475 305.961 422.216 303.843 425.596C300.602 430.837 292.634 443.445 285.293 455.059C284.386 456.495 283.488 457.915 282.61 459.305C274.551 472.013 264.477 488.131 260.215 495.183C255.876 502.235 248.669 513.548 244.175 520.368C239.68 527.187 235.883 532.999 235.728 533.386C235.651 533.696 278.271 533.929 330.5 533.929C382.729 533.929 425.427 533.696 425.427 533.386C425.427 532.999 424.032 530.829 422.405 528.504C420.7 526.179 411.788 512.076 402.489 497.12L402.488 497.118C393.19 482.241 383.116 466.124 380.094 461.474C376.995 456.825 365.294 438.149 353.98 420.016C342.666 401.884 333.057 386.308 332.515 385.378ZM296.016 106.177C301.751 105.247 310.507 104.317 315.389 103.93C320.271 103.62 326.625 103.232 329.57 103.155C332.437 103.155 341.116 103.62 348.943 104.24C356.692 104.937 367.231 106.254 372.345 107.262C377.459 108.269 386.681 110.594 392.88 112.299C399.079 114.081 408.301 117.336 413.415 119.428C418.53 121.598 427.596 125.86 433.563 128.959C439.53 131.982 447.512 136.631 451.386 139.111C455.261 141.668 462.545 146.86 467.659 150.657C473.006 154.609 481.375 161.971 487.497 168.092C493.231 173.904 500.903 182.273 504.545 186.768C508.11 191.262 514.231 199.631 518.106 205.366C522.135 211.333 528.025 221.639 531.822 229.388C535.464 236.827 540.113 247.676 542.051 253.41C543.988 259.145 546.623 267.901 547.863 272.783C549.102 277.665 550.807 285.492 551.66 290.219C552.512 294.946 553.597 304.167 554.139 310.754C554.682 318.115 554.837 328.344 554.604 337.101C554.294 345.005 553.442 355.776 552.59 361.123C551.737 366.47 549.955 375.381 548.715 380.883C547.398 386.385 544.918 395.297 543.136 400.644C541.353 405.99 537.866 414.902 535.309 420.404C532.829 425.906 528.645 434.352 526.088 439.002C523.453 443.651 518.803 451.168 515.626 455.662C512.527 460.157 507.025 467.286 503.538 471.625C499.973 475.887 494.316 482.474 490.907 486.116C487.497 489.836 484.32 492.858 483.932 492.858C483.545 492.781 480.91 489.216 478.198 484.876C475.486 480.537 467.659 468.061 460.84 457.212C458.503 453.494 455.975 449.467 453.521 445.557C448.814 438.059 444.379 430.994 442.087 427.378C438.6 421.876 432.943 412.965 429.534 407.618C426.639 403.079 419.389 391.447 412.239 379.977C410.966 377.936 409.697 375.899 408.456 373.909C405.67 369.482 402.647 364.671 399.692 359.965C393.851 350.667 388.27 341.783 385.286 337.101C380.792 330.049 369.4 312.149 360.101 297.193C350.725 282.314 341.349 267.126 339.179 263.484C337.009 259.842 334.374 255.58 333.289 253.953C332.205 252.325 330.732 251.085 330.112 251.24C329.492 251.395 327.478 254.263 325.618 257.672C323.681 261.082 314.692 275.883 305.47 290.606C296.326 305.329 287.492 319.278 285.942 321.602C284.393 323.927 276.876 335.783 269.282 347.949C261.765 360.116 252.234 375.304 248.127 381.658C244.097 388.09 235.728 401.341 229.529 411.105C226.663 415.619 223.813 420.149 221.44 423.923C218.679 428.312 216.563 431.677 215.813 432.802C215.443 433.411 214.939 434.228 214.355 435.174C212.86 437.596 210.842 440.864 209.226 443.651C206.979 447.526 202.252 454.965 198.765 460.312L198.573 460.606C195.103 465.926 190.432 473.088 188.226 476.74C186.926 478.776 185.36 481.297 183.947 483.57C182.833 485.364 181.814 487.004 181.097 488.131C179.469 490.921 177.842 492.703 177.222 492.471C176.757 492.316 173.115 488.674 169.241 484.566C165.366 480.382 158.934 472.943 155.06 468.061C151.108 463.179 145.683 455.817 143.049 451.788C140.414 447.758 137.004 442.179 135.454 439.389C133.982 436.599 131.89 432.802 130.805 430.865C129.72 428.928 127.163 423.193 124.993 418.079C122.746 412.965 119.569 404.441 117.864 399.094C116.159 393.747 113.834 385.533 112.749 380.883C111.665 376.234 110.037 368.02 109.262 362.673C108.41 357.326 107.403 347.562 106.938 340.975C106.473 334.389 106.318 325.477 106.55 321.215C106.783 316.953 107.558 308.739 108.177 303.005C108.875 297.27 110.27 288.359 111.277 283.244C112.362 278.13 114.144 270.768 115.229 266.971C116.314 263.174 118.716 255.657 120.654 250.311C122.513 244.964 127.085 234.735 130.727 227.451C134.37 220.167 139.484 210.945 142.041 206.916C144.676 202.886 149.558 196.144 152.89 191.805C156.222 187.543 162.499 180.259 166.838 175.532C171.178 170.805 177.687 164.295 181.329 160.963C184.971 157.631 191.248 152.439 195.278 149.417C199.307 146.395 205.042 142.365 208.064 140.428L208.181 140.353C211.191 138.423 215.221 135.84 217.363 134.616C219.455 133.299 226.429 129.657 232.861 126.48C239.215 123.302 248.669 119.118 253.783 117.258C258.898 115.321 268.119 112.376 274.319 110.749C280.518 109.122 290.282 107.029 296.016 106.177Z" fill="white"/>
<path fill-rule="evenodd" clip-rule="evenodd" d="M335.054 594.009C336.746 593.903 341.402 594.749 345.21 595.701C349.125 596.758 352.616 597.815 352.934 598.133C353.357 598.45 353.463 600.882 353.145 603.631C352.616 607.543 351.981 608.812 350.394 609.235C349.231 609.552 345.422 608.812 341.931 607.649C336.323 605.746 335.16 605.746 332.091 607.015C330.293 607.755 327.965 609.341 327.013 610.398C326.061 611.561 325.003 613.253 324.686 614.205C324.157 615.579 325.32 617.271 328.917 620.443C331.774 622.875 336.747 626.153 340.026 627.845C343.412 629.536 347.855 632.497 349.971 634.294C352.087 636.198 354.838 639.687 356.002 642.013C357.166 644.551 358.012 648.146 357.906 650.684C357.906 653.221 357.166 656.499 356.319 658.085C355.473 659.777 353.463 662.42 351.876 664.112C350.183 665.698 346.903 668.024 344.576 669.293C342.036 670.562 337.593 671.514 333.467 671.831C328.283 672.148 324.897 671.619 319.713 669.822C314.212 667.919 312.73 666.861 312.519 664.958C312.413 663.689 313.048 661.046 314 659.143C314.952 657.345 316.327 655.442 316.962 655.019C317.597 654.702 320.348 655.442 323.099 656.922C325.955 658.297 329.764 659.46 331.562 659.46C333.467 659.46 336.641 659.037 338.439 658.402C340.344 657.874 342.46 656.393 342.989 655.23C343.518 654.067 344.047 652.058 344.047 650.684C344.152 649.415 343.2 647.194 342.142 645.714C341.084 644.234 336.852 641.273 332.832 638.947C328.812 636.726 323.416 633.343 320.771 631.44C318.02 629.536 314.952 626.047 313.682 623.404C312.307 620.866 311.249 617.165 311.249 615.262C311.249 613.464 312.413 609.447 313.894 606.592C315.375 603.631 318.126 600.247 319.925 598.979C321.829 597.71 325.32 596.018 327.648 595.384C329.975 594.643 333.361 594.009 335.054 594.009ZM237.931 595.595C238.672 595.806 239.624 596.018 240.047 596.018C240.576 595.912 248.511 605.428 257.821 617.165C267.131 628.796 275.384 638.312 276.018 638.312C277.076 638.312 277.288 633.766 276.018 596.018H290.09L289.561 671.619L286.916 671.937C284.694 672.254 283.001 670.562 275.595 660.834C270.728 654.596 263.005 644.445 258.35 638.312C253.695 632.18 249.357 627.104 248.828 626.893C248.193 626.787 247.876 634.506 248.299 670.033H234.017L233.805 633.131C233.593 601.728 233.805 596.124 235.18 595.701C235.921 595.384 237.296 595.278 237.931 595.595ZM526.866 594.961C529.299 594.961 530.146 595.701 532.05 599.93C533.425 602.785 540.196 619.386 547.179 636.938C554.162 654.596 559.663 669.505 559.346 670.033C559.028 670.562 557.018 670.985 554.797 670.985C552.681 670.879 549.507 670.562 547.814 670.139C545.38 669.61 544.534 668.659 543.476 665.275C542.736 662.949 539.033 652.058 535.118 640.956C531.309 629.854 527.818 620.76 527.395 620.549C526.972 620.337 524.538 625.836 522.211 632.708C519.777 639.581 515.863 650.684 513.535 657.345C510.044 667.178 508.774 669.61 506.764 670.351C505.389 670.773 502.109 670.773 499.253 670.351C496.502 669.928 494.28 669.399 494.28 669.187C494.28 669.082 498.089 659.354 502.638 647.512C507.187 635.775 513.747 619.491 517.027 611.35C520.412 603.208 523.269 596.229 523.586 595.701C523.798 595.278 525.279 594.961 526.866 594.961ZM621.978 594.961C622.719 594.961 624.094 595.701 624.941 596.547C625.787 597.393 627.057 600.67 627.586 603.631C628.22 606.697 631.394 621.818 634.568 637.255C637.848 652.693 640.705 666.333 640.916 667.601C641.234 669.505 640.705 670.139 638.377 670.668C636.79 671.091 633.828 671.091 631.818 670.668C629.807 670.351 628.009 669.928 627.797 669.716C627.692 669.61 626.633 664.218 625.575 657.874C624.517 651.529 623.354 643.494 622.93 640.11C622.507 636.409 621.767 634.083 620.92 634.083C620.286 634.083 619.016 635.563 618.275 637.467C617.429 639.37 615.207 645.503 613.197 651.001C611.187 656.499 608.436 663.583 607.167 666.65C605.156 671.514 604.522 672.254 602.3 671.937C600.078 671.619 599.232 670.245 596.693 662.632C595 657.662 592.461 649.626 590.979 644.657C589.498 639.687 587.911 635.14 587.382 634.612C586.677 633.907 585.866 634.012 584.949 634.929C584.314 635.669 582.41 643.811 578.178 669.505L572.253 670.562C568.233 671.267 565.87 671.267 565.165 670.562C564.53 669.822 565.059 665.381 566.858 656.816C568.339 649.838 570.984 636.515 572.676 627.21C574.475 617.905 576.485 607.226 578.39 596.547L582.41 596.229C585.795 596.018 586.43 596.441 587.488 598.873C588.123 600.565 591.508 610.821 594.894 621.923C598.28 633.026 601.348 642.225 601.665 642.542C601.982 642.859 602.935 642.33 603.675 641.485C604.522 640.639 606.214 636.092 607.484 631.44C608.754 626.787 611.716 617.059 614.044 609.764C616.371 602.468 618.91 596.229 619.545 595.807C620.18 595.384 621.344 594.961 621.978 594.961ZM33 596.018H47.8117V670.033H34.058L33.9522 636.409C33.8464 618.011 33.6348 601.305 33.4232 599.402L33 596.018ZM65.2684 596.018H69.183C72.1453 596.018 73.5207 596.652 74.5787 598.45C75.4251 599.719 81.1382 607.226 87.3802 615.051C93.6223 622.981 100.393 631.44 102.404 633.872C104.308 636.303 106.424 638.312 107.059 638.312C107.694 638.312 107.799 631.122 106.53 596.018H120.812V671.091H117.11C114.041 671.091 113.089 670.562 111.502 667.919C110.55 666.121 105.683 659.565 100.817 653.327C95.8441 647.089 89.3904 638.63 86.2165 634.4C83.1483 630.171 79.9744 626.893 79.2338 627.104C78.2816 627.316 77.9642 632.391 78.1758 648.78C78.4932 668.236 78.2816 670.139 76.5889 670.668C75.6367 670.985 72.6743 670.985 65.2684 669.928V596.018ZM138.269 596.018H188.523V608.706L171.278 608.178C158.053 607.649 153.822 607.86 152.764 608.918C151.917 609.764 151.6 612.724 152.023 624.038L164.93 624.25C177.415 624.567 177.943 624.673 178.472 626.893C178.79 628.268 179.001 631.017 178.472 636.726L152.552 637.255V670.033H138.269V596.018ZM202.277 596.018H217.089V670.033H202.277V596.018ZM365.1 596.018H427.627V608.706L415.46 608.389C407.843 608.283 403.294 608.601 403.188 609.235C403.188 609.764 403.188 623.721 403.294 670.033H389.011V608.283L365.735 608.178L365.1 596.018ZM439.265 596.018H486.874V608.706L452.49 608.178L451.961 624.567H464.656C471.639 624.567 477.564 624.884 477.776 625.307C477.987 625.836 477.881 628.69 476.823 637.255H464.868C456.298 637.255 452.913 637.572 452.701 638.524C452.49 639.264 452.384 643.916 452.49 657.874H468.359C477.035 657.979 484.97 658.085 485.816 658.191C487.086 658.297 487.192 659.354 486.557 663.689C486.134 666.544 485.605 669.399 485.287 670.033C484.97 670.668 476.929 671.091 464.339 671.091C453.124 671.091 442.968 670.879 439.265 670.033V596.018Z" fill="white"/>
</svg>
