<svg width="256" height="94" viewBox="0 0 256 94" fill="none" xmlns="http://www.w3.org/2000/svg">
<path d="M16.6501 20.3601H5.2701V2.75006C5.30144 1.84586 4.77848 1.01387 3.9501 0.650058C3.60869 0.468142 3.22692 0.375278 2.8401 0.380058C2.45994 0.377777 2.08524 0.470592 1.7501 0.650058C0.941395 1.02659 0.445513 1.85967 0.500096 2.75006L0.500096 21.7501C0.407051 23.526 1.7713 25.0411 3.54722 25.1342C3.71828 25.1431 3.88979 25.1384 4.0601 25.1201H16.6501C17.9589 25.1041 19.007 24.0301 18.991 22.7213C18.9908 22.7076 18.9905 22.6938 18.9901 22.6801C19.0021 21.4375 18.0046 20.4204 16.762 20.4084C16.7247 20.408 16.6874 20.4086 16.6501 20.4101V20.3601Z" fill="white"/>
<path d="M90.1302 0.540033C88.9372 0.377386 87.8383 1.2126 87.6757 2.40555C87.6561 2.5495 87.6509 2.69505 87.6602 2.84003V16.27L75.7702 1.32003C75.3136 0.681658 74.5515 0.334892 73.7702 0.410033C72.4731 0.453439 71.4567 1.54017 71.5001 2.83731L71.5002 2.84003V22.64C71.4302 23.8751 72.3747 24.9332 73.6099 25.0031C73.7099 25.0088 73.8103 25.0078 73.9102 25C75.1771 24.9367 76.1759 23.8984 76.1902 22.63V9.76003C79.9902 14.62 83.8102 19.35 87.8402 24.21C88.3117 24.829 89.0642 25.1676 89.8402 25.11C91.1686 25.1933 92.313 24.184 92.3963 22.8556C92.4008 22.7838 92.4021 22.7119 92.4002 22.64V2.91003C92.4778 1.68088 91.5442 0.621582 90.3151 0.544017C90.2535 0.540134 90.1919 0.538805 90.1302 0.540033Z" fill="white"/>
<path d="M118.02 10.67C118.84 10.22 119.73 8.37 119.73 6.72C119.73 2.99 116.73 0.380005 112.3 0.380005H103.39C102.139 0.465045 101.194 1.54795 101.279 2.79875C101.279 2.8025 101.28 2.80625 101.28 2.81V22.61C101.198 23.8776 102.158 24.9719 103.426 25.0543C103.544 25.062 103.662 25.0605 103.78 25.05H113.5C115.44 24.8908 117.26 24.0431 118.63 22.66C119.33 21.9198 119.907 21.0724 120.34 20.15C120.846 19.1776 121.107 18.0962 121.1 17C121.05 13.35 118.89 11 118.02 10.67ZM116.59 16.67C116.607 18.9177 114.798 20.7535 112.551 20.7703C112.52 20.7706 112.49 20.7704 112.46 20.77H106.08V13.61H112.5C113.5 13.61 116.63 13.83 116.63 16.61M106.08 9.19V4.67H111.02C112.9 4.67 115.15 5.08001 115.15 7.01C115.15 8.76 113.15 9.21 111.49 9.28C110.96 9.28 107.49 9.19 106.08 9.19Z" fill="white"/>
<path d="M147.76 6.99996C147.76 2.99996 144.68 0.0799561 140.43 0.0799561H131.26C130.06 0.0799561 129.12 0.869956 129.12 2.57996V22.8C129.014 24.0714 129.959 25.188 131.23 25.2941C131.326 25.3021 131.423 25.3041 131.52 25.3C131.954 25.3036 132.382 25.2042 132.77 25.01C133.545 24.5517 134.001 23.6993 133.95 22.8V13.51H137.11C137.29 13.74 142.82 23.28 143.36 23.99C143.835 24.6336 144.563 25.0417 145.36 25.11C146.559 25.091 147.571 24.2139 147.76 23.03C147.734 22.475 147.561 21.9368 147.26 21.47C146.16 19.64 142.88 14.47 142.36 13.63C145.505 12.9802 147.76 10.2109 147.76 6.99996ZM143.15 6.86996C143.15 8.46996 141.15 8.86996 139.46 8.94996H133.95V4.52996H139.08C140.94 4.52996 143.15 4.77996 143.15 6.91996" fill="white"/>
<path d="M159.6 0.679978C159.221 0.490473 158.804 0.387983 158.38 0.379978C157.99 0.376486 157.605 0.469226 157.26 0.649978C156.48 1.04581 156.024 1.87979 156.11 2.74998V22.61C156.06 23.5248 156.549 24.3846 157.36 24.81C157.707 24.9874 158.091 25.0799 158.48 25.08C158.871 25.0812 159.256 24.985 159.6 24.8C160.417 24.3858 160.909 23.5243 160.85 22.61V2.74998C160.9 1.86813 160.404 1.04589 159.6 0.679978Z" fill="white"/>
<path d="M216.04 10.8501H208.85C207.561 10.8609 206.516 11.9007 206.5 13.1901C206.504 14.4548 207.533 15.4766 208.798 15.4723C208.829 15.4722 208.859 15.4714 208.89 15.4701H213.5V18.2101C213.467 18.3777 213.395 18.5352 213.29 18.6701C212.42 19.8601 210.59 20.4701 207.83 20.4701C205.872 20.5827 203.983 19.7314 202.77 18.1901C201.501 16.5397 200.844 14.5007 200.91 12.4201C200.91 7.85005 203.58 4.89005 207.73 4.89005C209.731 4.83165 211.698 5.40935 213.35 6.54005C213.86 6.93617 214.484 7.15711 215.13 7.17005C216.353 7.25314 217.412 6.32886 217.495 5.10561C217.498 5.07046 217.499 5.03527 217.5 5.00005C217.479 4.35684 217.227 3.74276 216.79 3.27005C215.26 1.88005 212.45 0.210053 207.73 0.210053C203.424 0.0170892 199.411 2.38655 197.5 6.25005C196.557 8.20411 196.081 10.3506 196.11 12.5201C196.11 21.0101 202.49 25.2101 207.71 25.2101C211.96 25.2101 218.28 23.6701 218.28 19.4401L218.35 13.3501C218.342 12.6888 218.101 12.0514 217.67 11.5501C217.266 11.057 216.645 10.795 216.01 10.8501" fill="white"/>
<path d="M242.5 20.3H231.7V13.38H241.29C242.491 13.2794 243.402 12.2543 243.36 11.05C243.388 9.76685 242.373 8.70273 241.09 8.66998H231.7V5.04998H242.5C243.689 5.1971 244.773 4.35218 244.92 3.16278C244.938 3.01921 244.941 2.87422 244.93 2.72998C244.93 1.41002 243.86 0.339827 242.54 0.339642C242.527 0.33964 242.513 0.339752 242.5 0.339977H229.33C228.767 0.312184 228.21 0.474158 227.75 0.799977C227.16 1.2372 226.839 1.94841 226.9 2.67998V22.58C226.894 23.911 227.969 24.9945 229.3 25.0001C229.31 25.0001 229.32 25.0001 229.33 25H242.5C243.727 25.1119 244.812 24.2084 244.923 22.9819C244.933 22.8782 244.935 22.774 244.93 22.67C244.959 21.389 243.944 20.327 242.663 20.298C242.609 20.2967 242.554 20.2974 242.5 20.3Z" fill="white"/>
<path d="M29.7401 0.81001C29.3549 0.617265 28.9308 0.514676 28.5001 0.51001C28.1178 0.516068 27.7418 0.608362 27.4001 0.78001C26.6224 1.17794 26.1665 2.01041 26.2501 2.88001V22.75C26.1949 24.0522 27.2057 25.1527 28.5079 25.2079C28.5453 25.2095 28.5827 25.2102 28.6201 25.21C29.0132 25.2135 29.4011 25.1208 29.7501 24.94C30.556 24.5152 31.0405 23.6596 30.9901 22.75V2.88001C31.0435 1.99745 30.546 1.17369 29.7401 0.81001Z" fill="white"/>
<path d="M51.4999 0.199952C44.4251 0.199954 38.6899 5.93519 38.6899 13.01C38.6899 20.0848 44.4251 25.82 51.4999 25.82C58.5747 25.82 64.3099 20.0848 64.3099 13.01C64.3099 13.0067 64.3099 13.0033 64.3099 13C64.3044 5.92909 58.5708 0.19995 51.4999 0.199952ZM51.4999 21.1C47.0264 21.1055 43.3954 17.4835 43.3899 13.01C43.3844 8.53645 47.0064 4.90549 51.4799 4.89996C55.9534 4.89444 59.5844 8.51645 59.5899 12.99C59.5899 12.9933 59.5899 12.9967 59.5899 13C59.5954 17.468 55.9779 21.0945 51.5099 21.1C51.5066 21.1 51.5032 21.1 51.4999 21.1Z" fill="white"/>
<path d="M63.18 30.5101C62.7842 29.7303 61.9502 29.2736 61.08 29.3601H27.71C26.7857 29.2919 25.9121 29.79 25.5 30.6201C25.3238 30.9637 25.2313 31.344 25.23 31.7301C25.23 32.1239 25.3261 32.5118 25.51 32.8601C25.9384 33.6784 26.8081 34.1681 27.73 34.1101H61.08C61.9657 34.1647 62.7917 33.6619 63.15 32.8501C63.3384 32.474 63.4408 32.0607 63.45 31.6401C63.4535 31.2471 63.3608 30.8591 63.18 30.5101ZM27.65 33.0001C26.9376 33.0001 26.36 32.4225 26.36 31.7101C26.36 30.9977 26.9376 30.4201 27.65 30.4201C28.3624 30.4201 28.94 30.9977 28.94 31.7101C28.94 32.4225 28.3624 33.0001 27.65 33.0001ZM60.96 33.0001C60.2476 33.0001 59.67 32.4225 59.67 31.7101C59.67 30.9977 60.2476 30.4201 60.96 30.4201C61.6724 30.4201 62.25 30.9977 62.25 31.7101C62.25 32.4225 61.6724 33.0001 60.96 33.0001Z" fill="white"/>
<path d="M171.04 25.34C169.937 25.3909 169.001 24.5376 168.95 23.4342C168.947 23.3729 168.947 23.3114 168.95 23.25V2C168.95 0.92 169.42 0 170.57 0H178.1C185.6 0 190.37 4.6 190.37 11.93V12.47C190.37 20.65 185.77 25.34 177.83 25.34H171.04ZM185.5 11.93C185.5 7.23 182.87 4.59 177.5 4.59H173.79V20.72H177.6C182.81 20.72 185.5 18.04 185.5 12.37V11.93Z" fill="white"/>
<path d="M130.5 63.69V70.1C130.5 74.38 123.92 75.91 120.3 75.91C113.617 75.9068 108.203 70.4869 108.206 63.8042C108.206 63.6995 108.207 63.5947 108.21 63.49C108.21 56.05 112.66 50.83 120.21 50.83C123.38 50.7682 126.464 51.8672 128.88 53.92C129.327 54.416 129.585 55.053 129.61 55.72C129.589 56.968 128.561 57.9628 127.313 57.9419C127.292 57.9416 127.271 57.9409 127.25 57.94C126.477 57.9191 125.737 57.625 125.16 57.11C123.594 56.0865 121.749 55.5762 119.88 55.65C115.52 55.65 113.03 58.71 113.03 63.09C113.03 67.47 115.49 71.23 120.44 71.23C121.97 71.23 124.44 70.8 125.75 69.3V66.08H121.04C119.661 66.0967 118.527 64.9984 118.5 63.62C118.516 62.3001 119.6 61.2435 120.919 61.2598C120.923 61.2599 120.926 61.2599 120.93 61.26H128.14C129.387 61.2011 130.445 62.1641 130.504 63.4109C130.508 63.5039 130.507 63.5971 130.5 63.69Z" fill="white"/>
<path d="M149.67 63.0901C151.8 57.9701 154.06 52.4301 154.12 52.2601C154.536 51.4813 155.328 50.9768 156.21 50.9301C157.176 50.9632 158.062 51.4774 158.57 52.3001L167.08 72.8201C167.168 73.0079 167.212 73.2129 167.21 73.4201C166.998 74.7337 165.916 75.7327 164.59 75.84C163.654 75.7579 162.845 75.154 162.5 74.2801L159.87 68.0001H152.87C152.34 69.3301 150.44 74.1101 150.28 74.4101C149.908 75.2411 149.09 75.7826 148.18 75.8001C146.901 75.8183 145.835 74.8268 145.76 73.5501C145.781 72.9498 145.928 72.3605 146.19 71.8201C146.28 71.4601 147.91 67.4101 149.67 63.0901ZM157.94 63.1901L156.35 59.3401L154.82 63.1901H157.94Z" fill="white"/>
<path d="M184.21 66.28L184.37 65.85C186.3 61.5 188.26 57.11 190.37 52.85L190.57 52.48C191.04 51.48 191.34 50.92 192.67 50.92C194.79 50.92 194.92 52.22 195.02 54.84C195.26 60.32 195.39 71.02 195.39 73.28C195.491 74.5684 194.528 75.6944 193.239 75.7949C193.146 75.8022 193.053 75.8039 192.96 75.8C191.618 75.8168 190.517 74.7427 190.5 73.4007C190.499 73.3738 190.499 73.3469 190.5 73.32V64.32C189.27 67.04 187.97 69.7 186.64 72.32C186.11 73.55 185.35 74.81 184.02 74.81C183.011 74.6682 182.138 74.0351 181.69 73.12V73.29C180.59 70.86 179.5 68.4 178.4 66C177.83 64.7 178.2 65.44 177.6 64.14C177.586 64.3598 177.586 64.5802 177.6 64.8V66.07C177.6 67.46 177.53 68.86 177.5 70.22C177.5 71.15 177.43 72.04 177.43 72.97C177.43 75.27 176.23 75.83 175.07 75.83C173.73 75.9081 172.581 74.8854 172.503 73.5456C172.498 73.4705 172.497 73.3952 172.5 73.32C172.73 66.81 172.93 56.51 172.93 54.12C172.93 52.12 173.56 50.93 175.32 50.93C175.69 50.93 176.78 50.93 177.61 52.76L183.99 66.71C184.039 66.5555 184.113 66.4102 184.21 66.28Z" fill="white"/>
<path d="M201.18 53.32C201.063 52.094 201.962 51.0053 203.188 50.8884C203.362 50.8718 203.537 50.8757 203.71 50.9H216.99C218.371 50.8945 219.494 52.0093 219.5 53.39C219.505 54.6768 218.465 55.7238 217.179 55.7286C217.109 55.7288 217.039 55.726 216.97 55.72H205.97V59.34H215.83C217.033 59.3968 217.962 60.4178 217.905 61.6205C217.902 61.6772 217.897 61.7337 217.89 61.79C218.036 62.9628 217.204 64.032 216.031 64.178C215.898 64.1945 215.764 64.1985 215.63 64.19H206V71H217.12C218.45 70.9581 219.563 72.0026 219.605 73.333C219.647 74.6633 218.602 75.7757 217.272 75.8176C217.178 75.8206 217.084 75.818 216.99 75.81H203.71C202.392 75.8886 201.261 74.8841 201.182 73.5665C201.177 73.4844 201.176 73.4022 201.18 73.32V53.32Z" fill="white"/>
<path d="M236.76 65.32L233.01 64.32C227.46 63.32 225.2 61.32 225.2 57.84C225.2 53.23 228.79 50.47 233.87 50.47C238.66 50.47 243.11 52.99 243.11 55.47C243.083 56.7291 242.106 57.7626 240.85 57.86C240.144 57.7718 239.482 57.472 238.95 57C237.497 55.8771 235.707 55.2781 233.87 55.3C231.38 55.3 230.05 56.04 230.05 57.16C230.05 58.63 232.38 59.16 235.14 59.76C239.55 60.76 244.93 62.01 244.93 67.93C244.93 73.04 240.85 76.33 235.2 76.33C231.038 76.3814 227.069 74.5783 224.37 71.41C223.864 70.8633 223.57 70.1542 223.54 69.41C223.479 68.2518 224.368 67.2634 225.527 67.2024C225.661 67.1953 225.796 67.2012 225.93 67.22C226.8 67.22 227.36 67.49 228.36 68.58C229.982 70.4775 232.375 71.5398 234.87 71.47C238.09 71.47 240.08 70.14 240.08 68.02C240.08 66.68 239.09 65.91 236.76 65.32Z" fill="white"/>
<path d="M120.28 88.76C120.102 88.7599 119.955 88.9017 119.95 89.08V90.78H119.6V89.08C119.6 88.9033 119.457 88.76 119.28 88.76C119.103 88.76 118.96 88.9033 118.96 89.08V90.77C107.769 90.7454 97.7397 83.8566 93.7002 73.42C94.1632 73.0267 94.2197 72.3325 93.8263 71.8695C93.5504 71.5447 93.1116 71.4085 92.7002 71.52C92.1238 71.7065 91.8034 72.3206 91.9802 72.9C92.1299 73.3817 92.5983 73.6913 93.1002 73.64C97.2334 84.3288 107.5 91.3877 118.96 91.42V93.06C118.954 93.2311 119.089 93.3744 119.26 93.38C119.266 93.3802 119.273 93.3802 119.28 93.38C119.458 93.3801 119.605 93.2383 119.61 93.06V91.43H119.96V93.06C119.954 93.2366 120.093 93.3843 120.27 93.3898C120.273 93.3899 120.277 93.39 120.28 93.39C120.462 93.39 120.61 93.2423 120.61 93.06V89.06C120.599 88.8872 120.453 88.7543 120.28 88.76Z" fill="white"/>
<path d="M146.39 53.73C146.24 53.3126 145.833 53.0438 145.39 53.07C141.293 42.2023 130.874 35.0251 119.26 35.07H119.14C107.3 35.0748 96.763 42.5811 92.8901 53.77L91.2001 53.24C91.0308 53.1892 90.8524 53.2853 90.8017 53.4546L90.8002 53.46C90.7442 53.6218 90.83 53.7983 90.9918 53.8543C90.9978 53.8564 91.004 53.8583 91.0102 53.86L92.6701 54.38L92.5502 54.73L90.9001 54.22C90.7262 54.1681 90.543 54.2664 90.4901 54.44C90.4393 54.6093 90.5354 54.7877 90.7047 54.8384L90.7101 54.84L94.6202 56.06H94.7201C94.8622 56.0581 94.9871 55.9654 95.0301 55.83C95.0809 55.6607 94.9848 55.4823 94.8155 55.4316L94.8101 55.43L93.1701 54.92C93.1701 54.8 93.2601 54.68 93.2901 54.56L94.9201 55.07H95.0201C95.1963 55.0834 95.3502 54.9515 95.3636 54.7753C95.3755 54.619 95.2725 54.4771 95.1202 54.44L93.5001 54C97.2804 43.0685 107.573 35.7341 119.14 35.73H119.26C130.614 35.6892 140.795 42.7182 144.78 53.35C144.511 53.6071 144.407 53.9924 144.51 54.35C144.777 54.8337 145.385 55.0096 145.868 54.743C146.222 54.5484 146.423 54.1608 146.38 53.76L146.39 53.73Z" fill="white"/>
<path d="M119.23 88C105.533 88 94.4302 76.8967 94.4302 63.2C94.4302 49.5033 105.533 38.4 119.23 38.4C132.927 38.4 144.03 49.5033 144.03 63.2C144.03 63.2033 144.03 63.2067 144.03 63.21C144.013 76.8982 132.918 87.989 119.23 88ZM119.23 39.06C105.892 39.06 95.0802 49.8723 95.0802 63.21C95.0802 76.5477 105.892 87.36 119.23 87.36C132.568 87.36 143.38 76.5477 143.38 63.21C143.358 49.8847 132.555 39.091 119.23 39.08V39.06Z" fill="white"/>
<path d="M93.2299 43.93C93.2369 43.9072 93.2369 43.8828 93.2299 43.86L91.8799 42.58C91.8572 42.5724 91.8326 42.5724 91.8099 42.58H91.7199H91.6299C91.6073 42.5716 91.5825 42.5716 91.5599 42.58C88.666 44.7962 86.2508 47.5753 84.4599 50.75C82.7136 53.8518 81.6084 57.2728 81.2099 60.81H80.8999H80.5299C80.3715 60.8039 80.2356 60.9222 80.2199 61.08C79.8997 63.971 80.0687 66.8952 80.7199 69.73C81.3409 72.411 82.3911 74.9741 83.8299 77.32C83.9097 77.442 84.0637 77.492 84.1999 77.44L84.5199 77.29H84.5999C85.5563 78.7864 86.6261 80.2073 87.7999 81.54C88.8273 82.7043 89.9332 83.7969 91.1099 84.81C91.164 84.8533 91.2307 84.8778 91.2999 84.88C91.3823 84.8804 91.4614 84.848 91.5199 84.79L92.9799 83.3C92.9883 83.274 92.9883 83.246 92.9799 83.22C92.9867 83.1904 92.9867 83.1596 92.9799 83.13C92.9856 83.1036 92.9856 83.0764 92.9799 83.05C92.9799 83.05 92.9799 83.05 92.9799 82.98C91.3999 81.7 83.4999 74.79 83.6799 63.42C83.8499 52.35 91.6099 45.71 93.1699 44.49C93.1763 44.4671 93.1763 44.4429 93.1699 44.42V44.33C93.1746 44.3002 93.1746 44.2698 93.1699 44.24L93.2299 43.93ZM92.4999 44C90.2599 45.83 83.2099 52.45 83.0499 63.19C82.9791 67.9768 84.318 72.6786 86.8999 76.71C88.3733 79.0752 90.2052 81.1971 92.3299 83L91.3299 84C90.2653 83.0668 89.2631 82.0646 88.3299 81C87.1191 79.6283 86.0221 78.16 85.0499 76.61C84.9925 76.5224 84.8947 76.4697 84.7899 76.47H84.6799L84.3499 76.62H84.2799C82.9461 74.3894 81.9708 71.9632 81.3899 69.43C80.7721 66.7533 80.5964 63.9935 80.8699 61.26H81.0199H81.4299C81.5883 61.2661 81.7242 61.1478 81.7399 60.99C82.0903 57.4826 83.152 54.0834 84.8599 51C86.5721 47.9708 88.8661 45.3098 91.6099 43.17L92.4999 44Z" fill="white"/>
<path d="M255 57.19C255.029 57.1162 255.029 57.0338 255 56.96L254.63 55.8C254.605 55.722 254.546 55.6595 254.47 55.63C254.4 55.6 254.32 55.6 254.25 55.63C254.174 55.6571 254.11 55.7103 254.07 55.78C254.041 55.8538 254.041 55.9362 254.07 56.01L254.34 56.88L253.87 57.03C253.722 57.0776 253.632 57.2272 253.66 57.38C255.013 63.7024 254.082 70.2998 251.03 76C249.329 79.0374 247.034 81.7005 244.28 83.83L243.38 82.98C245.62 81.16 252.67 74.54 252.83 63.8C252.901 59.0132 251.562 54.3114 248.98 50.28C247.506 47.9152 245.678 45.7905 243.56 43.98L244.56 42.98C245.622 43.9159 246.624 44.9179 247.56 45.98C248.775 47.348 249.873 48.8166 250.84 50.37C250.9 50.455 250.996 50.5069 251.1 50.51C251.152 50.5245 251.208 50.5245 251.26 50.51C251.397 50.4269 251.441 50.2485 251.357 50.1116C251.355 50.1077 251.353 50.1038 251.35 50.1C249.539 47.2094 247.304 44.6071 244.72 42.38C244.697 42.3724 244.673 42.3724 244.65 42.38H244.57C244.544 42.3743 244.516 42.3743 244.49 42.38C244.464 42.3746 244.436 42.3746 244.41 42.38L242.9 43.8C242.9 43.8 242.9 43.8 242.9 43.87C242.867 43.922 242.867 43.988 242.9 44.04C242.9 44.04 242.9 44.09 242.9 44.11C244.48 45.38 252.38 52.3 252.2 63.66C252.03 74.74 244.27 81.38 242.71 82.6C242.702 82.6227 242.702 82.6473 242.71 82.67C242.704 82.7031 242.704 82.7369 242.71 82.77C242.704 82.7964 242.704 82.8236 242.71 82.85C242.702 82.8726 242.702 82.8974 242.71 82.92L244.08 84.22C244.138 84.2712 244.213 84.2996 244.29 84.3C244.355 84.3 244.418 84.2789 244.47 84.24C247.376 82.0327 249.793 79.2476 251.57 76.06C254.657 70.3113 255.633 63.6634 254.33 57.27L254.85 57.11C254.892 57.1501 254.944 57.1778 255 57.19Z" fill="white"/>
<path d="M119.81 82.39C109.107 82.39 100.43 73.7133 100.43 63.01C100.43 52.3067 109.107 43.63 119.81 43.63C120.37 43.63 120.93 43.63 121.48 43.7C122.029 43.7477 122.436 44.2307 122.39 44.78C122.342 45.3291 121.859 45.7362 121.31 45.69C120.82 45.69 120.31 45.63 119.81 45.63C110.211 45.6283 102.429 53.4082 102.427 63.0069C102.425 72.6056 110.205 80.3883 119.804 80.39C124.92 80.3909 129.777 78.1374 133.08 74.23C133.403 73.7817 134.028 73.6799 134.476 74.0025C134.924 74.3251 135.026 74.95 134.703 75.3983C134.672 75.4415 134.638 75.4822 134.6 75.52C130.925 79.8804 125.512 82.3948 119.81 82.39Z" fill="white"/>
</svg>
