<svg width="206" height="51" viewBox="0 0 206 51" fill="none" xmlns="http://www.w3.org/2000/svg">
<g clip-path="url(#clip0_656_434)">
<path fill-rule="evenodd" clip-rule="evenodd" d="M71.9598 20.01C71.7898 19.59 71.5598 19.2 71.2998 18.84L71.2898 18.85L60.9098 4.48C58.9398 1.73 55.7498 0.02 52.2998 0H28.3898C25.6498 0 23.0698 1.33 21.4898 3.56L1.19975 31.75C0.499751 32.75 0.389762 34.04 0.929762 35.13C0.949762 35.17 0.999754 35.25 0.999754 35.25L11.1198 49.25C11.8598 50.27 12.7698 50.81 13.9198 50.81H63.7098C65.1898 50.81 66.5898 49.95 67.2798 48.61C67.8898 47.43 67.8098 46.1 67.0598 45.05L61.4898 37.35C64.9398 36.48 68.0698 34.41 70.1798 31.46L70.7498 30.66C72.9198 27.63 73.3898 23.44 71.9598 20.01ZM23.2297 4.81998C24.4198 3.15998 26.3298 2.16998 28.3697 2.16998H52.3298C59.1898 2.18998 63.1498 10.01 59.1598 15.59L58.5898 16.39C56.1498 19.8 52.2198 21.83 48.0198 21.83H47.7798L55.4798 32.5C56.1698 33.48 55.0798 34.83 53.8798 34.83H39.5398C38.4998 34.83 37.4897 34.21 36.8898 33.53L28.4897 21.91L20.1797 33.51C19.5797 34.33 18.6297 34.82 17.6097 34.82H3.89974C2.95974 34.82 2.41974 33.76 2.95974 33L23.2297 4.81998ZM17.29 37.85L16.58 40.68L13.75 41.39L16.58 42.1L17.29 44.93L18 42.1L20.83 41.39L18 40.68L17.29 37.85ZM28.1098 34.11C28.1098 34.5463 27.7561 34.9 27.3198 34.9C26.8835 34.9 26.5298 34.5463 26.5298 34.11C26.5298 33.6737 26.8835 33.32 27.3198 33.32C27.7561 33.32 28.1098 33.6737 28.1098 34.11ZM32.2401 38.24C32.4444 38.24 32.6101 38.0743 32.6101 37.87C32.6101 37.6656 32.4444 37.5 32.2401 37.5C32.0357 37.5 31.8701 37.6656 31.8701 37.87C31.8701 38.0743 32.0357 38.24 32.2401 38.24ZM36.5398 42.99C36.5398 43.1943 36.3741 43.36 36.1698 43.36C35.9654 43.36 35.7998 43.1943 35.7998 42.99C35.7998 42.7857 35.9654 42.62 36.1698 42.62C36.3741 42.62 36.5398 42.7857 36.5398 42.99ZM34.6 44.68C34.8043 44.68 34.97 44.5144 34.97 44.31C34.97 44.1057 34.8043 43.94 34.6 43.94C34.3956 43.94 34.23 44.1057 34.23 44.31C34.23 44.5144 34.3956 44.68 34.6 44.68ZM44.2097 40.04C44.2097 40.2444 44.044 40.41 43.8397 40.41C43.6353 40.41 43.4697 40.2444 43.4697 40.04C43.4697 39.8357 43.6353 39.67 43.8397 39.67C44.044 39.67 44.2097 39.8357 44.2097 40.04ZM52.7597 45.78C53.196 45.78 53.5497 45.4263 53.5497 44.99C53.5497 44.5537 53.196 44.2 52.7597 44.2C52.3234 44.2 51.9697 44.5537 51.9697 44.99C51.9697 45.4263 52.3234 45.78 52.7597 45.78ZM55.2698 38.9301C55.2698 39.1344 55.1041 39.3001 54.8998 39.3001C54.6954 39.3001 54.5298 39.1344 54.5298 38.9301C54.5298 38.7257 54.6954 38.5601 54.8998 38.5601C55.1041 38.5601 55.2698 38.7257 55.2698 38.9301ZM65.9398 29.1701C66.1441 29.1701 66.3098 29.0044 66.3098 28.8001C66.3098 28.5957 66.1441 28.4301 65.9398 28.4301C65.7354 28.4301 65.5698 28.5957 65.5698 28.8001C65.5698 29.0044 65.7354 29.1701 65.9398 29.1701ZM64.0798 27.5501C64.0798 27.7544 63.9141 27.9201 63.7098 27.9201C63.5054 27.9201 63.3398 27.7544 63.3398 27.5501C63.3398 27.3457 63.5054 27.1801 63.7098 27.1801C63.9141 27.1801 64.0798 27.3457 64.0798 27.5501ZM60.1299 22.35L59.7799 23.76L58.3599 24.12L59.7799 24.47L60.1299 25.89L60.4799 24.47L61.8999 24.12L60.4799 23.76L60.1299 22.35ZM65.5198 17.46C65.5198 17.6644 65.3541 17.83 65.1498 17.83C64.9454 17.83 64.7798 17.6644 64.7798 17.46C64.7798 17.2557 64.9454 17.09 65.1498 17.09C65.3541 17.09 65.5198 17.2557 65.5198 17.46Z" fill="white"/>
<path d="M93.8717 21.31L88.6416 16.01C88.5316 15.9 88.3717 15.83 88.2117 15.83C87.8817 15.83 87.6116 16.1 87.6116 16.43V20.89C87.6116 21.22 87.3416 21.49 87.0116 21.49H81.9917C81.6617 21.49 81.3916 21.22 81.3916 20.89V0.610008C81.3916 0.280008 81.6617 0.0100098 81.9917 0.0100098H96.1116C97.1016 0.0100098 97.9017 0.810011 97.9017 1.80001V14.04C97.9017 15.03 97.1016 15.83 96.1116 15.83C95.5816 15.83 95.3117 16.47 95.6817 16.85L99.2517 20.47C99.6217 20.85 99.3617 21.49 98.8217 21.49H94.2917C94.1317 21.49 93.9816 21.43 93.8616 21.31H93.8717ZM87.6217 4.98001V10.85C87.6217 11.18 87.8917 11.45 88.2217 11.45H91.0917C91.4217 11.45 91.6917 11.18 91.6917 10.85V4.98001C91.6917 4.65001 91.4217 4.38001 91.0917 4.38001H88.2217C87.8917 4.38001 87.6217 4.65001 87.6217 4.98001Z" fill="white"/>
<path d="M112.602 0.0100098H115.712C117.432 0.0100098 118.822 1.40001 118.822 3.12001V18.38C118.822 20.1 117.432 21.49 115.712 21.49H104.092C102.372 21.49 100.982 20.1 100.982 18.38V3.12001C100.982 1.40001 102.372 0.0100098 104.092 0.0100098H112.602ZM112.602 15.48V6.01001C112.602 5.11001 111.872 4.38001 110.972 4.38001H108.832C107.932 4.38001 107.202 5.11001 107.202 6.01001V15.48C107.202 16.38 107.932 17.11 108.832 17.11H110.972C111.872 17.11 112.602 16.38 112.602 15.48Z" fill="white"/>
<path d="M137.822 0.0100098C138.882 0.0100098 139.742 0.870012 139.742 1.93001V6.33001C139.742 7.02001 139.182 7.58001 138.492 7.58001H134.772C134.082 7.58001 133.522 7.02001 133.522 6.33001V5.63001C133.522 4.94001 132.962 4.38001 132.272 4.38001H129.372C128.682 4.38001 128.122 4.94001 128.122 5.63001V15.87C128.122 16.56 128.682 17.12 129.372 17.12H132.272C132.962 17.12 133.522 16.56 133.522 15.87V14.58C133.522 13.89 134.082 13.33 134.772 13.33H138.492C139.182 13.33 139.742 13.89 139.742 14.58V19.57C139.742 20.63 138.882 21.49 137.822 21.49H123.832C122.772 21.49 121.912 20.63 121.912 19.57V1.94001C121.912 0.88001 122.772 0.0200081 123.832 0.0200081H137.822V0.0100098Z" fill="white"/>
<path d="M160.312 1.4L151.632 10.18C151.322 10.5 151.322 11.01 151.632 11.32L160.312 20.1C160.822 20.61 160.452 21.49 159.732 21.49H155.802C155.582 21.49 155.372 21.4 155.222 21.25L149.972 15.94C149.462 15.42 148.582 15.78 148.582 16.51V20.67C148.582 21.12 148.222 21.48 147.772 21.48H143.182C142.732 21.48 142.372 21.12 142.372 20.67V0.82C142.372 0.37 142.732 0.00999832 143.182 0.00999832H147.772C148.222 0.00999832 148.582 0.37 148.582 0.82V4.98C148.582 5.71 149.462 6.07 149.972 5.55L155.222 0.239998C155.372 0.0899979 155.582 0 155.802 0H159.732C160.452 0 160.822 0.869999 160.312 1.39V1.4Z" fill="white"/>
<path d="M176.172 4.38H169.582C169.052 4.38 168.622 4.81 168.622 5.34V7.6C168.622 8.13 169.052 8.56 169.582 8.56H174.252C174.782 8.56 175.212 8.99 175.212 9.52V11.97C175.212 12.5 174.782 12.93 174.252 12.93H169.582C169.052 12.93 168.622 13.36 168.622 13.89V16.15C168.622 16.68 169.052 17.11 169.582 17.11H176.172C176.702 17.11 177.132 17.54 177.132 18.07V20.52C177.132 21.05 176.702 21.48 176.172 21.48H163.362C162.832 21.48 162.402 21.05 162.402 20.52V0.959999C162.402 0.429999 162.832 0 163.362 0H176.172C176.702 0 177.132 0.429999 177.132 0.959999V3.41C177.132 3.94 176.702 4.37 176.172 4.37V4.38Z" fill="white"/>
<path d="M196.812 3.29002C196.812 3.89002 196.322 4.38002 195.722 4.38002H192.502C191.902 4.38002 191.412 4.87002 191.412 5.47002V20.39C191.412 20.99 190.922 21.48 190.322 21.48H186.292C185.692 21.48 185.202 20.99 185.202 20.39V5.47002C185.202 4.87002 184.712 4.38002 184.112 4.38002H180.082C179.482 4.38002 178.992 3.89002 178.992 3.29002V1.11002C178.992 0.51002 179.482 0.0200195 180.082 0.0200195H195.732C196.332 0.0200195 196.822 0.51002 196.822 1.11002V3.29002H196.812Z" fill="white"/>
<path d="M95.9619 29.33C97.2019 29.33 98.2119 30.34 98.2119 31.58V34.74C98.2119 35.55 97.5519 36.21 96.7419 36.21H92.8819C92.3919 36.21 92.0019 35.82 92.0019 35.33V34.28C92.0019 33.97 91.7519 33.71 91.4319 33.71H88.4919C88.1819 33.71 87.9218 33.96 87.9218 34.28V37.32C87.9218 37.63 88.1719 37.89 88.4919 37.89H95.9619C97.2019 37.89 98.2119 38.9 98.2119 40.14V48.57C98.2119 49.81 97.2019 50.82 95.9619 50.82H83.6519C82.4119 50.82 81.4019 49.81 81.4019 48.57V44.74C81.4019 44.3 81.7619 43.95 82.1919 43.95H86.8219C87.2619 43.95 87.6118 44.31 87.6118 44.74V45.88C87.6118 46.19 87.8619 46.45 88.1819 46.45H91.4218C91.7318 46.45 91.9919 46.2 91.9919 45.88V42.83C91.9919 42.52 91.7418 42.26 91.4218 42.26H83.9518C82.7118 42.26 81.7018 41.25 81.7018 40.01V30.68C81.7018 29.93 82.3118 29.33 83.0518 29.33H95.9619Z" fill="white"/>
<path d="M116.582 29.33C117.642 29.33 118.502 30.19 118.502 31.25V35.65C118.502 36.34 117.942 36.9 117.252 36.9H113.532C112.842 36.9 112.282 36.34 112.282 35.65V34.95C112.282 34.26 111.722 33.7 111.032 33.7H108.132C107.442 33.7 106.882 34.26 106.882 34.95V45.19C106.882 45.88 107.442 46.44 108.132 46.44H111.032C111.722 46.44 112.282 45.88 112.282 45.19V43.9C112.282 43.21 112.842 42.65 113.532 42.65H117.252C117.942 42.65 118.502 43.21 118.502 43.9V48.89C118.502 49.95 117.642 50.81 116.582 50.81H102.592C101.532 50.81 100.672 49.95 100.672 48.89V31.26C100.672 30.2 101.532 29.34 102.592 29.34H116.582V29.33Z" fill="white"/>
<path d="M122.392 29.33H126.402C127.012 29.33 127.502 29.82 127.502 30.43V49.71C127.502 50.32 127.012 50.81 126.402 50.81H122.392C121.782 50.81 121.292 50.32 121.292 49.71V30.43C121.292 29.82 121.782 29.33 122.392 29.33Z" fill="white"/>
<path d="M144.352 33.71H137.762C137.232 33.71 136.802 34.14 136.802 34.67V36.93C136.802 37.46 137.232 37.89 137.762 37.89H142.432C142.962 37.89 143.392 38.32 143.392 38.85V41.3C143.392 41.83 142.962 42.26 142.432 42.26H137.762C137.232 42.26 136.802 42.69 136.802 43.22V45.48C136.802 46.01 137.232 46.44 137.762 46.44H144.352C144.882 46.44 145.312 46.87 145.312 47.4V49.85C145.312 50.38 144.882 50.81 144.352 50.81H131.542C131.012 50.81 130.582 50.38 130.582 49.85V30.29C130.582 29.76 131.012 29.33 131.542 29.33H144.352C144.882 29.33 145.312 29.76 145.312 30.29V32.74C145.312 33.27 144.882 33.7 144.352 33.7V33.71Z" fill="white"/>
<path d="M161.902 29.34H166.662C167.062 29.34 167.392 29.66 167.392 30.07V50.09C167.392 50.49 167.062 50.82 166.662 50.82H161.592C161.332 50.82 161.092 50.68 160.962 50.46L155.652 41.23C155.282 40.59 154.292 40.85 154.292 41.59V50.09C154.292 50.49 153.962 50.82 153.562 50.82H148.802C148.402 50.82 148.072 50.49 148.072 50.09V30.07C148.072 29.67 148.402 29.34 148.802 29.34H154.602C154.862 29.34 155.102 29.48 155.232 29.7L159.822 37.66C160.192 38.3 161.182 38.04 161.182 37.3V30.06C161.182 29.66 161.512 29.33 161.912 29.33L161.902 29.34Z" fill="white"/>
<path d="M186.392 29.33C187.452 29.33 188.312 30.19 188.312 31.25V35.65C188.312 36.34 187.752 36.9 187.062 36.9H183.342C182.652 36.9 182.092 36.34 182.092 35.65V34.95C182.092 34.26 181.532 33.7 180.842 33.7H177.942C177.252 33.7 176.692 34.26 176.692 34.95V45.19C176.692 45.88 177.252 46.44 177.942 46.44H180.842C181.532 46.44 182.092 45.88 182.092 45.19V43.9C182.092 43.21 182.652 42.65 183.342 42.65H187.062C187.752 42.65 188.312 43.21 188.312 43.9V48.89C188.312 49.95 187.452 50.81 186.392 50.81H172.402C171.342 50.81 170.482 49.95 170.482 48.89V31.26C170.482 30.2 171.342 29.34 172.402 29.34H186.392V29.33Z" fill="white"/>
<path d="M204.862 33.71H198.272C197.742 33.71 197.312 34.14 197.312 34.67V36.93C197.312 37.46 197.742 37.89 198.272 37.89H202.942C203.472 37.89 203.902 38.32 203.902 38.85V41.3C203.902 41.83 203.472 42.26 202.942 42.26H198.272C197.742 42.26 197.312 42.69 197.312 43.22V45.48C197.312 46.01 197.742 46.44 198.272 46.44H204.862C205.392 46.44 205.822 46.87 205.822 47.4V49.85C205.822 50.38 205.392 50.81 204.862 50.81H192.052C191.522 50.81 191.092 50.38 191.092 49.85V30.29C191.092 29.76 191.522 29.33 192.052 29.33H204.862C205.392 29.33 205.822 29.76 205.822 30.29V32.74C205.822 33.27 205.392 33.7 204.862 33.7V33.71Z" fill="white"/>
</g>
<defs>
<clipPath id="clip0_656_434">
<rect width="206" height="51" fill="white"/>
</clipPath>
</defs>
</svg>
