<svg width="260" height="39" viewBox="0 0 260 39" fill="none" xmlns="http://www.w3.org/2000/svg">
<path d="M204.05 5.0054C204.763 5.11794 205.08 5.66041 204.951 6.45878C204.783 7.53355 203.427 7.72809 202.615 7.95317C201.457 8.28075 200.259 8.29092 199.111 8.598C197.884 8.92558 195.162 9.26334 193.964 9.66259C194.251 10.0208 195.429 9.91849 195.855 9.97985C196.558 10.0924 198.775 10.2562 199.478 10.3586C201.18 10.6042 202.793 11.0239 204.446 11.4742C205.406 11.7403 207.297 11.9553 206.96 13.4906C206.782 14.2993 206.08 14.3198 205.446 14.3606C204.624 14.4118 203.843 14.5757 203.051 14.7394C193.103 16.459 186.363 19.8572 184.977 20.5327C182.78 21.5665 182.117 22.6821 181.533 22.9688C180.85 23.3066 179.632 20.7988 180.107 20.2462C180.968 19.2431 185.432 17.2267 189.223 15.9881C189.975 15.7425 193.232 14.7087 194.885 14.1764C195.657 13.9309 199.517 13.0505 200.002 12.5387C199.002 12.1191 196.488 12.3545 195.439 12.2624C194.004 12.1294 192.569 11.9655 191.124 11.9349C189.104 11.8837 187.996 9.07912 189.411 8.79254C190.074 8.6595 190.728 8.49564 191.381 8.32175C192.618 7.98385 193.846 7.58473 195.073 7.1958C197.399 6.45878 199.765 5.70141 202.15 5.21012C202.358 5.16912 203.813 4.9644 204.05 5.0054Z" fill="white"/>
<path d="M221.362 3.3815C221.908 3.2563 222.146 3.16955 222.554 3.57415C222.961 3.97874 223.209 4.59515 222.762 4.99975C222.375 5.35605 221.849 5.26944 221.402 5.23085C220.677 5.17311 220.021 5.30789 219.296 5.43322C217.995 5.66432 216.476 5.98217 215.949 6.34818C215.423 7.16695 214.847 8.87195 214.39 9.99886C213.824 11.3859 213.288 12.7826 212.801 14.1985C212.354 15.4893 211.957 16.7896 211.689 18.1189C211.54 18.8702 211.014 20.3825 209.822 19.9105C208.878 19.5349 208.67 17.7047 208.898 16.9149C209.315 15.4507 209.852 14.0156 210.378 12.59C210.825 11.3667 211.331 10.1529 211.62 8.88153C211.749 8.34216 212.156 7.61 211.828 7.61C211.292 7.61 209.921 8.43848 209.454 8.66959C208.352 9.20896 207.925 9.44978 206.882 10.1048C206.545 10.3264 206.038 10.7406 205.591 10.7406C205.085 10.7406 204.479 10.2011 204.231 9.80621C203.506 8.6503 204.638 8.10134 205.581 7.69675C207.021 7.08034 207.816 6.82023 209.315 6.3386C210.477 5.96288 212.543 5.4235 213.159 4.95159C213.566 4.2773 213.894 3.12139 214.182 2.38936C214.42 1.79212 214.609 0.88673 215.105 0.424391C216.257 -0.673647 217.211 0.578458 217.548 1.69579C217.777 2.44711 217.459 2.81312 217.181 3.47782C216.863 4.23872 216.615 4.20985 217.419 4.20985C218.025 4.20985 220.587 3.55486 221.362 3.3815Z" fill="white"/>
<path d="M234.576 6.03033C236.687 5.97065 238.552 6.40772 240.606 6.78512C241.184 6.89432 242.102 6.98376 242.547 7.46048C242.907 7.83787 243.068 9.0595 242.973 9.56598C242.803 10.4301 241.724 10.9366 241.099 11.3737C240.275 11.9596 239.452 12.5455 238.628 13.1315C236.924 14.3432 235.248 15.7337 233.421 16.7269C232.777 17.0745 231.546 18.0478 230.817 17.9982C230.666 17.9385 230.543 17.8492 230.439 17.7101C230.268 17.6208 230.098 17.6009 229.918 17.6405C229.378 17.5313 229.35 17.4817 229.123 16.9454C228.659 15.8628 229.606 13.2011 230.344 11.4332C230.581 10.8771 231.66 9.14881 231.442 8.57277C231.244 8.04639 230.552 7.97698 230.373 7.34126C229.899 5.6827 233.705 6.03033 234.576 6.03033C235.987 5.99055 233.847 6.03033 234.576 6.03033ZM235.04 8.1855C234.462 8.40403 234.122 8.80132 233.875 9.38723C233.298 10.7281 232.152 12.8832 231.944 14.3333C233.364 14.2737 235.106 12.2575 236.271 11.4332C237.549 10.5294 238.808 9.63554 239.991 8.60267C237.795 8.13584 235.901 7.85776 235.04 8.1855Z" fill="white"/>
<path d="M220.949 8.46778C220.615 9.28766 219.363 11.5348 219.688 12.0206C220.08 12.6179 222.391 10.1177 222.802 9.72291C223.805 8.74112 224.722 7.1721 225.896 6.44324C227.1 5.68417 228.055 7.36449 227.998 8.52846C227.959 9.24725 227.558 9.88495 227.3 10.5327C227.023 11.221 226.794 11.9296 226.603 12.6585C226.384 13.448 226.212 14.2476 226.059 15.0472C225.982 15.4118 225.849 15.8773 225.83 16.2519C225.82 16.4442 225.973 16.6972 225.906 16.8794C225.744 17.2742 224.712 17.6589 224.359 17.5982C223.757 17.4868 223.547 16.7884 223.318 16.2316C222.716 14.7942 223.671 12.9722 223.814 11.4741C222.916 11.8183 222.124 13.1341 221.465 13.863C220.548 14.8853 219.631 15.9179 218.724 16.9402C218.036 17.7196 217.501 18.5091 216.575 17.5779C215.725 16.7175 216.011 15.9077 216.221 14.8247C216.45 13.62 216.536 12.4155 216.88 11.2413C217.214 10.0975 217.616 8.96371 218.026 7.85035C218.361 6.9291 218.752 5.74486 219.917 6.04854C220.844 6.2914 220.901 7.26326 220.987 8.11348C220.997 8.26532 221.006 8.31594 220.949 8.46778Z" fill="white"/>
<path d="M259.935 10.7215C259.601 12.2054 258.609 13.3079 257.7 14.3997C256.708 15.5868 255.4 16.5939 254.167 17.4101C253.156 18.0779 251.524 18.3959 250.791 17.1662C249.892 15.6505 249.855 13.9439 250.207 12.2266C250.513 10.7426 251.051 9.33292 251.904 8.1562C252.331 7.56264 252.943 6.7253 253.638 6.59806C253.926 6.54506 254.278 6.78884 254.529 6.69352C254.77 6.6086 254.844 6.24828 254.964 6.04681C255.762 4.71123 257.023 4.73246 258.089 5.66526C259.351 6.75707 259.721 8.38943 259.981 10.0748C260.018 10.2657 260 10.4353 259.935 10.7215ZM253.583 10.9228C253.323 11.4528 251.515 15.2371 253.24 14.7495C253.787 14.5905 254.723 13.9227 255.131 13.5199C255.688 12.9687 256.114 12.1313 256.55 11.4528C256.939 10.8486 258.488 7.91242 256.949 7.88065C255.678 8.07142 254.733 8.52721 253.583 10.9228Z" fill="white"/>
<path d="M244.027 16.9461C243.433 16.3716 242.916 15.4071 243.011 14.535C243.136 13.4168 244.008 12.042 244.44 11.016C244.928 9.86685 246.519 4.61398 248.369 6.34784C250.008 7.88684 248.014 10.3594 247.334 11.765C246.778 12.9141 246.328 14.0837 245.906 15.284C245.791 15.6123 245.695 16.1355 245.503 16.4126C245.235 16.7922 244.718 16.8743 244.296 16.9974C244.238 17.0076 244.066 16.9871 244.027 16.9461Z" fill="white"/>
<path d="M250.994 3.64368C250.747 4.47359 250.458 5.22633 249.346 4.93681C248.563 4.73419 248.079 3.90428 248.007 3.18047C247.832 1.20205 251.056 1.95479 250.994 3.64368C251.025 2.88134 250.922 3.89455 250.994 3.64368Z" fill="white"/>
<path d="M27.3473 20.8028C28.4147 20.4428 32.5399 19.8701 32.5399 13.7485C32.5399 4.75207 24.1631 5.04723 22.8543 5.04132C15.738 5.01181 0.859863 5 0.859863 5L0.877961 38.66H10.1474L10.1292 25.667H23.0293L23.0473 38.6541L32.2745 38.6481C32.2745 38.6481 32.4072 30.2715 32.0573 26.6529C31.8221 24.2385 30.3266 21.5407 27.3473 20.8028ZM23.0232 18.6954H10.1233V12.0838H23.0232V18.6954Z" fill="white"/>
<path d="M138.84 5H136.426C132.646 5 129.534 7.81681 129.072 11.4663C128.605 7.81681 125.493 5 121.712 5H120.198C116.417 5 113.305 7.81681 112.844 11.4663V5H103.78V38.66H112.844V12.4111H120.073V38.66H129.137V12.4111H136.296V38.66H145.36V11.5076C145.36 7.91129 142.443 5 138.84 5Z" fill="white"/>
<path d="M57.2185 5H43.4615C38.5109 5 34.5 9.13295 34.5 14.2342V29.4259C34.5 34.5269 38.5109 38.66 43.4615 38.66H57.2185C62.1691 38.66 66.18 34.5269 66.18 29.4259V14.2342C66.18 9.13295 62.1691 5 57.2185 5ZM57.2072 31.2148H43.4728V12.4452H57.2015V31.2148H57.2072Z" fill="white"/>
<path d="M91.8587 5H78.1016C73.151 5 69.1401 9.13295 69.1401 14.2342V29.4259C69.1401 34.5269 73.151 38.66 78.1016 38.66H91.8587C96.8092 38.66 100.82 34.5269 100.82 29.4259V14.2342C100.82 9.13295 96.8092 5 91.8587 5ZM91.8474 31.2148H78.1186V12.4452H91.8474V31.2148Z" fill="white"/>
<path d="M174.307 20.4305C176.636 19.0427 178.204 16.4916 178.204 13.5626V12.9721C178.204 8.56677 174.664 5 170.304 5H156.004C151.638 5 148.104 8.57269 148.104 12.9721V13.5626C148.104 16.4916 149.672 19.0427 152.001 20.4305C149.198 22.1312 147.32 25.2136 147.32 28.7568V28.9459C147.32 34.3137 151.632 38.66 156.946 38.66H169.374C174.693 38.66 179 34.3078 179 28.9459V28.7568C178.988 25.2196 177.11 22.1312 174.307 20.4305ZM156.992 12.4111H169.31V18.2101H156.992V12.4111ZM169.836 31.2134H156.466V25.196H169.836V31.2134Z" fill="white"/>
</svg>
