<svg width="1774" height="300" viewBox="0 0 1774 300" fill="none" xmlns="http://www.w3.org/2000/svg">
<path fill-rule="evenodd" clip-rule="evenodd" d="M206.409 2.83983C199.882 1.48576 188.043 0.808722 173.169 0.944129H173.017C156.777 0.944129 146.152 1.75657 137.045 3.51686C129.912 4.87093 118.68 7.84988 112.002 10.2872C105.323 12.5891 95.0022 17.0575 89.2345 20.1719C83.3151 23.2863 72.8423 30.192 65.7087 35.4729C58.575 40.7537 49.3165 49.0136 45.0666 53.7528C40.8168 58.492 35.3527 65.127 32.7725 68.5122C30.1922 71.8973 25.9424 78.5323 23.2103 83.4069C20.4783 88.2816 16.6838 96.1352 14.7107 101.01C12.7375 105.884 10.1573 114.28 8.79125 119.561C7.27345 126.06 6.51455 136.622 6.51455 150.027C6.51455 162.891 7.42523 174.4 8.79125 180.223C10.0055 185.368 12.8893 194.305 15.166 199.857C17.2909 205.409 21.5408 213.939 24.4246 218.814C27.3084 223.688 32.3171 230.865 35.5045 234.656C38.8436 238.583 41.8792 241.833 42.4864 241.833C43.2453 241.698 49.1647 237.635 55.9948 232.625C57.6254 231.402 59.6723 229.864 61.9808 228.129C69.1268 222.759 78.7792 215.506 86.3507 209.877C96.2164 202.294 105.779 194.847 107.448 193.222C109.118 191.597 111.698 190.243 113.064 190.378C114.582 190.378 116.1 190.92 116.555 191.732C117.01 192.545 117.01 194.305 116.555 195.795C116.1 197.284 114.43 198.774 112.76 199.18C111.091 199.586 109.421 200.94 108.966 202.159C108.359 203.919 110.332 206.356 115.341 210.283C119.439 213.397 127.028 218.137 132.492 220.709C137.956 223.147 146.456 225.99 151.464 226.938C156.928 227.886 163.91 228.157 168.919 227.615C173.472 227.074 178.633 225.99 180.302 225.313C181.972 224.501 185.615 222.064 188.347 219.626C191.079 217.324 193.963 213.127 194.722 210.283C195.784 206.898 195.632 204.054 194.57 201.482C193.659 199.451 191.534 196.472 189.713 194.711C187.891 192.951 182.276 189.295 177.267 186.452C172.258 183.608 160.571 177.108 151.464 172.098C142.206 167.088 130.974 160.318 126.421 157.068C121.867 153.954 115.037 147.454 111.394 142.715C107.6 138.111 103.198 130.799 101.529 126.737C99.7073 122.133 98.3413 114.28 97.886 106.426C97.4307 98.7079 98.0378 90.5835 99.1002 86.1151C100.163 82.0528 102.591 75.5533 104.413 71.8973C106.234 68.1059 110.787 61.471 114.582 57.0026C118.376 52.5341 126.117 45.7638 131.885 41.9724C137.652 38.0456 145.697 33.4418 149.946 31.5461C154.045 29.6504 162.696 26.8068 168.919 25.0466C178.178 22.6092 183.945 21.9322 199.275 21.9322C213.542 21.9322 220.524 22.4738 227.354 24.3695C232.363 25.7236 240.863 28.8379 246.327 31.1399C251.791 33.5772 259.228 37.504 263.022 39.9413C266.817 42.2432 273.495 47.2533 277.745 51.0447L285.789 57.6796C292.771 52.3987 295.959 50.9093 297.173 50.9093C298.387 50.9093 299.905 51.9925 300.512 53.2112C301.271 54.9715 299.601 57.0026 294.744 60.794C291.102 63.6375 280.325 71.8973 270.763 79.0739C261.353 86.2505 249.666 95.0519 244.961 98.5725C240.255 102.093 235.702 105.072 234.943 105.072C234.032 105.207 232.363 104.124 231.149 102.906C229.024 100.874 229.479 100.333 234.791 96.406L240.559 92.2084C232.666 85.3026 225.229 81.105 219.158 78.2614C209.444 73.9284 206.409 73.2514 197.909 73.2514C190.168 73.3868 186.374 74.1992 181.213 76.6366C177.57 78.5323 173.169 81.5112 171.651 83.4069C169.981 85.3026 168.312 89.5002 167.856 92.8854C167.098 98.4371 167.553 99.5203 172.106 104.26C175.142 107.239 190.016 116.582 208.23 126.602C225.077 135.945 242.38 146.371 246.327 149.756C250.273 153.141 255.282 158.558 257.407 161.943C259.531 165.328 262.415 171.692 263.781 176.161C264.996 180.629 266.058 189.43 266.058 195.795C266.058 202.159 264.996 210.96 263.781 215.429C262.415 219.897 259.228 227.48 256.648 232.354C253.46 238.312 248.148 244.406 240.407 251.447C231.908 259.03 225.685 263.227 216.73 267.154C210.051 270.133 198.82 273.924 191.686 275.549C184.552 277.31 171.955 278.934 163.607 279.341C152.679 279.882 144.634 279.476 134.768 277.716C127.18 276.497 117.314 274.195 112.76 272.57C108.207 271.081 99.7073 267.289 93.9397 264.311C88.1721 261.196 78.3064 254.426 71.9316 249.01L60.3964 239.396L48.254 248.332L41.5757 242.51C28.2191 252.936 22.1479 257.676 19.5676 259.707C16.3802 262.144 12.7375 263.363 8.03235 263.769L1.20226 264.175L0.443359 282.455H21.6925V268.914L47.4951 249.957C65.1016 264.581 75.2708 271.758 81.1902 275.278C87.2614 278.799 96.9753 283.538 102.895 285.976C108.662 288.413 119.591 291.933 127.18 293.829C134.617 295.86 148.125 298.027 157.08 298.704C167.705 299.652 178.936 299.652 188.954 298.704C197.605 298.027 209.748 296.267 215.971 294.777C222.194 293.423 231.756 290.579 237.22 288.548C242.684 286.517 251.184 282.726 256.192 280.153C261.201 277.58 269.701 272.435 275.165 268.914C280.629 265.394 289.129 258.623 294.137 253.884C299.146 249.145 307.19 240.073 311.896 233.709C316.601 227.344 322.824 217.595 325.707 212.043C328.591 206.492 332.689 196.065 334.966 189.024C337.091 181.983 338.912 174.807 338.912 173.046C338.912 170.744 339.823 169.932 343.162 169.661C345.439 169.526 659.927 169.526 1041.96 169.661L1736.8 170.067L1737.56 181.577L1773.23 182.254V149.756H1736.8V161.943H341.189C339.519 132.289 337.85 120.508 336.029 114.55C334.511 108.999 331.323 100.062 329.047 94.9165C326.922 89.771 322.975 82.0528 320.395 77.9906C317.815 73.9284 312.806 67.1581 309.163 63.0959L302.637 55.6485C331.323 33.7126 332.386 33.171 339.216 33.3064H346.501V12.9953H323.734C323.886 25.7236 323.583 26.1298 310.681 37.3686L297.628 48.8782C287.914 40.2121 280.174 34.3896 274.406 30.4628C268.487 26.4006 257.558 20.3073 250.121 16.7867C242.532 13.4016 232.059 9.20395 226.595 7.57907C221.131 6.08959 212.176 3.92308 206.409 2.83983ZM476.121 58.0858C472.934 57.138 465.952 56.4609 460.488 56.4609C455.024 56.4609 448.497 57.138 446.069 57.9504C443.489 58.7629 439.239 60.9294 436.355 62.9605C433.471 64.8562 430.132 68.5122 429.07 70.8141C428.007 73.2514 427.096 77.449 427.096 80.0217C427.096 82.5945 428.159 86.5213 429.373 88.8232C430.587 91.1251 434.534 94.6457 438.025 96.6768C441.667 98.8433 448.649 101.958 453.506 103.853C458.515 105.614 463.372 108.457 464.586 110.082C466.104 112.655 466.256 113.738 464.586 115.905C463.675 117.394 460.64 119.29 458.211 120.238C454.72 121.456 451.685 121.456 444.551 120.238C441.025 119.57 437.349 118.97 434.952 118.579C433.944 118.414 433.162 118.287 432.712 118.206C430.739 118.071 429.373 119.425 427.704 123.352C427.521 123.863 427.339 124.37 427.162 124.862C426.308 127.238 425.579 129.267 425.579 129.716C425.579 130.393 428.159 131.883 431.194 133.101C435.141 134.591 441.212 135.403 450.622 135.403C461.854 135.403 465.345 134.997 470.657 132.424C474.3 130.799 478.853 127.414 480.978 124.977C483.103 122.675 485.228 118.477 485.683 115.905C486.291 113.332 485.835 108.863 484.925 106.02C484.014 103.312 480.978 99.1141 478.246 96.8122C475.666 94.3749 470.354 91.2605 466.559 89.9064C462.765 88.417 457.301 86.1151 454.417 84.761C451.533 83.4069 448.346 81.2404 447.587 80.1571C446.524 78.6677 446.98 77.1782 449.863 74.6055C453.203 71.3557 454.569 71.0849 462.006 71.6265C466.559 71.8973 471.871 72.5744 473.693 73.116C476.577 73.793 477.487 73.116 479.46 69.1892C480.675 66.6165 481.737 63.3667 481.737 62.0126C481.737 60.5231 479.916 59.1691 476.121 58.0858ZM707.889 57.815C704.094 57.0026 697.264 56.4609 692.711 56.5963C688.158 56.7318 680.72 57.0026 676.319 57.2734L668.426 57.6796V134.862H688.158V108.457C706.978 106.697 711.987 105.343 716.844 102.635C720.942 100.468 724.737 96.8122 726.558 93.5624C728.531 90.1773 729.594 85.5734 729.594 81.3758C729.594 77.5844 728.531 72.5744 727.013 70.137C725.647 67.8351 722.308 64.3145 719.576 62.5543C716.996 60.6586 711.683 58.6274 707.889 57.815ZM940.871 60.1169C936.469 58.0858 931.461 57.2734 922.657 57.0026C915.979 56.8672 906.569 56.8672 901.712 57.138L893.06 57.6796V133.101C893.06 133.778 897.31 134.184 902.471 134.184H912.033L911.274 105.072C923.568 105.072 925.389 105.749 927.211 108.051C928.425 109.811 931.005 116.311 932.827 122.675L936.318 134.184C950.433 134.726 954.987 134.455 955.745 133.914C956.353 133.237 955.442 127.956 953.621 121.998C951.799 116.04 949.371 109.405 948.156 107.103C946.79 104.801 944.666 101.958 943.3 100.604C941.023 98.3017 941.175 97.8954 944.817 95.1873C947.094 93.5624 949.978 90.7189 951.344 88.8232C952.862 86.7921 953.924 82.5945 953.924 78.6677C953.924 73.793 952.862 70.6787 950.433 67.4289C948.46 64.9916 944.21 61.6064 940.871 60.1169ZM1122.55 57.9504C1119.52 57.138 1112.08 56.3255 1106.31 56.3255C1098.57 56.3255 1093.87 57.138 1088.86 59.3045C1084.91 60.9294 1080.36 64.45 1077.93 67.6997C1074.74 71.7619 1073.53 74.8763 1073.53 79.3447C1073.53 83.8131 1074.74 86.7921 1077.93 90.8543C1080.36 93.9686 1085.21 97.4892 1089.01 99.1141C1092.65 100.739 1098.87 103.312 1102.82 104.937C1106.92 106.561 1110.56 108.863 1111.02 110.082C1111.62 111.436 1111.62 113.738 1111.17 115.228C1110.71 116.717 1108.59 118.748 1106.46 119.561C1104.34 120.508 1100.24 121.321 1097.51 121.321C1094.93 121.185 1089.01 120.238 1084.76 118.884L1076.87 116.582C1071.86 129.851 1071.86 130.258 1074.59 131.883C1076.26 132.695 1081.27 134.184 1085.82 134.997C1090.37 135.809 1098.11 136.216 1102.82 135.674C1107.68 135.268 1114.36 133.643 1117.69 132.153C1121.03 130.664 1125.44 127.414 1127.56 124.977C1129.53 122.675 1131.66 117.936 1132.11 114.55C1132.87 109.676 1132.27 107.239 1129.53 102.364C1127.26 98.3017 1123.77 95.1873 1119.21 92.8854C1115.42 90.8543 1109.95 88.5524 1107.07 87.6045C1104.19 86.6567 1099.94 84.761 1097.51 83.2715C1095.23 81.9174 1093.41 79.7509 1093.41 78.6677C1093.41 77.5844 1094.93 75.4179 1096.75 73.9284C1099.03 72.3036 1102.52 71.3557 1106.61 71.2203C1110.26 71.2203 1115.57 72.1681 1118.45 73.2514C1123.61 75.1471 1123.77 75.1471 1125.13 72.1681C1125.89 70.5433 1126.95 67.0227 1127.41 64.3145C1128.17 59.7107 1128.02 59.4399 1122.55 57.9504ZM1233.35 60.1169C1228.34 58.0858 1222.88 57.138 1214.83 56.8672C1208.61 56.7318 1199.5 56.8672 1194.65 57.138L1186 57.6796V134.862H1205.73V108.457C1222.12 106.832 1229.56 105.207 1232.59 103.853C1235.78 102.499 1239.88 99.7911 1241.7 98.0309C1243.52 96.406 1245.64 93.2916 1246.56 91.1251C1247.47 89.094 1248.23 84.6256 1248.23 80.9696C1248.23 76.6366 1247.01 72.7098 1244.43 68.783C1241.7 64.7208 1238.51 62.2834 1233.35 60.1169ZM1521.28 78.6677C1515.36 68.9184 1509.44 60.1169 1508.07 59.0337C1506.25 57.5442 1502.61 57.138 1495.17 57.4088L1485 57.6796V134.862H1503.22C1502.61 92.75 1503.06 83.4069 1503.97 83.4069C1504.73 83.2715 1506.55 85.3026 1507.77 87.7399C1508.98 90.1772 1515.36 101.01 1521.88 111.842C1528.41 122.675 1534.63 132.289 1535.54 133.237C1536.61 134.32 1541.01 134.997 1546.78 134.862H1556.34V57.6796H1537.37C1538.58 95.7289 1538.43 103.583 1537.37 103.312C1536.61 103.041 1534.94 101.416 1533.87 99.5203C1533.68 99.1986 1533.33 98.6234 1532.86 97.8387C1530.75 94.3308 1526.11 86.6348 1521.28 78.6677ZM559.145 57.6796H539.413V85.1672C539.413 111.436 539.565 112.79 543.208 119.696C545.788 124.3 549.127 128.091 553.529 130.799C557.931 133.643 562.484 135.132 568.252 135.674C573.109 136.216 580.09 135.809 584.947 134.862C591.322 133.507 594.813 131.883 599.518 127.55C603.92 123.758 606.652 119.696 608.321 114.55C610.143 108.863 610.75 101.281 610.75 82.4591V57.6796H589.197L588.742 114.821C582.064 120.102 578.421 121.321 575.537 121.321C572.805 121.321 569.01 120.373 567.189 119.29C565.216 118.206 562.636 115.498 561.422 113.196C559.6 109.947 559.145 103.583 559.145 83.4069V57.6796ZM836.902 57.6796H782.261V134.862H838.42V119.967H803.51V102.364H835.384V87.4691H803.51V72.5744H836.902V57.6796ZM1321.08 57.6796H1301.35V134.862H1355.99V119.967H1321.08V57.6796ZM1427.33 57.6796H1407.59V134.862H1427.33V57.6796ZM1668.66 57.6796H1614.01V134.862C1668.05 134.184 1669.41 134.049 1669.87 131.476C1670.17 129.987 1670.02 126.737 1669.57 124.3L1668.66 119.967H1633.75V102.364H1665.62V87.4691H1633.75V72.5744H1668.66V57.6796ZM461.702 199.044C460.336 197.555 457.301 197.013 451.381 197.149C446.828 197.284 441.971 197.69 440.757 198.097C439.542 198.503 436.659 200.398 434.23 202.294C431.194 204.867 430.132 207.169 430.132 210.689C430.132 213.262 431.194 216.783 432.409 218.408C433.623 220.032 438.783 223.282 443.792 225.584C448.801 227.751 453.203 230.188 453.658 231C454.113 231.677 453.203 233.302 451.836 234.521C449.712 236.146 447.283 236.552 441.515 236.01C437.417 235.469 433.168 235.604 432.257 236.146C431.346 236.552 430.284 238.042 429.677 239.396C429.07 240.75 429.525 242.645 430.891 243.864C432.409 245.218 436.355 245.76 443.489 245.76C450.926 245.76 455.024 245.083 458.667 243.052C461.854 241.427 464.131 238.583 465.345 235.333C466.711 231 466.559 229.646 464.131 225.584C462.158 222.47 458.363 219.626 452.14 216.783C446.98 214.481 442.881 211.502 442.73 210.283C442.426 208.794 443.64 207.575 445.765 207.033C447.587 206.627 451.685 206.627 454.872 207.033C459.881 207.846 460.64 207.575 462.006 204.596C463.22 202.159 463.068 200.669 461.702 199.044ZM666.15 201.888V197.826C635.49 197.149 625.928 197.42 625.169 197.961C624.562 198.503 624.107 200.669 624.107 202.7C624.41 206.356 624.865 206.627 631.24 206.627H638.07L638.829 245.218L651.731 245.895L652.489 207.304C665.694 205.95 666.15 205.679 666.15 201.888ZM839.937 215.835L839.179 197.826C829.616 197.013 827.643 197.555 826.884 199.044C826.125 200.128 825.974 208.252 826.429 217.053C826.884 228.969 827.795 233.979 829.768 237.094C831.286 239.26 834.625 242.239 837.357 243.729C840.545 245.354 844.946 246.166 849.803 246.166C854.66 246.031 858.758 245.218 861.035 243.593C863.008 242.239 866.044 239.396 867.865 237.229C870.597 234.115 871.204 231.136 871.659 218.949C871.963 211.096 871.811 202.836 871.204 200.805C870.445 197.555 869.686 197.149 864.222 197.149H858.151C858.151 230.459 857.847 232.625 855.115 235.063C853.446 236.417 850.866 237.771 849.5 237.771C847.982 237.771 845.401 236.823 843.732 235.875C841 234.115 840.696 231.813 839.937 215.835ZM1066.09 198.638C1063.21 197.69 1055.92 197.013 1050 197.013C1042.72 197.013 1038.41 197.645 1037.1 198.909C1035.58 200.398 1035.28 205.95 1035.89 223.011L1036.49 245.218C1060.78 245.083 1065.18 244.541 1069.73 242.375C1073.07 240.885 1077.02 237.906 1078.84 235.74C1080.81 233.167 1082.18 228.698 1082.63 224.23C1082.94 220.032 1082.48 214.616 1081.57 212.043C1080.66 209.335 1077.93 205.679 1075.65 203.648C1073.37 201.753 1068.97 199.451 1066.09 198.638ZM1252.02 197.149H1246.71L1246.4 218.814C1246.1 230.73 1245.95 241.427 1245.95 242.781C1245.95 244.677 1247.47 245.218 1252.48 245.489L1258.85 245.895C1258.85 211.231 1258.55 200.263 1258.09 199.18C1257.64 197.826 1255.36 197.149 1252.02 197.149ZM1460.57 200.128C1456.77 197.826 1453.28 197.013 1447.82 197.149C1443.41 197.149 1437.8 198.367 1434.46 199.857C1431.12 201.346 1427.17 204.867 1425.05 208.252C1422.16 212.585 1421.25 215.97 1421.25 221.793C1421.25 226.126 1422.16 231.271 1423.38 233.302C1424.44 235.333 1427.48 238.719 1429.75 240.75C1432.18 242.781 1436.43 245.083 1439.47 245.76C1442.35 246.572 1447.51 246.708 1450.85 246.166C1454.19 245.624 1458.9 243.999 1461.48 242.51C1463.9 241.021 1467.55 236.958 1469.52 233.573C1472.25 228.834 1472.86 225.99 1472.4 220.168C1472.1 215.97 1470.43 210.554 1468.76 207.981C1467.09 205.273 1463.45 201.753 1460.57 200.128ZM1664.86 197.826C1663.49 197.42 1658.94 197.149 1654.54 197.149C1649.28 197.149 1644.98 198.051 1641.64 199.857C1638.91 201.346 1636.02 203.784 1635.26 205.273C1634.35 206.627 1633.75 209.742 1633.75 212.043C1633.75 214.345 1635.11 217.324 1637.09 219.22C1638.91 220.98 1644.07 223.959 1648.47 225.99C1652.87 227.886 1656.82 230.188 1657.27 231C1657.58 231.677 1657.12 233.302 1656.06 234.386C1654.69 236.01 1651.96 236.417 1644.83 236.146C1639.67 235.875 1635.11 236.01 1634.81 236.417C1634.35 236.687 1633.59 238.448 1633.14 240.073C1632.38 242.51 1632.99 243.458 1636.02 244.541C1638 245.218 1643.46 245.895 1648.16 245.895C1652.72 245.895 1658.49 244.947 1661.07 243.864C1663.49 242.645 1666.53 239.937 1667.9 237.771C1669.11 235.469 1670.17 232.084 1670.17 230.323C1670.17 228.428 1668.5 225.178 1666.53 223.147C1664.56 221.116 1659.55 218.001 1655.15 216.376C1650.9 214.752 1646.8 212.314 1646.19 211.231C1645.43 209.877 1645.89 208.523 1647.41 207.71C1648.62 207.033 1652.87 206.627 1656.82 206.898C1660.91 207.033 1664.86 206.627 1665.62 205.95C1666.38 205.138 1667.14 203.107 1667.14 201.482C1667.14 199.857 1666.07 198.097 1664.86 197.826ZM911.578 81.105C911.122 71.7619 911.274 71.2203 914.613 70.6787C916.435 70.4079 920.381 70.4078 923.265 70.8141C926.604 71.0849 929.791 72.7098 931.916 75.0117C933.889 77.0428 935.407 79.6155 935.407 80.6988C935.559 81.782 933.737 84.3548 931.612 86.5213C929.488 88.5524 926.3 90.5835 924.479 90.9897C922.506 91.3959 919.015 91.5313 911.881 90.8543L911.578 81.105ZM1205.58 71.2203L1209.82 70.9495C1212.1 70.6787 1215.9 70.8141 1218.32 71.2203C1220.75 71.6265 1223.94 73.3868 1225.61 75.2825C1227.13 77.1782 1228.49 79.7509 1228.34 81.105C1228.34 82.3237 1227.28 85.3026 1226.07 87.4691C1224.85 89.771 1222.27 91.8021 1220.45 92.2084C1218.48 92.6146 1215.59 93.0208 1213.92 93.1562H1208.31C1205.88 92.8854 1205.58 91.3959 1205.58 71.2203ZM690.738 93.5624C688.461 93.0208 688.006 91.2605 688.006 82.0528V71.2203H695.595C701.97 71.2203 703.791 71.8973 707.13 75.0117C710.166 77.8552 710.773 79.4801 710.014 82.7299C709.559 85.0318 707.586 88.1461 705.764 89.771C703.943 91.5313 700.452 93.1562 697.872 93.5624C695.443 93.9687 692.104 93.9687 690.738 93.5624ZM1434.91 221.387C1434.91 214.345 1435.52 212.72 1439.32 209.2C1441.74 207.033 1444.32 205.273 1445.24 205.273C1446.15 205.273 1448.42 205.95 1450.4 206.627C1452.22 207.44 1454.95 209.877 1456.47 212.043C1457.83 214.345 1459.05 218.543 1459.05 221.522C1459.05 224.501 1457.98 228.698 1456.77 231C1455.56 233.302 1453.13 235.604 1451.46 236.417C1449.79 237.229 1447.36 237.771 1446.15 237.771C1444.93 237.771 1441.9 236.01 1439.32 233.709C1435.22 230.053 1434.76 228.834 1434.91 221.387ZM1049.24 237.094C1048.33 236.687 1047.72 230.053 1047.72 221.522V206.627H1054.55C1060.02 206.627 1062.14 207.304 1065.18 210.419C1067.3 212.45 1069.43 215.564 1069.88 217.46C1070.34 219.355 1070.34 222.876 1069.88 225.313C1069.43 227.615 1067.15 231 1064.88 232.761C1062.45 234.521 1058.35 236.281 1055.77 236.823C1053.04 237.365 1050.15 237.5 1049.24 237.094Z" fill="white"/>
</svg>
