<svg width="233" height="109" viewBox="0 0 233 109" fill="none" xmlns="http://www.w3.org/2000/svg">
<path fill-rule="evenodd" clip-rule="evenodd" d="M138.418 85.3869L146.913 99.9484L153.313 99.5355L138.418 108.689V85.3869ZM170.238 21.6759C188.336 21.6759 203.007 36.3474 203.007 54.4454C203.007 72.5435 188.336 87.2149 170.238 87.2149C152.14 87.2149 137.468 72.5434 137.468 54.4454C137.468 36.3474 152.14 21.6759 170.238 21.6759ZM108.591 65.4152V70.0181C108.591 71.3038 109.454 71.6985 110.74 71.6985C112.025 71.6985 112.887 71.3038 112.887 70.0181V65.4152H114.393V70.0181C114.393 72.2391 112.858 73.2182 110.754 73.2182H110.725C108.621 73.2182 107.086 72.2391 107.086 70.0181V65.4152H108.591ZM69.8994 65.1665C71.01 65.1665 72.1058 65.4879 72.9389 66.1167L71.9305 67.2858C71.3609 66.8911 70.6156 66.6863 69.8994 66.6863C68.4384 66.6863 67.0209 67.4898 67.0209 69.1995C67.0209 70.9092 68.4675 71.6985 69.9141 71.6985C70.4548 71.6985 71.01 71.5671 71.507 71.3038V70.0913H70.7325L70.0892 68.6738H72.9973V72.1367C72.1645 72.8528 71.0394 73.2182 69.8848 73.2182C67.5906 73.2182 65.4283 71.7278 65.4283 69.1703C65.4283 66.5989 67.6347 65.1665 69.8994 65.1665ZM97.4181 65.1664C99.6976 65.1664 101.89 66.4963 101.89 69.1269C101.89 71.6986 99.6976 73.2183 97.4035 73.2183C95.1093 73.2183 92.947 71.7277 92.947 69.1704C92.947 66.5988 95.1532 65.1664 97.4181 65.1664ZM84.0852 65.4152C85.4731 65.4152 86.4669 66.3798 86.4669 67.6947C86.4669 68.8488 85.824 69.565 84.7281 69.9014L85.1957 70.6901C85.5609 71.3038 86.0867 71.3624 86.4669 71.3624H86.9928V72.9842H86.3353C85.5463 72.9842 84.8301 72.926 84.129 71.786L82.9597 69.8865H82.8577C81.674 69.8865 81.3525 70.0032 80.7387 70.3247V72.9842H79.2044V65.4152H84.0852ZM125.816 65.4152C127.277 65.4152 128.285 66.3505 128.285 67.8113C128.285 69.3019 127.248 70.2519 125.553 70.2519H124.881C123.493 70.2519 123.156 70.3396 122.499 70.6901V72.9842H121.008V65.4152H125.816ZM97.4181 66.7154C95.9569 66.7154 94.525 67.4898 94.525 69.1995C94.525 70.9092 95.9862 71.6838 97.4326 71.6838C98.865 71.6838 100.311 70.7777 100.311 69.1413C100.311 67.4465 98.85 66.7154 97.4181 66.7154ZM125.553 66.9202H122.499V69.1853C123.156 68.8055 124.004 68.7465 124.881 68.7465H125.553C126.269 68.7465 126.751 68.615 126.751 67.7971C126.751 67.0518 126.167 66.9202 125.553 66.9202ZM83.8221 66.9202H80.7387V68.8199C81.3233 68.4982 82.0685 68.3817 82.8577 68.3817H84.0852C84.5379 68.3817 84.9325 68.1328 84.9325 67.6506C84.9325 66.9786 84.3479 66.9202 83.8221 66.9202ZM221.176 47.6383L232.371 54.1013L221.605 60.3168L225.786 54.4453L221.176 47.6383ZM17.1397 47.6328V52.2356C17.1397 53.5214 18.0021 53.916 19.2878 53.916C20.5736 53.916 21.4358 53.5214 21.4358 52.2356V47.6328H22.9408V52.2356C22.9408 54.4566 21.4064 55.4358 19.3023 55.4358H19.2732C17.1688 55.4358 15.6345 54.4566 15.6345 52.2356V47.6328H17.1397ZM53.3235 47.6328V55.202H51.8329V47.6328H53.3235ZM87.8475 47.4572L91.9392 55.2019H90.2879L89.6886 54.0619H88.7826C86.9123 54.0619 84.969 54.7928 84.7204 55.1144L84.6768 55.2019H83.0987L86.7223 48.4072L86.2256 47.4572H87.8475ZM1.84116 47.6328L5.07055 51.9141L8.29962 47.6328H10.1409L9.39565 48.8454V55.202H7.74465V50.774L5.07055 54.3399L2.39662 50.774V55.202H0.745295V48.8454L0 47.6328H1.84116ZM114.115 47.6327V49.1377H109.644V50.9789C110.301 50.5992 111.134 50.5408 112.011 50.5408H113.121V52.0456H112.011C110.623 52.0456 110.301 52.1331 109.644 52.4837V53.6821H114.393V55.2019H108.153V47.6327H114.115ZM96.6878 47.6327L98.7042 50.6134L100.779 47.6327H102.591L99.4641 52.148V55.2019H97.9738V52.148L94.7881 47.6327H96.6878ZM65.1319 47.6327C66.593 47.6327 67.6014 48.568 67.6014 50.0288C67.6014 51.5194 66.5639 52.4694 64.8688 52.4694H64.1967C62.8085 52.4694 62.4725 52.5569 61.815 52.9077V55.2019H60.3244V47.6327H65.1319ZM125.085 47.6328C126.473 47.6328 127.467 48.5972 127.467 49.9122C127.467 51.0664 126.824 51.7824 125.728 52.1188L126.196 52.9076C126.561 53.5214 127.087 53.5798 127.467 53.5798H127.993V55.2018H127.335C126.547 55.2018 125.83 55.1435 125.129 54.0034L123.96 52.1039H123.858C122.674 52.1039 122.353 52.2207 121.739 52.5421V55.2018H120.205V47.6328H125.085ZM74.5608 47.6327V53.682H78.5793V55.2019H72.9973V47.6327H74.5608ZM31.2329 47.6327V53.682H35.2514V55.2019H29.6694V47.6327H31.2329ZM46.2644 47.6327V49.1377H43.415V55.2019H41.9099V49.1377H39.1628V47.6327H46.2644ZM87.4969 49.883L85.6997 53.3463C86.1819 53.0975 87.2045 52.6885 88.7682 52.6885H88.9726L87.4969 49.883ZM64.8688 49.1377H61.815V51.4027C62.4725 51.023 63.3198 50.964 64.1967 50.964H64.8688C65.585 50.964 66.0672 50.8323 66.0672 50.0145C66.0672 49.2692 65.4826 49.1377 64.8688 49.1377ZM124.822 49.1376H121.739V51.0371C122.323 50.7157 123.069 50.5991 123.858 50.5991H125.085C125.538 50.5991 125.933 50.3502 125.933 49.868C125.933 49.196 125.348 49.1376 124.822 49.1376ZM102.24 31.1006V32.6054H99.391V38.6696H97.8859V32.6054H95.1388V31.1006H102.24ZM109.643 31.1006V34.1253C109.921 33.9936 110.228 33.9353 110.535 33.9353C111.163 33.9353 112.055 34.1544 112.815 34.1544C113.136 34.1544 113.457 34.1104 113.765 33.9645V31.1006H115.254V38.6696H113.765V35.4984C113.472 35.645 113.18 35.6884 112.873 35.6884C112.084 35.6884 111.339 35.4842 110.594 35.4842C110.257 35.4842 109.951 35.5277 109.643 35.6592V38.6696H108.153V31.1006H109.643ZM127.789 31.1005V32.6055H123.317V34.4467C123.975 34.067 124.808 34.0086 125.685 34.0086H126.795V35.5134H125.685C124.296 35.5134 123.975 35.6009 123.317 35.9515V37.1499H128.066V38.6696H121.827V31.1005H127.789ZM138.767 0L154.584 9.13174L146.981 9.09969L138.767 22.6581V0Z" fill="white"/>
</svg>
