<svg width="1085" height="256" viewBox="0 0 1085 256" fill="none" xmlns="http://www.w3.org/2000/svg">
<g clip-path="url(#clip0_658_504)">
<path fill-rule="evenodd" clip-rule="evenodd" d="M-9.76548e-05 0L58.4999 0.5L58.9999 25L55.7999 24.6C53.9999 24.4 40.6999 22.9 -9.76548e-05 18.5V0ZM103 0H132C156.9 0 161 0.2 161.5 1.5C161.7 2.4 162 10.7 162 20C162 33 161.7 37 160.7 37C160 37 148.2 35.7 134.5 34C120.7 32.4 108 30.8 103 30V0ZM205 0L265.5 0.5L266 51L263.7 50.5C262.5 50.3 249.1 48.4 234 46.5C218.8 44.5 206.1 42.7 205.7 42.4C205.3 42.2 205 32.6 205 21V0ZM281 0H340V30.5C340 47.3 339.8 61 339.7 61C339.6 61 326.9 59.2 311.5 57.1C296.1 54.9 282.9 53.1 282.2 53.1C281.2 53 281 47.1 281 26.5V0ZM475.5 0.5L475.7 40.8C475.9 72.5 475.7 81 474.7 81.1C474 81.1 461.5 79.2 447 77C432.4 74.8 419.4 72.8 416 72L415.8 37.2C415.6 8.3 415.8 2.2 417 1.2C418 0.3 425.6 0.1 475.5 0.5ZM662 0V54L575.1 54.5L602 80C616.8 94.1 628.7 105.8 628.5 106C628.3 106.3 606.9 102.9 533.8 90.5L520.5 77.5C509 66.3 506.7 63.5 503.4 56.6C499.6 49 499.5 48.3 499.5 38.6C499.5 29.7 499.8 27.9 502.1 23C503.6 20 507.2 15.3 510.1 12.5C513.1 9.7 517.4 6.4 519.7 5.2C522 4 526.3 2.4 529.2 1.6C533.5 0.4 546.1 0.2 662 0ZM677.9 0H738V70L815.5 69.5L816.1 0L874.5 0.5L875 81L872.7 81.5C871.5 81.8 854.9 84.9 836 88.5C817 92.1 793.1 96.8 783 98.9C772.8 101.1 765 102.9 765.7 103C766.4 103 772.5 102.2 779.2 101.1C785.9 100 809.8 96.6 832.2 93.6C854.6 90.5 873.4 88 874 88C874.6 88 875 99.4 875 120C875 137.6 874.8 152 874.7 152.1C874.6 152.1 861.6 149.6 846 146.6C830.3 143.5 817.1 141.1 816.7 141.1C816.3 141 816 137.9 816 127L740.5 126.9L678.5 115.5L677.9 0ZM949.4 0.5V68.4L920.9 73.1C905.2 75.8 891.8 77.9 891.1 78C890.1 78 889.8 69.6 889.7 39.7C889.6 18.6 889.9 1 890.4 0.7C890.9 0.3 904.3 0.1 949.4 0.5ZM1084.9 0V49L1081.6 49.5C1079.8 49.8 1067.8 51.4 1054.9 53C1041.9 54.7 1030.1 56.3 1025.9 57V30C1025.9 15.2 1026.1 2.3 1026.5 1.5C1027 0.2 1031.2 0 1084.9 0ZM-0.100098 42L3.5999 42.1C5.6999 42.1 18.7999 43.4 58.3999 47.5L58.8999 139H102.9V52L106.6 52.5C108.7 52.7 122 54.2 161.9 58.5V97.3C161.9 118.6 162.1 136.7 162.4 137.5C162.8 138.8 166.1 139 204.9 139V63L209.1 63.5C211.5 63.8 223.3 65.1 235.4 66.5C247.5 67.9 259.3 69.2 265.9 70V195L162.4 194.9L132.4 167.3L103.4 194.9H58.3999L53.8999 190.8C51.3999 188.5 38.1999 176 -0.100098 139V42ZM1084.9 65V195H948.9L938.1 184.8C932.2 179.1 924.7 172 921.4 168.9C918.1 165.8 915.8 163.1 916.4 162.8C916.9 162.5 926.4 163.8 937.4 165.6C948.4 167.5 957.7 168.9 958.2 168.7C958.6 168.6 948.7 166.5 936.2 164.1C923.6 161.8 912.2 159.1 910.9 158.2C909.5 157.3 904.2 152.5 889.8 138.5L889.9 86L893.6 85.5C895.7 85.2 908.6 83.6 922.4 82C936.1 80.3 947.9 79 948.6 79C949.6 79 949.9 85.7 949.9 139H1025.9L1026.4 70.5L1052.4 67.9C1066.7 66.4 1079.8 65.2 1084.9 65ZM202.6 222.1C203.9 222 206.2 222.7 207.9 223.5C209.6 224.4 211.5 226.5 212.4 228.5C213.2 230.4 213.9 232.2 213.9 232.5C213.9 232.8 212.5 233 210.9 233C208.7 233 207.9 232.5 207.9 231.3C207.9 230.3 207.3 228.9 206.6 228.2C205.9 227.5 203.9 227 202.1 227C199.7 227 198.6 227.6 198 229.3C197.4 230.7 197.5 232.1 198.2 233.4C198.9 234.4 201.7 236.1 204.6 237.1C207.7 238.2 210.7 240.2 211.9 241.8C213 243.3 213.9 245.7 213.9 247.3C213.9 248.9 212.7 251.2 210.9 253C208.5 255.6 207.3 256 202.9 256C199.1 256 197.3 255.5 195.4 253.8C194.1 252.5 192.7 250.3 192.4 248.8C191.9 246.3 192.2 246 194.4 246C195.7 246 196.9 246.5 196.9 247C196.9 247.6 197.8 248.9 198.9 250C200 251.1 201.9 252 203.1 252C204.4 252.1 206.3 251.1 207.4 250C209.1 248.2 209.2 247.6 208.1 245.5C207.3 243.833 205.3 242.5 202.1 241.5C199.5 240.7 196.2 238.9 194.9 237.5C193.2 235.7 192.4 233.7 192.4 231.5C192.4 229.7 193.2 227.2 194.2 226C195.2 224.7 197 223.4 198.2 222.9C199.4 222.5 201.4 222.1 202.6 222.1ZM748.8 222C750.2 222 752.9 222.4 754.9 222.9C756.9 223.5 760 225.6 762.1 227.9C764.5 230.5 766.1 233.4 766.5 235.8C766.8 237.8 766.8 241.1 766.5 243C766.2 244.9 765.1 247.6 764 249C763 250.4 760.7 252.5 758.8 253.8C756.1 255.6 754 256.1 749.1 256C743.5 256 742.5 255.7 739.2 252.8C737.3 251 735 248.3 734.2 246.8C733.5 245.2 732.9 241.9 732.9 239.3C732.9 236.2 733.7 233.1 735.1 230.6C736.6 228.1 739 225.8 741.8 224.3C744.3 223 747.4 222 748.8 222ZM739.6 233.5C738.4 236.033 737.967 238.667 738.3 241.4C738.6 244.2 739.7 246.4 741.9 248.5C744.4 251 745.7 251.5 749.8 251.5C753.7 251.5 755.3 251 757.3 249C758.8 247.6 760.4 244.7 761 242.5C761.6 239.9 761.6 237.5 761 235.5C760.4 233.9 758.6 231.3 756.9 229.8C754.7 227.8 752.8 227 750.1 227C748.1 227.1 745.2 227.7 743.9 228.4C742.5 229.1 740.6 231.4 739.6 233.5ZM866.4 222.5C869.2 222.8 871.1 223.7 873.1 225.9C874.6 227.6 875.9 229.9 875.9 231C875.9 232.4 875.2 233 873.6 233C872.2 233 870.7 231.9 869.6 230C868.3 227.8 867.1 227 865.1 227C863.5 227 861.7 227.6 861.1 228.3C860.4 228.9 859.8 230.5 859.9 231.8C859.9 233.5 861 234.5 864.6 236.1C867.2 237.2 870.5 238.7 871.8 239.3C873.1 240 874.8 242 875.5 243.8C876.7 246.5 876.7 247.5 875.4 250.5C874.5 252.4 873 254.5 871.9 255C870.8 255.6 867.7 256 865.1 256C861.2 256.1 859.9 255.6 857.6 253.3C856 251.8 854.8 250.2 854.8 249.8C854.9 249.3 854.6 248.3 854.4 247.5C854 246.4 854.6 246 856.9 246C859.3 246 860 246.5 860.4 248.5C860.7 250.2 861.7 251.2 863.6 251.6C865.1 252 867.4 251.7 868.6 251.1C870.3 250.3 870.8 249.3 870.6 247.3C870.4 244.9 869.4 244 864.1 241.5C860.6 239.9 857.1 237.6 856.3 236.5C855.5 235.4 854.8 233.2 854.8 231.5C854.9 229.9 855.6 227.5 856.5 226.2C857.4 224.9 859 223.4 860.2 222.9C861.4 222.4 864.2 222.2 866.4 222.5ZM299.9 223H321.9V225.5C321.9 227.8 321.5 228 313.9 228V256H307.9V228H303.9C300.3 228 299.9 227.8 299.9 225.5V223ZM407.9 223H413.9V235.5C413.9 248 413.9 248 416.6 250C418.1 251.2 420.3 252.1 421.4 252.1C422.5 252.1 424.5 251.2 425.9 250.1C428.3 248.2 428.4 247.8 428.6 223H433.9V235C433.9 243.7 433.5 247.8 432.4 250C431.5 251.7 429.9 253.7 428.6 254.5C427.3 255.4 424.2 256 421.1 256C417 256 415.2 255.5 412.9 253.5C411.2 252.1 409.4 249.3 408.9 247.3C408.3 245.2 407.9 238.9 407.9 233.3V223ZM523.9 223L530.6 222.9C535.7 222.9 538.5 223.5 541.9 225.2C544.8 226.7 547 228.7 548.1 231C549.1 232.9 549.9 236.6 549.9 239.2C549.9 241.8 549.1 245.6 548.1 247.6C547.2 249.6 544.8 252.1 542.9 253.3C540.5 254.7 536.9 255.5 523.9 256.5V223ZM528.8 251.5C537.7 250.3 540.1 249.3 541.6 247.8C542.9 246.5 544.2 243.7 544.6 241.5C544.9 238.9 544.7 236.2 543.8 234.1C543 232.2 541.1 230.1 539.6 229.3C538.1 228.6 535.1 228 532.9 228H528.9L528.8 251.5ZM638.8 223H643.8V256H638.8V223ZM282 72C282.7 72 294.5 73.3 308.3 74.9C322 76.6 334.7 78.1 339.8 79V139H415.8V114.2C415.7 100.6 415.9 89.2 416.2 89C416.4 88.7 429.4 90.1 445 92.2C460.5 94.2 473.8 95.9 474.5 95.9C475.5 95.9 475.7 106.4 475.3 194.5L339.3 194.9L327.9 184.2C321.6 178.3 308.4 165.6 280.7 138.5V105.2C280.8 79.3 281.1 72 282 72ZM554.3 107C554.6 107 574.9 109.9 644.3 120L647.5 123.7C649.3 125.8 652.7 131.2 655 135.9C659.1 143.9 659.3 144.7 659.3 153.4C659.3 161.6 659 163.2 656.1 169C654.1 173.2 651.1 177.1 647.6 180.3C644.7 182.9 640 186.1 637.3 187.4C634.5 188.7 629.8 190.3 626.8 191.1C622.4 192.2 608.7 192.5 498.3 192.5L497.8 138H583.8L568.3 123.2C559.8 115.1 553.1 108.1 553.4 107.7C553.7 107.3 554.1 107 554.3 107ZM677.9 124.9L681.1 125.4C682.8 125.7 696.2 127.8 710.8 130C725.4 132.2 737.4 134 737.5 134C737.7 134 737.7 147.6 737.3 194.5L677.8 195L677.9 124.9ZM815.7 146L818.5 146.5C820 146.8 833.2 148.9 874.3 155.4L874.6 173.9C874.8 188.2 874.6 192.7 873.6 193.7C872.6 194.6 865.3 194.8 816.3 194.4L815.7 146Z" fill="white"/>
</g>
<defs>
<clipPath id="clip0_658_504">
<rect width="1085" height="256" fill="white"/>
</clipPath>
</defs>
</svg>
