<svg width="446" height="67" viewBox="0 0 446 67" fill="none" xmlns="http://www.w3.org/2000/svg">
<mask id="mask0_672_209" style="mask-type:alpha" maskUnits="userSpaceOnUse" x="0" y="0" width="446" height="67">
<rect width="446" height="67" fill="black"/>
</mask>
<g mask="url(#mask0_672_209)">
<path fill-rule="evenodd" clip-rule="evenodd" d="M70.4863 -133.5L52.3495 -158L30.5029 -152V-144L49.8763 -150.5L70.4863 -123.5L91.0963 -130.5L117.889 -105.5L134.377 -109.5L154.575 -87L185.078 -92.5L206.1 -65L226.71 -68.5L246.496 -48L276.998 -52.5L294.723 -28.5L315.333 -35.5L342.126 -10.5L358.614 -14.5L378.812 8L409.314 2.5L433 34L446 30.15L470.732 47L501.235 42.5L511.128 55.5L521.433 67.5L542.043 60.5L568.836 85.5L585.324 81.5L605.521 104L636.024 98.5L657.046 126L677.656 122.5L697.442 143L727.945 138.5L737.838 151.5H746.494L730.418 130L699.503 135.5L682.603 113L661.581 117.5L638.497 90.5L609.231 95L585.324 71L568.836 78L546.577 50.5L522.257 58L519.784 55.5L503.708 34L472.793 39.5L446 22.31L435 25L411.788 -5.5L382.521 -1L358.614 -25L342.126 -18L319.867 -45.5L295.547 -39.5L279.472 -61L248.557 -55.5L231.656 -78L210.634 -73.5L187.551 -100.5L158.285 -96L134.377 -120L117.889 -113L95.6305 -140.5L70.4863 -133.5Z" fill="white"/>
<path fill-rule="evenodd" clip-rule="evenodd" d="M77.081 -168.5L58.9442 -193L37.0977 -187V-179L56.471 -185.5L77.081 -158.5L97.691 -165.5L124.484 -140.5L140.972 -144.5L161.17 -122L191.673 -127.5L212.695 -100L233.305 -103.5L253.09 -83L283.593 -87.5L301.318 -63.5L321.928 -70.5L348.721 -45.5L365.209 -49.5L385.406 -27L415.909 -32.5L436.931 -5L457.541 -8.5L477.327 12L507.83 7.5L517.722 20.5L528.027 32.5L548.637 25.5L575.43 50.5L591.918 46.5L612.116 69L642.619 63.5L663.641 91L684.251 87.5L704.037 108L734.539 103.5L744.432 116.5H753.089L737.013 95L706.098 100.5L689.198 78L668.175 82.5L645.092 55.5L615.826 60L591.918 36L575.43 43L553.172 15.5L528.852 23L526.379 20.5L510.303 -1L479.388 4.5L462.488 -18L441.466 -13.5L418.382 -40.5L389.116 -36L365.209 -60L348.721 -53L326.462 -80.5L302.142 -74.5L286.066 -96L255.151 -90.5L238.251 -113L217.229 -108.5L194.146 -135.5L164.88 -131L140.972 -155L124.484 -148L102.225 -175.5L77.081 -168.5Z" fill="white"/>
<path fill-rule="evenodd" clip-rule="evenodd" d="M83.6767 -203.5L65.5399 -228L43.6934 -222V-214L63.0667 -220.5L83.6767 -193.5L104.287 -200.5L131.08 -175.5L147.568 -179.5L167.765 -157L198.268 -162.5L219.29 -135L239.9 -138.5L259.686 -118L290.189 -122.5L307.913 -98.5L328.523 -105.5L355.316 -80.5L371.804 -84.5L392.002 -62L422.505 -67.5L443.527 -40L464.137 -43.5L483.923 -23L514.425 -27.5L524.318 -14.5L534.623 -2.5L555.233 -9.5L582.026 15.5L598.514 11.5L618.712 34L649.215 28.5L670.237 56L690.847 52.5L710.632 73L741.135 68.5L751.028 81.5H759.684L743.608 60L712.693 65.5L695.793 43L674.771 47.5L651.688 20.5L622.422 25L598.514 1L582.026 8L559.767 -19.5L535.448 -12L532.974 -14.5L516.899 -36L485.984 -30.5L469.083 -53L448.061 -48.5L424.978 -75.5L395.712 -71L371.804 -95L355.316 -88L333.058 -115.5L308.738 -109.5L292.662 -131L261.747 -125.5L244.847 -148L223.825 -143.5L200.741 -170.5L171.475 -166L147.568 -190L131.08 -183L108.821 -210.5L83.6767 -203.5Z" fill="white"/>
<path fill-rule="evenodd" clip-rule="evenodd" d="M63.8906 -98.5L45.7538 -123L23.9072 -117V-109L43.2806 -115.5L63.8906 -88.5L84.5006 -95.5L111.294 -70.5L127.782 -74.5L147.979 -52L178.482 -57.5L199.504 -30L220.114 -33.5L239.9 -13L270.403 -17.5L288.127 6.5L308.737 -0.5L335.53 24.5L352.018 20.5L372.216 43L402.719 37.5L427.5 67L446 61.69L464.136 82L494.639 77.5L504.532 90.5L514.837 102.5L535.447 95.5L562.24 120.5L578.728 116.5L598.926 139L629.429 133.5L650.451 161L671.061 157.5L690.846 178L721.349 173.5L731.242 186.5H739.898L723.822 165L692.907 170.5L676.007 148L654.985 152.5L631.902 125.5L602.636 130L578.728 106L562.24 113L539.981 85.5L515.661 93L513.188 90.5L497.112 69L466.197 74.5L446 55.5L430 59.5L405.192 29.5L375.926 34L352.018 10L335.53 17L313.271 -10.5L288.952 -4.5L272.876 -26L241.961 -20.5L225.061 -43L204.038 -38.5L180.955 -65.5L151.689 -61L127.782 -85L111.294 -78L89.0348 -105.5L63.8906 -98.5Z" fill="white"/>
<path fill-rule="evenodd" clip-rule="evenodd" d="M57.2959 -63.5L39.1591 -88L17.3125 -82V-74L36.6859 -80.5L57.2959 -53.5L77.9059 -60.5L104.699 -35.5L121.187 -39.5L141.385 -17L171.887 -22.5L192.91 5L213.52 1.5L233.305 22L263.808 17.5L281.532 41.5L302.142 34.5L328.935 59.5L345.423 55.5L365.621 78L396.124 72.5L417.146 100L437.756 96.5L457.542 117L488.044 112.5L497.937 125.5L508.242 137.5L528.852 130.5L555.645 155.5L572.133 151.5L592.331 174L622.834 168.5L643.856 196L664.466 192.5L684.252 213L714.754 208.5L724.647 221.5H733.303L717.228 200L686.313 205.5L669.412 183L648.39 187.5L625.307 160.5L596.041 165L572.133 141L555.645 148L533.387 120.5L509.067 128L506.594 125.5L490.518 104L459.603 109.5L442.703 87L421.68 91.5L398.597 64.5L369.331 69L345.423 45L328.935 52L306.677 24.5L282.357 30.5L266.281 9L235.366 14.5L218.466 -8L197.444 -3.5L174.361 -30.5L145.094 -26L121.187 -50L104.699 -43L82.4401 -70.5L57.2959 -63.5Z" fill="white"/>
<path fill-rule="evenodd" clip-rule="evenodd" d="M50.7002 -28.5L32.5634 -53L10.7168 -47V-39L30.0902 -45.5L50.7002 -18.5L71.3102 -25.5L98.1031 -0.5L114.591 -4.5L134.789 18L165.292 12.5L186.314 40L206.924 36.5L226.709 57L257.212 52.5L274.937 76.5L295.547 69.5L322.34 94.5L338.828 90.5L359.025 113L389.528 107.5L410.55 135L431.16 131.5L450.946 152L481.449 147.5L491.342 160.5L501.647 172.5L522.257 165.5L549.05 190.5L565.538 186.5L585.735 209L616.238 203.5L637.26 231L657.87 227.5L677.656 248L708.159 243.5L718.051 256.5H726.708L710.632 235L679.717 240.5L662.817 218L641.794 222.5L618.711 195.5L589.445 200L565.538 176L549.05 183L526.791 155.5L502.471 163L499.998 160.5L483.922 139L453.007 144.5L436.107 122L415.085 126.5L392.001 99.5L362.735 104L338.828 80L322.34 87L300.081 59.5L275.761 65.5L259.685 44L228.77 49.5L211.87 27L190.848 31.5L167.765 4.5L138.499 9L114.591 -15L98.1031 -8L75.8444 -35.5L50.7002 -28.5Z" fill="white"/>
<path fill-rule="evenodd" clip-rule="evenodd" d="M44.1054 6.5L25.9687 -18L4.12207 -12V-4L23.4955 -10.5L44.1054 16.5L64.7154 9.5L91.5084 34.5L107.996 30.5L128.194 53L158.697 47.5L179.719 75L200.329 71.5L220.115 92L250.617 87.5L268.342 111.5L288.952 104.5L315.745 129.5L332.233 125.5L352.431 148L382.934 142.5L403.956 170L424.566 166.5L444.351 187L474.854 182.5L484.747 195.5L495.052 207.5L515.662 200.5L542.455 225.5L558.943 221.5L579.141 244L609.643 238.5L630.666 266L651.276 262.5L671.061 283L701.564 278.5L711.457 291.5H720.113L704.037 270L673.122 275.5L656.222 253L635.2 257.5L612.117 230.5L582.85 235L558.943 211L542.455 218L520.196 190.5L495.876 198L493.403 195.5L477.327 174L446.412 179.5L429.512 157L408.49 161.5L385.407 134.5L356.141 139L332.233 115L315.745 122L293.486 94.5L269.166 100.5L253.091 79L222.176 84.5L205.276 62L184.253 66.5L161.17 39.5L131.904 44L107.996 20L91.5084 27L69.2496 -0.5L44.1054 6.5Z" fill="white"/>
<path fill-rule="evenodd" clip-rule="evenodd" d="M37.5097 41.5L19.373 17L-2.47363 23V31L16.8998 24.5L37.5097 51.5L58.1197 44.5L84.9127 69.5L101.401 65.5L121.598 88L152.101 82.5L173.123 110L193.733 106.5L213.519 127L244.022 122.5L261.746 146.5L282.356 139.5L309.149 164.5L325.637 160.5L345.835 183L376.338 177.5L397.36 205L417.97 201.5L437.756 222L468.258 217.5L478.151 230.5L488.456 242.5L509.066 235.5L535.859 260.5L552.347 256.5L572.545 279L603.048 273.5L624.07 301L644.68 297.5L664.465 318L694.968 313.5L704.861 326.5H713.517L697.441 305L666.526 310.5L649.626 288L628.604 292.5L605.521 265.5L576.255 270L552.347 246L535.859 253L513.6 225.5L489.281 233L486.807 230.5L470.732 209L439.817 214.5L422.916 192L401.894 196.5L378.811 169.5L349.545 174L325.637 150L309.149 157L286.891 129.5L262.571 135.5L246.495 114L215.58 119.5L198.68 97L177.658 101.5L154.574 74.5L125.308 79L101.401 55L84.9127 62L62.6539 34.5L37.5097 41.5Z" fill="white"/>
<path fill-rule="evenodd" clip-rule="evenodd" d="M30.915 76.5L12.7782 52L-9.06836 58L-8.5 63.5L10.305 59.5L30.915 86.5L51.525 79.5L78.318 104.5L94.806 100.5L115.004 123L145.507 117.5L166.529 145L187.139 141.5L206.924 162L237.427 157.5L255.152 181.5L275.762 174.5L302.555 199.5L319.043 195.5L339.24 218L369.743 212.5L390.765 240L411.375 236.5L431.161 257L461.664 252.5L471.556 265.5L481.861 277.5L502.471 270.5L529.264 295.5L545.752 291.5L565.95 314L596.453 308.5L617.475 336L638.085 332.5L657.871 353L688.373 348.5L698.266 361.5H706.922L690.847 340L659.932 345.5L643.031 323L622.009 327.5L598.926 300.5L569.66 305L545.752 281L529.264 288L507.006 260.5L482.686 268L480.213 265.5L464.137 244L433.222 249.5L416.322 227L395.299 231.5L372.216 204.5L342.95 209L319.043 185L302.555 192L280.296 164.5L255.976 170.5L239.9 149L208.985 154.5L192.085 132L171.063 136.5L147.98 109.5L118.714 114L94.806 90L78.318 97L56.0592 69.5L30.915 76.5Z" fill="white"/>
</g>
</svg>
