<svg width="606" height="534" viewBox="0 0 606 534" fill="none" xmlns="http://www.w3.org/2000/svg">
<path d="M154.484 13.731L297.275 194.574L308.275 227.574L344.01 15.549C344.403 13.223 346.649 10.716 348.964 10.265L359.864 9.93402L416.274 101.574L475.694 12.377C476.82 10.68 478.708 9.644 480.744 9.604L493.274 11.574L540.274 281.574L589.686 286.244C590.825 286.389 590.318 288.681 590.528 289.809L593.698 306.851L550.102 357.053C550.102 357.053 574.274 363.574 583.274 370.574C583.274 370.574 589.274 374.574 581.274 383.574C573.274 392.574 537.274 380.574 532.274 392.574C527.274 404.574 532.154 406.973 542.274 413.574C553.774 421.074 582.957 433.127 590.616 450.851C598.274 468.574 544.274 509.574 544.274 509.574L488.01 508.539L433.916 438.694C433.136 437.687 431.583 437.8 430.958 438.909L400.274 520.574C399.665 521.655 386.076 523.521 385.274 522.574L314.272 436.844C313.516 435.951 312.119 436.017 311.45 436.977L264.775 504.074L223.775 507.074L173.775 468.074L146.775 515.074L93.775 512.074C93.775 512.074 42.775 493.074 40.775 490.074C38.775 487.074 26.775 432.074 24.775 429.074C22.775 426.074 38.397 376.87 38.397 376.87L70.775 356.074L53.775 295.074L50.775 73.074L112.775 36.074L151.989 13.257C152.823 12.772 153.886 12.974 154.484 13.731Z" stroke="white" stroke-width="14" stroke-linecap="round" stroke-linejoin="round"/>
<path d="M484.88 357.721C480.07 357.721 476.151 353.808 476.144 348.998L475.675 17.7869C475.669 12.9709 479.582 9.04687 484.398 9.03987L538.129 8.96387C542.946 8.96387 546.869 12.8769 546.877 17.6869L547.247 279.109C547.253 283.937 551.187 287.864 556.014 287.864L588.437 287.818C593.254 287.818 597.177 291.731 597.185 296.54L597.259 348.825C597.261 351.159 596.356 353.354 594.709 355.005C593.063 356.658 590.87 357.57 588.536 357.574L484.893 357.721H484.88Z" stroke="white" stroke-width="14" stroke-linecap="round" stroke-linejoin="round"/>
<path d="M538.13 7.27686H538.125L484.395 7.35284C478.65 7.36184 473.982 12.0438 473.989 17.7888L474.458 349C474.467 354.738 479.142 359.406 484.879 359.406L588.537 359.259C591.322 359.255 593.939 358.167 595.903 356.195C597.866 354.226 598.947 351.608 598.944 348.824L598.87 296.538C598.861 290.8 594.182 286.132 588.438 286.132L556.009 286.178C552.114 286.178 548.938 283.005 548.933 279.107L548.563 17.6839C548.554 11.9449 543.874 7.27686 538.13 7.27686ZM538.13 10.6489C542.022 10.6489 545.184 13.8068 545.19 17.6888L545.56 279.111C545.567 284.867 550.257 289.55 556.013 289.55L588.438 289.504C592.329 289.504 595.491 292.661 595.497 296.543L595.571 348.827C595.573 350.71 594.843 352.482 593.514 353.815C592.185 355.149 590.415 355.884 588.532 355.887L484.89 356.034H484.879C480.998 356.034 477.836 352.876 477.83 348.995L477.361 17.7838C477.356 13.8978 480.514 10.7319 484.4 10.7259L538.13 10.6489Z" stroke="white" stroke-width="14" stroke-linecap="round" stroke-linejoin="round"/>
<path d="M19.7262 358.313C14.0252 358.313 9.38021 353.674 9.37221 347.973L8.90821 19.9249C8.90421 17.1599 9.97721 14.5579 11.9302 12.5999C13.8832 10.6409 16.4822 9.56088 19.2472 9.55688L144.125 9.37988C146.911 9.37988 149.514 10.4599 151.471 12.4219C153.428 14.3849 154.501 16.9919 154.494 19.7639L154.429 69.5399C154.413 75.2279 149.774 79.8579 144.089 79.8659L89.8992 79.9429C88.0352 79.9449 86.2832 80.6739 84.9652 81.9949C83.6492 83.3149 82.9252 85.0689 82.9282 86.9339L82.9762 120.938C82.9812 124.782 86.1132 127.91 89.9572 127.91L138.654 127.841C144.369 127.841 149.013 132.479 149.022 138.18L149.092 187.958C149.1 193.667 144.462 198.318 138.752 198.327L90.0672 198.396C88.2032 198.398 86.4512 199.127 85.1332 200.448C83.8172 201.768 83.0932 203.522 83.0962 205.387L83.2982 347.869C83.3052 353.578 78.6662 358.229 72.9572 358.238L19.7262 358.313Z" stroke="white" stroke-width="14" stroke-linecap="round" stroke-linejoin="round"/>
<path d="M144.14 7.69287H144.127L19.2437 7.86987C16.0287 7.87387 13.0067 9.13087 10.7357 11.4079C8.46469 13.6859 7.21669 16.7108 7.22169 19.9268L7.6857 347.976C7.6957 354.605 13.0967 359.998 19.7257 359.998L72.9607 359.923C76.1767 359.918 79.1977 358.661 81.4687 356.385C83.7397 354.108 84.9877 351.082 84.9837 347.866L84.7817 205.384C84.7797 203.969 85.3287 202.639 86.3267 201.637C87.3257 200.636 88.6547 200.083 90.0697 200.081L138.756 200.012C141.972 200.007 144.994 198.751 147.264 196.474C149.535 194.196 150.783 191.171 150.779 187.955L150.708 138.177C150.699 131.547 145.298 126.154 138.668 126.154L89.9647 126.223C87.0417 126.223 84.6657 123.851 84.6617 120.935L84.6137 86.9309C84.6117 85.5169 85.1607 84.1859 86.1597 83.1849C87.1587 82.1829 88.4877 81.6309 89.9017 81.6279L144.092 81.5509C150.702 81.5419 156.096 76.1569 156.115 69.5469L156.18 19.7629C156.189 16.5459 154.941 13.5139 152.665 11.2319C150.39 8.94987 147.362 7.69287 144.14 7.69287ZM144.14 11.0648C148.936 11.0648 152.821 14.9609 152.807 19.7579L152.743 69.5369C152.729 74.3099 148.86 78.1719 144.088 78.1789L89.8967 78.2559C85.1097 78.2629 81.2347 82.1489 81.2417 86.9359L81.2897 120.94C81.2967 125.723 85.1757 129.595 89.9567 129.595H89.9697L138.656 129.526H138.668C143.45 129.526 147.329 133.399 147.336 138.182L147.406 187.96C147.413 192.747 143.538 196.633 138.751 196.64L90.0647 196.709C85.2777 196.715 81.4027 200.602 81.4097 205.389L81.6107 347.871C81.6177 352.657 77.7427 356.544 72.9557 356.551L19.7387 356.626H19.7257C14.9447 356.626 11.0647 352.754 11.0577 347.971L10.5937 19.9219C10.5867 15.1349 14.4617 11.2489 19.2487 11.2419L144.127 11.0648H144.14Z" stroke="white" stroke-width="14" stroke-linecap="round" stroke-linejoin="round"/>
<path d="M138.885 358.074C136.139 358.074 133.609 356.822 131.943 354.64C130.277 352.459 129.735 349.688 130.457 347.04L189.086 15.7404L189.11 15.6584C190.169 11.9264 193.619 9.31543 197.5 9.31043L267.199 9.21143C271.107 9.21143 274.57 11.8334 275.621 15.5874L275.645 15.6684L333.837 346.806C334.537 349.506 333.986 352.232 332.34 354.382C330.678 356.556 328.154 357.805 325.415 357.809L274.269 357.883C270.24 357.883 266.75 355.157 265.78 351.256L249.423 295.81C248.442 291.866 244.95 289.16 240.915 289.16L220.232 289.19C216.211 289.196 212.719 291.924 211.74 295.823L196.981 351.394C196.007 355.27 192.526 357.997 188.521 358.004L138.897 358.074H138.885Z" stroke="white" stroke-width="14" stroke-linecap="round" stroke-linejoin="round"/>
<path d="M267.202 7.5249H267.197L197.497 7.6239C192.869 7.6299 188.752 10.7449 187.488 15.1969L187.441 15.3619L187.411 15.5309L128.809 346.678C127.977 349.798 128.627 353.077 130.603 355.664C132.591 358.268 135.61 359.76 138.885 359.76L188.523 359.69C193.303 359.683 197.455 356.432 198.621 351.783L213.365 296.278C214.166 293.084 216.987 290.881 220.235 290.876L240.921 290.847C244.175 290.847 246.993 293.026 247.768 296.147L247.785 296.218L247.806 296.288L264.163 351.74C265.348 356.354 269.492 359.568 274.267 359.568L325.418 359.495C328.684 359.491 331.696 358.001 333.68 355.406C335.649 352.833 336.305 349.568 335.485 346.439L277.32 15.4589L277.291 15.2939L277.246 15.1319C275.99 10.6529 271.86 7.5249 267.202 7.5249ZM267.202 10.8969C270.368 10.8969 273.148 13.0089 273.999 16.0429L332.189 347.167L332.209 347.241C332.784 349.374 332.344 351.603 331.002 353.358C329.66 355.112 327.622 356.12 325.413 356.123L274.267 356.196C271.014 356.196 268.2 353.997 267.416 350.849L251.041 295.334C249.898 290.735 245.727 287.475 240.916 287.475L220.23 287.504C215.435 287.511 211.272 290.764 210.105 295.413L195.351 350.962C194.558 354.119 191.751 356.313 188.518 356.317L138.895 356.388H138.885C136.67 356.388 134.628 355.378 133.283 353.617C131.938 351.857 131.501 349.621 132.085 347.483L132.105 347.408L190.732 16.1179C191.588 13.1029 194.362 11.0009 197.502 10.9959L267.202 10.8969Z" stroke="white" stroke-width="14" stroke-linecap="round" stroke-linejoin="round"/>
<path d="M354.66 357.518C349.85 357.518 345.932 353.605 345.925 348.795L345.455 17.5837C345.449 12.7677 349.362 8.84374 354.178 8.83674L407.909 8.76074C412.726 8.76074 416.649 12.6737 416.657 17.4837L417.027 278.906C417.033 283.734 420.967 287.661 425.794 287.661L458.218 287.615C463.034 287.615 466.957 291.528 466.965 296.337L467.039 348.622C467.041 350.956 466.136 353.152 464.489 354.803C462.842 356.455 460.649 357.367 458.316 357.371L354.672 357.518H354.66Z" stroke="white" stroke-width="14" stroke-linecap="round" stroke-linejoin="round"/>
<path d="M407.911 7.0752H407.906L354.176 7.15118C348.43 7.15918 343.762 11.8412 343.769 17.5872L344.238 348.798C344.247 354.536 348.922 359.204 354.659 359.204L458.317 359.056C461.102 359.053 463.718 357.965 465.682 355.994C467.647 354.024 468.727 351.405 468.724 348.621L468.65 296.336C468.641 290.597 463.962 285.929 458.219 285.929L425.789 285.975C421.894 285.975 418.718 282.803 418.713 278.904L418.343 17.4822C418.334 11.7432 413.654 7.0752 407.911 7.0752ZM407.911 10.4482C411.802 10.4482 414.964 13.6052 414.97 17.4862L415.34 278.909C415.348 284.665 420.037 289.347 425.793 289.347L458.219 289.302C462.11 289.302 465.272 292.459 465.278 296.341L465.351 348.625C465.354 350.509 464.624 352.28 463.294 353.613C461.965 354.946 460.196 355.681 458.312 355.684L354.67 355.832H354.659C350.778 355.832 347.616 352.674 347.61 348.793L347.141 17.5822C347.136 13.6962 350.294 10.5292 354.181 10.5232L407.911 10.4482Z" stroke="white" stroke-width="14" stroke-linecap="round" stroke-linejoin="round"/>
<path d="M91.0161 525.005C61.5161 525.005 38.5881 514.818 29.7681 505.355C17.5741 492.277 11.3771 471.486 11.3511 443.559C11.3041 391.666 41.6181 361.873 94.5201 361.819C101.218 361.819 108.188 362.989 116.612 364.747C124.736 366.443 131.7 369.917 136.785 372.453L137.86 372.988C143.892 375.984 147.148 379.799 147.15 381.869C147.151 383.446 144.271 391.047 142.318 395.008C139.777 400.153 136.37 406.426 134.429 408.596C132.391 410.873 130.123 411.687 128.68 411.689C128.663 411.687 127.753 411.616 124.065 410.128C122.967 409.686 121.343 408.844 119.463 407.868C115.759 405.947 111.149 403.556 107.699 402.801C107.037 402.656 106.36 402.499 105.665 402.337C102.358 401.567 98.6091 400.694 94.2781 400.694C92.5601 400.694 90.8381 400.836 89.1611 401.115C80.3671 402.583 68.9611 407.689 64.1751 414.61C57.8751 423.721 55.3191 428.127 55.3191 445.93C55.3191 458.684 58.9961 469.151 65.9541 476.2C72.5981 482.932 82.0951 486.49 93.4181 486.489C99.6841 486.483 103.687 485.948 109.802 484.827L111.199 484.57L111.172 463.716L91.1071 463.736C88.6221 463.736 87.6851 462.634 87.1961 461.806C86.2661 460.232 85.7921 457.567 85.7881 453.888L85.7781 438.505C85.7741 434.825 86.2431 432.16 87.1701 430.586C87.6601 429.753 88.5961 428.648 91.0781 428.645L139.76 428.599C142.56 428.599 144.549 429.171 145.697 430.299C146.833 431.423 147.412 433.387 147.415 436.133L147.478 508.37C147.483 514.451 142.188 518.6 131.289 521.053C121.137 523.337 108.764 524.621 93.4631 524.977C92.6541 524.995 91.8381 525.005 91.0161 525.005Z" stroke="white" stroke-width="14" stroke-linecap="round" stroke-linejoin="round"/>
<path d="M94.576 360.118H94.518C42.472 360.172 9.59898 388.714 9.64898 443.561C9.67598 472.065 15.966 493.051 28.523 506.516C40.636 519.514 68.042 526.708 91.014 526.708C91.851 526.708 92.679 526.699 93.503 526.68C106.431 526.38 119.979 525.345 131.662 522.715C143.347 520.085 149.186 515.302 149.18 508.369L149.117 436.133C149.114 432.896 148.37 430.551 146.889 429.086C145.409 427.629 143.041 426.897 139.781 426.897H139.759L91.076 426.944C88.582 426.946 86.79 427.874 85.703 429.722C84.614 431.573 84.072 434.502 84.075 438.507L84.086 453.891C84.09 457.899 84.637 460.823 85.73 462.672C86.819 464.516 88.609 465.439 91.098 465.439H91.109L109.472 465.421L109.494 483.154C103.572 484.239 99.701 484.781 93.471 484.788H93.417C71.939 484.788 57.021 471.654 57.021 445.931C57.021 428.522 59.39 424.523 65.576 415.579C69.951 409.252 80.741 404.247 89.44 402.797C91.129 402.514 92.741 402.397 94.28 402.397C99.309 402.397 103.576 403.644 107.335 404.465C112.244 405.539 119.997 410.326 123.428 411.709C126.852 413.09 128.212 413.391 128.68 413.391C130.55 413.389 133.282 412.431 135.698 409.732C138.11 407.036 142.132 399.23 143.845 395.763C145.555 392.294 148.854 384.028 148.852 381.869C148.849 378.788 144.798 374.533 138.617 371.465C133.378 368.864 125.891 364.945 116.959 363.082C109.226 361.469 101.724 360.118 94.576 360.118ZM94.576 363.522C101.072 363.523 107.944 364.679 116.263 366.415C124.172 368.064 131.022 371.482 136.024 373.977L137.103 374.514C143.325 377.603 145.403 380.975 145.447 381.846C145.313 383.398 142.676 390.432 140.792 394.255C138.414 399.07 134.989 405.418 133.161 407.462C131.561 409.25 129.847 409.931 128.807 409.984C128.53 409.927 127.456 409.662 124.701 408.551C123.679 408.139 122.013 407.274 120.25 406.36C116.456 404.391 111.734 401.942 108.061 401.139C107.407 400.996 106.737 400.84 106.05 400.68C102.654 399.889 98.805 398.993 94.28 398.993C92.467 398.993 90.65 399.142 88.88 399.438C79.735 400.963 67.831 406.332 62.775 413.642C56.261 423.063 53.617 427.616 53.617 445.931C53.617 459.141 57.464 470.023 64.742 477.397C71.712 484.46 81.628 488.193 93.417 488.193L93.474 488.192C99.812 488.186 103.888 487.642 110.108 486.503L112.903 485.991L112.899 483.149L112.876 465.417L112.872 462.013L109.468 462.016L91.098 462.035C89.308 462.035 88.888 461.323 88.661 460.938C88.225 460.203 87.495 458.308 87.491 453.889L87.48 438.504C87.476 434.084 88.203 432.187 88.639 431.448C88.864 431.064 89.284 430.35 91.08 430.348L139.781 430.303C142.064 430.303 143.697 430.722 144.495 431.506C145.289 432.292 145.71 433.892 145.712 436.136L145.775 508.372C145.777 510.27 145.782 516.047 130.915 519.393C120.872 521.653 108.609 522.924 93.424 523.276C92.626 523.295 91.825 523.304 91.014 523.304C70.047 523.304 42.704 516.74 31.013 504.195C19.121 491.442 13.079 471.041 13.054 443.558C13.03 417.684 20.378 397.564 34.894 383.759C48.785 370.546 69.405 363.549 94.523 363.522H94.576Z" stroke="white" stroke-width="14" stroke-linecap="round" stroke-linejoin="round"/>
<path d="M243.65 525.162C221.758 525.162 203.03 520.05 192.267 511.137C179.728 500.763 172.814 486.474 172.799 470.902L172.699 369.404C172.698 368.023 172.694 363.818 184.76 363.806L205.154 363.794C217.22 363.794 217.224 367.989 217.226 369.368L217.322 457.018C217.33 466.305 220.013 473.003 225.765 478.098C232.386 483.967 239.867 484.843 243.737 484.843C249.543 484.837 255.703 484.378 261.853 478.977C267.52 474 270.389 466.594 270.379 456.965L270.283 369.313C270.282 367.933 270.278 363.727 282.343 363.716L302.509 363.703C314.575 363.703 314.579 367.898 314.581 369.277L314.681 470.775C314.695 486.338 307.808 500.64 295.287 511.044C284.518 519.994 265.748 525.14 243.789 525.162H243.65Z" stroke="white" stroke-width="14" stroke-linecap="round" stroke-linejoin="round"/>
<path d="M302.561 362.002H302.508L282.342 362.014C273.164 362.023 268.577 364.458 268.581 369.315L268.677 456.967C268.685 465.017 266.612 472.531 260.729 477.698C254.844 482.867 248.925 483.136 243.759 483.141H243.734C239.363 483.141 232.701 481.971 226.894 476.824C221.074 471.669 219.032 465.067 219.024 457.017L218.928 369.366C218.924 364.519 214.349 362.092 205.206 362.092H205.153L184.758 362.105C175.58 362.113 170.993 364.549 170.997 369.406L171.097 470.904C171.114 488.367 179.544 502.82 191.181 512.449C202.788 522.06 222.592 526.864 243.651 526.864H243.791C264.903 526.843 284.756 522.01 296.375 512.354C307.991 502.701 316.4 488.236 316.383 470.774L316.283 369.275C316.279 364.428 311.704 362.002 302.561 362.002ZM302.561 365.406C307.528 365.406 310.03 366.18 311.254 366.829C312.605 367.545 312.877 368.298 312.878 369.279L312.978 470.777C312.993 485.824 306.323 499.66 294.199 509.735C283.73 518.436 265.356 523.438 243.788 523.46H243.651C222.149 523.46 203.816 518.49 193.352 509.825C181.21 499.78 174.516 485.956 174.502 470.901L174.402 369.403C174.401 368.419 174.673 367.665 176.03 366.944C177.259 366.293 179.771 365.514 184.761 365.509L205.155 365.497H205.206C210.173 365.497 212.675 366.271 213.899 366.919C215.25 367.636 215.522 368.388 215.523 369.37L215.62 457.021C215.629 466.829 218.494 473.932 224.636 479.371C231.677 485.613 239.623 486.546 243.763 486.546C248.275 486.541 255.829 486.533 262.976 480.256C269.028 474.94 272.091 467.104 272.082 456.963L271.986 369.313C271.985 368.329 272.257 367.574 273.614 366.855C274.843 366.202 277.355 365.424 282.344 365.418L302.514 365.406H302.561Z" stroke="white" stroke-width="14" stroke-linecap="round" stroke-linejoin="round"/>
<path d="M398.136 524.39C386.146 524.389 386.142 520.241 386.141 518.877L386.066 444.179L337.616 371.304C335.807 368.27 335.606 367.002 335.605 366.601C335.605 366.313 335.967 363.786 348.564 363.773L373.616 363.761C382.102 363.761 384.974 365.632 385.9 367.202L411.902 407.746L438.012 367.195C438.973 365.559 441.853 363.679 450.325 363.67L473.774 363.661C486.153 363.661 486.509 366.175 486.51 366.462C486.51 367.275 486.197 368.761 484.7 371.225L436.419 444.824L436.493 518.842C436.496 522.508 432.447 524.37 424.454 524.378L398.136 524.39Z" stroke="white" stroke-width="14" stroke-linecap="round" stroke-linejoin="round"/>
<path d="M473.868 361.958H473.773L450.323 361.968C442.839 361.976 438.258 363.413 436.581 366.273L411.905 404.597L387.366 366.336C385.685 363.487 381.121 362.059 373.676 362.059H373.615L348.561 362.07C338.785 362.08 333.9 363.593 333.903 366.603C333.904 367.809 334.671 369.689 336.199 372.246L384.364 444.694L384.438 518.88C384.443 523.69 389.01 526.092 398.138 526.092H398.191L424.456 526.081C433.62 526.071 438.2 523.66 438.196 518.84L438.122 445.331L486.155 372.108C487.527 369.849 488.214 367.967 488.212 366.461C488.209 363.46 483.427 361.958 473.868 361.958ZM473.868 365.362C481.67 365.362 484.12 366.413 484.776 366.82C484.687 367.395 484.363 368.49 483.274 370.292L435.275 443.464L434.717 444.315L434.718 445.334L434.791 518.843C434.792 519.805 434.522 520.543 433.177 521.252C431.949 521.898 429.439 522.671 424.454 522.676L398.19 522.687H398.138C393.174 522.687 390.675 521.92 389.452 521.277C388.113 520.572 387.844 519.836 387.844 518.876L387.768 444.69L387.767 443.664L387.199 442.809L339.08 370.432C337.932 368.5 337.527 367.436 337.385 366.944C338.122 366.511 340.701 365.483 348.563 365.475L373.62 365.464H373.676C382.233 365.464 384.073 367.456 384.433 368.066L384.466 368.121L384.5 368.174L409.039 406.435L411.899 410.895L414.767 406.44L439.443 368.116L439.481 368.057L439.517 367.996C439.877 367.383 441.72 365.381 450.325 365.372L473.781 365.362H473.868Z" stroke="white" stroke-width="14" stroke-linecap="round" stroke-linejoin="round"/>
<path d="M541.891 523.883C531.432 523.883 522.126 522.843 514.231 520.791C506.081 518.675 499.802 515.982 495.036 512.557C489.895 509.098 487.308 505.32 487.303 501.296C487.301 498.5 488.221 495.403 490.116 491.826C491.851 488.545 493.944 485.6 496.338 483.072C498.227 481.078 501.139 478.428 504.599 478.424C506.014 478.424 507.817 478.923 512.448 481.405C516.902 483.599 520.935 485.312 524.488 486.522C527.791 487.648 531.782 488.218 536.346 488.218C541.309 488.213 545.497 487.263 548.843 485.395C551.548 483.884 552.806 481.245 552.801 477.088C552.799 473.76 551.554 471.32 548.885 469.408C545.484 466.977 539.759 464.154 531.87 461.016L521.651 456.636C512.127 452.166 504.462 446.464 498.921 439.709C493.176 432.71 490.258 422.811 490.246 410.285C490.238 399.811 492.92 390.887 498.22 383.76C503.458 376.717 510.391 371.457 518.828 368.129C527.04 364.89 535.968 363.242 545.361 363.233H545.471C553.067 363.233 560.084 364.02 566.328 365.572C572.845 367.196 577.907 369.308 581.8 372.026C586.044 375.071 588.206 378.426 588.21 381.987C588.212 384.529 587.476 387.468 585.96 390.972C584.524 394.292 582.726 397.238 580.618 399.728C577.977 402.845 575.222 404.427 572.428 404.43C571.101 404.43 569.518 404.002 567.288 403.043C565.737 402.381 564.417 401.847 563.365 401.452C558.575 399.892 553.586 399.113 548.469 399.113C539.869 399.122 536.498 400.843 535.251 401.867C533.214 403.538 532.225 405.3 532.227 407.251C532.23 410.069 532.933 412.276 534.374 413.999C536.071 416.035 538.085 417.641 540.532 418.906C543.321 420.349 547.53 422.281 553.041 424.649C561.365 428.101 568.276 431.437 573.603 434.57C579.286 437.919 584.263 442.775 588.396 449C592.624 455.375 594.773 463.518 594.783 473.201C594.792 484.88 592.22 494.651 587.135 502.242C582.05 509.83 575.406 515.415 567.385 518.84C559.576 522.177 551.051 523.873 542.049 523.883H541.891Z" stroke="white" stroke-width="14" stroke-linecap="round" stroke-linejoin="round"/>
<path d="M545.472 361.532H545.359C535.751 361.542 526.615 363.228 518.202 366.546C509.465 369.995 502.283 375.445 496.855 382.745C491.33 390.173 488.534 399.438 488.545 410.288C488.557 423.217 491.605 433.48 497.605 440.791C503.309 447.742 511.173 453.599 520.98 458.202L531.106 462.543L531.242 462.598C539.004 465.686 544.608 468.443 547.894 470.793C550.108 472.378 551.097 474.32 551.1 477.092C551.104 481.605 549.453 483.106 548.014 483.909C544.924 485.635 541.015 486.511 536.394 486.516H536.34C531.964 486.516 528.163 485.976 525.036 484.911C521.546 483.721 517.581 482.037 513.253 479.906C508.292 477.247 506.32 476.722 504.606 476.722H504.597C500.484 476.726 497.209 479.679 495.102 481.902C492.601 484.544 490.416 487.617 488.613 491.03C486.583 494.859 485.599 498.219 485.602 501.299C485.606 505.923 488.446 510.175 494.043 513.94C498.981 517.489 505.446 520.269 513.803 522.439C521.838 524.527 531.287 525.586 541.889 525.586H542.051C551.283 525.577 560.031 523.834 568.055 520.407C576.382 516.849 583.278 511.057 588.55 503.191C593.826 495.313 596.496 485.224 596.485 473.2C596.476 463.178 594.232 454.719 589.814 448.06C585.538 441.617 580.374 436.586 574.467 433.105C569.071 429.93 562.068 426.55 553.713 423.085C548.244 420.736 544.075 418.823 541.315 417.394C539.076 416.238 537.235 414.772 535.68 412.907C534.504 411.502 533.932 409.652 533.93 407.251C533.929 406.351 534.177 404.953 536.331 403.184C537.195 402.474 540.101 400.825 548.422 400.816H548.471C553.409 400.816 558.219 401.568 562.768 403.048C563.803 403.434 565.1 403.961 566.617 404.607C569.068 405.663 570.86 406.134 572.423 406.134H572.431C575.746 406.13 578.938 404.346 581.917 400.829C584.132 398.213 586.019 395.124 587.524 391.648C589.134 387.925 589.915 384.762 589.912 381.985C589.909 377.846 587.528 374.041 582.775 370.631C578.705 367.791 573.461 365.596 566.74 363.922C560.364 362.336 553.208 361.532 545.472 361.532ZM545.472 364.936C552.932 364.936 559.811 365.707 565.916 367.225C572.227 368.798 577.105 370.825 580.79 373.397C584.581 376.117 586.505 379.008 586.508 381.988C586.51 384.292 585.82 387.01 584.399 390.296C583.028 393.464 581.319 396.267 579.32 398.629C577.016 401.346 574.698 402.726 572.423 402.728C571.359 402.728 569.941 402.332 567.952 401.475C566.383 400.806 565.04 400.262 563.96 399.859L563.892 399.833L563.822 399.81C558.93 398.219 553.765 397.412 548.471 397.412H548.418C539.79 397.421 535.908 399.126 534.171 400.553C531.715 402.568 530.523 404.761 530.525 407.254C530.528 410.44 531.384 413.078 533.065 415.087C534.912 417.304 537.1 419.049 539.749 420.418C542.576 421.881 546.822 423.831 552.409 426.23C560.635 429.641 567.476 432.942 572.739 436.039C578.199 439.256 582.99 443.934 586.977 449.942C591.018 456.034 593.072 463.86 593.08 473.204C593.09 484.539 590.615 493.99 585.722 501.296C580.823 508.605 574.429 513.981 566.717 517.275C559.118 520.522 550.817 522.173 542.048 522.181H541.889C531.576 522.181 522.415 521.16 514.659 519.144C506.714 517.081 500.62 514.474 496.03 511.176L495.987 511.145L495.944 511.116C491.343 508.021 489.009 504.718 489.006 501.296C489.004 498.785 489.859 495.949 491.622 492.621C493.284 489.479 495.285 486.66 497.574 484.245C499.247 482.478 501.797 480.13 504.606 480.128C505.569 480.128 507.087 480.464 511.645 482.907L511.749 482.961C516.213 485.159 520.315 486.899 523.939 488.134C527.42 489.32 531.592 489.922 536.34 489.922H536.397C541.606 489.916 546.073 488.893 549.672 486.883C552.928 485.066 554.509 481.862 554.504 477.088C554.5 473.217 552.987 470.252 549.874 468.023C546.363 465.513 540.517 462.624 532.54 459.451L532.448 459.414L522.375 455.095C513.055 450.715 505.607 445.176 500.237 438.631C494.749 431.944 491.961 422.407 491.95 410.285C491.941 400.185 494.51 391.603 499.587 384.776C504.631 377.993 511.315 372.925 519.451 369.714C527.466 366.553 536.183 364.946 545.364 364.936H545.472Z" stroke="white" stroke-width="14" stroke-linecap="round" stroke-linejoin="round"/>
<path d="M13.7051 251.132C13.4131 235.991 13.3041 220.851 13.1011 205.711L12.7981 160.29C12.6621 145.15 12.7011 130.009 12.6851 114.869L12.6631 69.4492L12.8791 24.0302L12.9111 18.3462C12.9361 17.3072 13.0111 16.0582 13.8411 14.8552C14.2531 14.2702 14.8571 13.8062 15.4621 13.5332C16.0721 13.2472 16.6711 13.1302 17.2381 13.0632C18.4181 12.9592 19.2541 13.0142 20.2271 12.9902L23.0651 12.9732L28.7431 12.9372C36.3121 12.8892 43.8811 12.8292 51.4511 12.8492L96.8711 12.8512L119.582 12.9842C127.152 13.0162 134.724 13.0812 142.295 13.1802C134.726 13.4222 127.158 13.6292 119.589 13.8032L96.8821 14.3632L51.4651 15.2172C43.8961 15.3802 36.3261 15.4622 28.7561 15.5562L23.0791 15.6272L20.2401 15.6622C19.3221 15.6852 18.2591 15.6592 17.5561 15.7352C16.7821 15.8202 16.2891 16.0722 16.0461 16.4292C15.7721 16.7962 15.6351 17.5332 15.6401 18.3622L15.6421 24.0332L15.6351 69.4542L15.3911 114.874C15.3021 130.014 15.2661 145.154 15.0571 160.294L14.5311 205.714C14.2541 220.853 14.0721 235.993 13.7051 251.132Z" stroke="white" stroke-width="14" stroke-linecap="round" stroke-linejoin="round"/>
<path d="M152.142 251.885L158.38 214.168L164.744 176.475L177.672 101.13C182.089 76.0344 186.422 50.9264 191.167 25.8844L192.049 21.1874L192.49 18.8394L192.71 17.6654C192.781 17.2034 192.929 16.6534 193.145 16.1774C193.571 15.2054 194.345 14.3004 195.353 13.7724C195.851 13.5034 196.39 13.3494 196.915 13.2624C197.452 13.1684 197.972 13.1934 198.328 13.1914L203.106 13.2334L222.461 12.8204C235.204 13.0004 248.476 12.2584 261.222 12.6864C248.482 13.2544 235.211 14.5694 222.469 14.8884L203.114 15.8494L198.335 15.9444C197.897 15.9574 197.615 15.9464 197.366 16.0004C197.109 16.0504 196.871 16.1194 196.671 16.2374C196.269 16.4624 195.949 16.8274 195.741 17.3154C195.635 17.5684 195.573 17.7934 195.527 18.1194L195.326 19.2974L194.117 26.3624C189.862 51.4894 185.195 76.5504 180.613 101.624L166.54 176.787L159.404 214.348L152.142 251.885Z" stroke="white" stroke-width="14" stroke-linecap="round" stroke-linejoin="round"/>
<path d="M350.883 257.42L350.204 182.63L349.6 107.841C349.406 82.9124 349.117 57.9834 349.154 33.0524L349.171 23.7034L349.18 19.0294L349.183 17.8604L349.184 17.2764L349.186 16.9744L349.208 16.5614C349.32 15.4574 349.882 14.4064 350.737 13.7114C351.162 13.3604 351.657 13.0924 352.185 12.9294C352.449 12.8504 352.72 12.7934 352.993 12.7624C353.276 12.7364 353.552 12.7344 353.715 12.7384L356.053 12.7554L360.727 12.7884L370.076 12.8954C382.541 13.0604 395.007 13.3644 407.473 13.9034C395.008 14.4784 382.544 14.8164 370.079 15.0164L360.731 15.1494L356.056 15.1954L353.719 15.2184C353.493 15.2184 353.379 15.2284 353.274 15.2374C353.16 15.2534 353.05 15.2794 352.941 15.3124C352.726 15.3834 352.525 15.4984 352.352 15.6474C352.004 15.9454 351.777 16.3694 351.736 16.8194L351.728 16.9904V17.2724L351.732 17.8574L351.737 19.0254L351.763 23.6994L351.815 33.0484C351.939 57.9784 351.738 82.9084 351.634 107.838L351.295 182.629L350.883 257.42Z" stroke="white" stroke-width="14" stroke-linecap="round" stroke-linejoin="round"/>
<path d="M80.0723 129.307C82.3013 130.895 84.9963 131.854 87.6593 131.818L95.8963 131.552C101.389 131.397 106.883 131.296 112.376 131.223C117.87 131.14 123.364 131.106 128.857 131.085L137.097 131.082C137.462 131.09 137.738 131.066 138.174 131.101C138.584 131.122 138.996 131.19 139.385 131.325C140.163 131.58 140.896 131.986 141.456 132.565C142.617 133.68 143.082 135.383 142.684 136.761C142.294 135.381 141.441 134.386 140.475 133.76C139.976 133.463 139.451 133.242 138.904 133.146C138.631 133.105 138.359 133.056 138.083 133.06C137.834 133.05 137.423 133.06 137.1 133.059L128.86 133.082C123.366 133.078 117.872 133.061 112.379 132.995C106.885 132.938 101.391 132.853 95.8973 132.716C93.1493 132.661 90.4073 132.566 87.6533 132.47C84.8133 132.316 82.1373 131.119 80.0723 129.307Z" stroke="white" stroke-width="14" stroke-linecap="round" stroke-linejoin="round"/>
<path d="M15.7743 17.4127C16.1453 16.9827 16.4103 17.0047 16.8433 16.7507C17.0433 16.6337 17.2483 16.5167 17.4443 16.3937C17.7783 16.1857 17.9233 15.9247 18.1183 15.6107C18.3823 15.1867 18.2423 14.4687 17.7613 14.2477C17.3023 14.0377 16.8853 13.9007 16.3803 14.0477C15.9883 14.1627 15.5123 14.4857 15.2363 14.7817C14.7363 15.3197 14.5723 16.2417 14.6553 16.9497C14.7143 17.4527 15.3623 17.8897 15.7743 17.4127Z" stroke="white" stroke-width="14" stroke-linecap="round" stroke-linejoin="round"/>
<path d="M195.388 18.0187C195.759 17.5887 196.024 17.6107 196.457 17.3567C196.657 17.2397 196.862 17.1227 197.058 16.9997C197.392 16.7917 197.537 16.5317 197.733 16.2167C197.996 15.7927 197.856 15.0747 197.375 14.8537C196.917 14.6437 196.499 14.5067 195.994 14.6537C195.602 14.7687 195.126 15.0917 194.851 15.3877C194.35 15.9257 194.186 16.8477 194.269 17.5557C194.329 18.0587 194.976 18.4957 195.388 18.0187Z" stroke="white" stroke-width="14" stroke-linecap="round" stroke-linejoin="round"/>
<path d="M352.269 18.1837C352.64 17.7537 352.905 17.7757 353.337 17.5217C353.538 17.4047 353.744 17.2877 353.939 17.1647C354.274 16.9567 354.418 16.6967 354.614 16.3817C354.877 15.9577 354.738 15.2397 354.256 15.0187C353.797 14.8097 353.38 14.6717 352.875 14.8197C352.483 14.9337 352.007 15.2567 351.732 15.5527C351.232 16.0907 351.067 17.0127 351.15 17.7207C351.209 18.2237 351.858 18.6607 352.269 18.1837Z" stroke="white" stroke-width="14" stroke-linecap="round" stroke-linejoin="round"/>
<path d="M481.286 257.75L480.607 182.961L480.003 108.172C479.809 83.2424 479.52 58.3134 479.557 33.3824L479.574 24.0344L479.584 19.3594L479.587 17.6064L479.589 17.3044L479.611 16.8914C479.723 15.7874 480.285 14.7374 481.14 14.0414C481.565 13.6904 482.06 13.4224 482.588 13.2594C482.852 13.1804 483.123 13.1234 483.396 13.0924C483.679 13.0674 483.955 13.0644 484.118 13.0684L486.456 13.0854L491.13 13.1194L500.479 13.2254C512.944 13.3904 525.41 13.6944 537.876 14.2344C525.411 14.8084 512.947 15.1474 500.482 15.3464L491.134 15.4794L486.459 15.5254L484.122 15.5494C483.896 15.5484 483.783 15.5584 483.677 15.5674C483.563 15.5834 483.453 15.6094 483.344 15.6424C483.129 15.7144 482.928 15.8284 482.755 15.9774C482.408 16.2754 482.18 16.7004 482.139 17.1494L482.131 17.3204V17.6024L482.135 18.1874L482.14 19.3554L482.166 24.0294L482.218 33.3784C482.342 58.3084 482.142 83.2384 482.037 108.168L481.698 182.959L481.286 257.75Z" stroke="white" stroke-width="14" stroke-linecap="round" stroke-linejoin="round"/>
<path d="M482.672 18.5137C483.043 18.0837 483.309 18.1067 483.74 17.8517C483.941 17.7347 484.147 17.6177 484.342 17.4957C484.677 17.2867 484.821 17.0267 485.017 16.7127C485.28 16.2887 485.141 15.5697 484.659 15.3497C484.2 15.1397 483.783 15.0017 483.278 15.1497C482.886 15.2637 482.41 15.5877 482.135 15.8837C481.635 16.4217 481.47 17.3427 481.554 18.0507C481.612 18.5537 482.261 18.9907 482.672 18.5137Z" stroke="white" stroke-width="14" stroke-linecap="round" stroke-linejoin="round"/>
<path d="M138.616 376.807C135.329 375.399 132.052 373.972 128.709 372.758C125.364 371.553 121.949 370.563 118.478 369.935C111.481 368.684 104.419 367.527 97.4088 367.493C90.3508 367.574 83.2608 368.113 76.3318 369.377C69.3878 370.575 62.5968 372.547 56.1738 375.337C52.9858 376.777 49.8488 378.341 46.8988 380.216C43.9638 382.104 41.1208 384.147 38.5248 386.482C33.2708 391.082 28.8798 396.634 25.4328 402.743C23.7168 405.8 22.2188 408.994 20.9908 412.297C19.6968 415.578 18.7248 418.985 17.8818 422.423C16.1938 429.314 15.4088 436.421 15.0558 443.561C14.7198 436.415 15.2068 429.219 16.4238 422.116C17.1028 418.578 17.9468 415.057 19.1148 411.628C20.2178 408.178 21.6838 404.844 23.3468 401.613C26.6698 395.138 31.2198 389.28 36.6028 384.34C39.2808 381.845 42.2608 379.705 45.3118 377.706C48.3848 375.728 51.6408 374.068 54.9558 372.555C61.6608 369.705 68.6938 367.681 75.8468 366.549C83.0058 365.414 90.2218 364.93 97.4498 365.13C104.75 365.38 111.808 366.88 118.791 368.488C125.839 370.241 132.368 373.362 138.616 376.807Z" stroke="white" stroke-width="14" stroke-linecap="round" stroke-linejoin="round"/>
<path d="M205.591 366.846C200.626 367.517 195.658 368.079 190.686 368.529C188.198 368.792 185.699 368.909 183.295 369.284C182.106 369.45 180.884 369.645 179.926 369.992C179.449 370.159 179.096 370.386 179 370.539C178.906 370.669 178.811 370.899 178.783 371.41L178.767 375.046C178.754 376.295 178.757 377.543 178.723 378.792L178.549 386.283L178.124 401.262L177.372 431.22L176.477 461.176C176.474 461.259 176.405 461.324 176.322 461.322C176.242 461.319 176.178 461.253 176.177 461.173L175.896 431.207L175.759 401.245L175.642 386.265L175.621 378.775C175.612 377.527 175.642 376.279 175.654 375.031L175.684 373.158C175.706 372.523 175.692 371.956 175.75 371.177C175.784 370.798 175.842 370.379 175.991 369.92C176.136 369.465 176.396 368.971 176.753 368.579C177.488 367.784 178.32 367.476 179.017 367.252C180.44 366.833 181.716 366.727 183.002 366.604C185.562 366.416 188.062 366.418 190.558 366.393C195.56 366.332 200.567 366.386 205.576 366.546C205.659 366.549 205.724 366.618 205.721 366.701C205.719 366.777 205.663 366.836 205.591 366.846Z" stroke="white" stroke-width="14" stroke-linecap="round" stroke-linejoin="round"/>
<path d="M303.023 366.846C298.992 367.395 294.958 367.853 290.922 368.261C286.91 368.704 282.769 368.868 278.974 369.568C278.065 369.744 277.111 370.005 276.65 370.336C276.425 370.507 276.39 370.583 276.316 370.77C276.247 370.962 276.206 371.341 276.204 371.778C276.211 373.749 276.201 375.818 276.134 377.832C276.048 381.886 275.823 385.94 275.694 389.993L274.872 414.315L273.909 438.632C273.905 438.715 273.836 438.78 273.753 438.777C273.673 438.774 273.61 438.707 273.609 438.628L273.314 414.298L273.159 389.971C273.142 385.917 273.028 381.863 273.054 377.809C273.042 375.77 273.088 373.783 273.15 371.7C273.179 371.128 273.211 370.48 273.494 369.717C273.763 368.942 274.433 368.219 275.066 367.854C276.349 367.122 277.439 367.001 278.51 366.817C279.578 366.665 280.611 366.579 281.644 366.527L283.198 366.458L284.721 366.432C286.75 366.386 288.783 366.394 290.813 366.373C294.876 366.367 298.94 366.411 303.007 366.546C303.09 366.549 303.156 366.618 303.153 366.702C303.15 366.777 303.094 366.836 303.023 366.846Z" stroke="white" stroke-width="14" stroke-linecap="round" stroke-linejoin="round"/>
<path d="M144.305 433.739C143.938 433.2 143.57 432.762 143.085 432.561C142.612 432.343 142.055 432.273 141.478 432.273L137.748 432.436L130.173 432.773L115.017 433.433L99.854 434.006L96.063 434.149L94.167 434.22C93.451 434.241 93.117 434.259 92.712 434.389C92.332 434.518 92.05 434.699 91.811 434.896C91.693 434.999 91.578 435.111 91.479 435.26C91.343 435.458 91.179 435.726 91.042 435.972C90.472 436.988 89.95 438.122 89.439 439.346L89.436 439.354C89.402 439.437 89.306 439.476 89.223 439.442C89.18 439.424 89.147 439.388 89.133 439.346C88.668 438.045 88.552 436.661 88.708 435.258C88.76 434.9 88.801 434.57 88.904 434.184C89.042 433.747 89.266 433.316 89.563 432.943C90.156 432.183 91.007 431.706 91.834 431.47C92.642 431.215 93.59 431.24 94.133 431.237L96.026 431.224L99.813 431.199L114.962 431.096L130.117 431.081L137.698 431.08H139.593C140.222 431.091 140.848 431.053 141.546 431.114C142.222 431.183 142.948 431.37 143.554 431.82C144.175 432.278 144.457 433.004 144.578 433.615L144.58 433.624C144.597 433.706 144.543 433.786 144.461 433.802C144.399 433.815 144.338 433.788 144.305 433.739Z" stroke="white" stroke-width="14" stroke-linecap="round" stroke-linejoin="round"/>
<path d="M479.544 367.717C476.151 367.954 472.757 368.163 469.361 368.339C465.965 368.5 462.569 368.705 459.173 368.831L448.997 369.232C447.366 369.302 445.775 369.454 444.306 369.828C442.84 370.198 441.514 370.771 440.685 371.779L440.642 371.832C440.276 372.277 439.62 372.341 439.176 371.976C438.8 371.667 438.696 371.151 438.894 370.729C439.343 369.773 440.097 368.973 440.92 368.406C441.749 367.831 442.65 367.449 443.547 367.163C445.351 366.614 447.176 366.461 448.935 366.468L459.137 366.426C462.532 366.404 465.93 366.458 469.326 366.471C472.724 366.497 476.121 366.557 479.521 366.645C479.817 366.653 480.051 366.9 480.043 367.196C480.036 367.474 479.816 367.696 479.544 367.717Z" stroke="white" stroke-width="14" stroke-linecap="round" stroke-linejoin="round"/>
<path d="M577.798 375.403C573.935 372.988 569.652 371.341 565.266 370.214C560.873 369.082 556.364 368.466 551.845 368.208C547.324 367.94 542.778 367.966 538.306 368.445C533.828 368.932 529.409 369.865 525.152 371.259C520.889 372.668 516.82 374.527 513.181 377.033C511.345 378.255 509.625 379.639 508.008 381.128C506.387 382.611 504.854 384.197 503.459 385.906C500.63 389.273 498.469 393.15 496.961 397.34C495.47 401.534 494.618 406.001 494.21 410.553C494.203 410.636 494.13 410.697 494.047 410.69C493.974 410.684 493.916 410.625 493.91 410.553C493.504 405.979 493.753 401.273 494.944 396.724C496.096 392.174 498.223 387.806 501.11 384.042C503.965 380.269 507.566 377.061 511.562 374.543C515.584 372.052 519.984 370.261 524.441 368.967C528.911 367.664 533.509 366.852 538.128 366.504C542.756 366.162 547.378 366.29 551.963 366.713C556.547 367.176 561.104 368.004 565.509 369.347C569.907 370.684 574.178 372.549 577.963 375.152C578.031 375.199 578.048 375.292 578.001 375.36C577.956 375.426 577.866 375.445 577.798 375.403Z" stroke="white" stroke-width="14" stroke-linecap="round" stroke-linejoin="round"/>
<path d="M549 488.722C548.082 489.766 546.885 490.575 545.637 491.218C544.383 491.867 543.054 492.361 541.695 492.77C540.33 493.156 538.929 493.433 537.481 493.566C536.761 493.642 536.017 493.633 535.274 493.598L533.23 493.491C531.861 493.432 530.476 493.377 529.064 493.233C527.653 493.088 526.206 492.894 524.744 492.45C522.143 491.622 519.479 490.849 516.827 489.837C515.517 489.31 514.206 488.739 512.93 488.055C511.71 487.389 510.52 486.773 509.318 486.165C508.132 485.565 506.905 484.983 505.778 484.655C505.505 484.579 505.231 484.519 505.031 484.509C504.8 484.507 504.483 484.496 504.227 484.535C503.682 484.578 503.159 484.717 502.657 484.965C501.643 485.444 500.745 486.345 499.818 487.332C499.352 487.826 498.878 488.35 498.346 488.857C497.851 489.323 497.379 489.794 496.906 490.281C495.011 492.211 493.332 494.373 491.753 496.649C492.747 494.059 494.131 491.611 495.783 489.332C496.199 488.767 496.647 488.215 497.094 487.678C497.505 487.182 497.896 486.634 498.312 486.073C499.142 484.959 500.123 483.767 501.537 482.913C502.236 482.488 503.044 482.189 503.862 482.048C504.281 481.957 504.66 481.953 505.113 481.937C505.603 481.943 506.008 482.021 506.402 482.105C507.942 482.472 509.236 483.035 510.536 483.603C511.822 484.175 513.072 484.832 514.283 485.456C515.443 486.054 516.669 486.564 517.919 487.043C520.393 488.048 523.016 488.827 525.63 489.753C527.96 490.593 530.708 490.767 533.437 491.158L535.503 491.442C536.132 491.527 536.764 491.579 537.418 491.597C538.723 491.634 540.057 491.528 541.38 491.328C542.708 491.147 544.025 490.845 545.317 490.448C546.604 490.038 547.87 489.526 549 488.722Z" stroke="white" stroke-width="14" stroke-linecap="round" stroke-linejoin="round"/>
<path d="M391.35 445.786L390.492 517.456C390.489 517.706 390.285 517.906 390.035 517.902C389.789 517.899 389.591 517.701 389.588 517.457L388.622 445.788C388.613 445.035 389.215 444.416 389.968 444.406C390.721 444.396 391.339 444.998 391.35 445.751V445.786Z" stroke="white" stroke-width="14" stroke-linecap="round" stroke-linejoin="round"/>
<path d="M380.344 368.062C376.892 368.306 373.44 368.476 369.987 368.636C366.533 368.79 363.08 368.899 359.627 368.992C356.173 369.085 352.72 369.153 349.266 369.193C347.548 369.219 345.791 369.269 344.11 369.172C343.282 369.147 342.424 369.098 341.799 369.128C341.658 369.13 341.521 369.157 341.506 369.136C341.455 369.134 341.559 368.968 341.52 368.887C341.426 368.766 341.429 369.22 341.529 369.575L341.552 369.658C341.657 370.032 341.44 370.421 341.065 370.527C340.786 370.606 340.498 370.503 340.326 370.292C340.164 370.092 339.979 369.925 339.84 369.649C339.763 369.532 339.694 369.382 339.643 369.194C339.578 369.037 339.555 368.804 339.574 368.556C339.574 368.328 339.7 368.027 339.825 367.808C339.963 367.614 340.16 367.385 340.309 367.292C340.474 367.167 340.651 367.062 340.785 367.005C340.931 366.937 341.09 366.863 341.213 366.826C342.275 366.47 343.156 366.391 344.052 366.321C345.824 366.181 347.52 366.249 349.256 366.236C352.708 366.231 356.161 366.253 359.615 366.302C363.068 366.35 366.521 366.415 369.975 366.522C373.428 366.637 376.882 366.762 380.337 366.961C380.641 366.979 380.873 367.24 380.856 367.543C380.84 367.824 380.616 368.043 380.344 368.062Z" stroke="white" stroke-width="14" stroke-linecap="round" stroke-linejoin="round"/>
<path d="M36.2635 387.838C40.5341 384.152 44.9922 381.101 49.6817 378.003C50.1668 377.68 49.8707 376.772 49.2606 377.003C43.9736 378.992 39.5822 383.368 36.1248 387.699C36.0471 387.797 36.1665 387.921 36.2635 387.838Z" stroke="white" stroke-width="14" stroke-linecap="round" stroke-linejoin="round"/>
<path d="M178.548 371.497C179.474 371.042 180.544 370.814 181.528 370.516C182.194 370.313 182.616 369.613 182.428 368.93C182.223 368.184 181.535 367.936 180.842 368.029C179.304 368.236 178.089 369.309 177.572 370.747C177.361 371.337 178.072 371.73 178.548 371.497Z" stroke="white" stroke-width="14" stroke-linecap="round" stroke-linejoin="round"/>
<path d="M274.829 371.895C276.188 371.497 277.647 371.336 278.877 370.615C279.955 369.981 279.38 368.549 278.286 368.431C276.559 368.246 275.184 369.523 274.182 370.785C273.8 371.267 274.134 372.098 274.829 371.895Z" stroke="white" stroke-width="14" stroke-linecap="round" stroke-linejoin="round"/>
<path d="M346.982 367.018C345.082 366.766 342.729 365.813 341.118 367.372C340.574 367.898 341.021 368.72 341.697 368.771C343.478 368.909 345.209 367.689 346.982 367.564C347.341 367.539 347.326 367.063 346.982 367.018Z" stroke="white" stroke-width="14" stroke-linecap="round" stroke-linejoin="round"/>
<path d="M447.443 367.744C445.771 367.267 444.208 367.18 442.801 368.32C441.957 369.006 443.037 370.058 443.866 369.701C445.071 369.184 446.162 368.487 447.444 368.159C447.652 368.105 447.643 367.802 447.443 367.744Z" stroke="white" stroke-width="14" stroke-linecap="round" stroke-linejoin="round"/>
<path d="M510.256 377.732C514.63 374.5 519.755 372.679 524.941 371.243C526.228 370.887 525.664 369.08 524.401 369.285C518.719 370.2 514.019 373.453 509.974 377.363C509.787 377.544 510.038 377.893 510.256 377.732Z" stroke="white" stroke-width="14" stroke-linecap="round" stroke-linejoin="round"/>
<path d="M529.088 369.725C529.491 369.56 529.942 369.414 530.385 369.453C530.617 369.472 530.837 369.548 531.075 369.536C531.326 369.522 531.575 369.441 531.824 369.404C532.174 369.351 532.426 368.941 532.426 368.613C532.426 368.229 532.165 367.951 531.824 367.822C531.13 367.557 530.639 367.647 529.98 367.957C529.467 368.198 529.02 368.528 528.632 368.942C528.341 369.252 528.626 369.914 529.088 369.725Z" stroke="white" stroke-width="14" stroke-linecap="round" stroke-linejoin="round"/>
<path d="M500.726 486.686C501.921 485.681 503.264 485.121 504.799 484.875C505.939 484.695 505.685 482.708 504.524 482.843C502.508 483.074 500.656 484.352 500.333 486.457C500.299 486.69 500.538 486.843 500.726 486.686Z" stroke="white" stroke-width="14" stroke-linecap="round" stroke-linejoin="round"/>
<path d="M55.1728 375.37C55.6828 374.886 56.2588 374.485 56.9328 374.265C57.5818 374.052 58.2478 374.011 58.8968 373.791C59.7078 373.516 59.8298 372.238 58.8968 372.02C56.9528 371.566 55.1448 373.017 54.0988 374.542C53.6478 375.199 54.6268 375.891 55.1728 375.37Z" stroke="white" stroke-width="14" stroke-linecap="round" stroke-linejoin="round"/>
<path d="M475.622 12.1716L416.302 101.389L359.83 9.79883L348.915 10.2734C346.542 10.748 344.169 13.1208 344.169 15.4936L308.102 227.622L297.188 194.403L154.345 13.5953C154.345 13.5953 152.921 12.6462 151.972 13.1208L112.583 35.8997L50.8903 72.9154L53.7377 295.01L70.8219 356.228L38.5518 376.634C38.5518 376.634 22.8912 425.989 24.7895 429.311C26.6877 432.158 38.5518 487.207 40.9246 490.055C42.8228 492.902 93.6008 511.884 93.6008 511.884L146.752 515.206L173.802 468.225L223.631 507.139L264.917 504.291L311.424 436.904C311.899 435.955 313.323 435.955 314.272 436.904L385.456 522.799C385.93 523.748 399.693 521.85 400.167 520.427L431.014 438.802C431.488 437.853 432.912 437.853 433.861 438.802L487.961 508.562L544.434 509.512C544.434 509.512 598.059 468.699 590.466 450.666C582.873 433.107 553.925 421.243 542.061 413.65C532.095 407.006 527.35 404.634 532.095 392.77C534.943 386.126 546.332 386.6 557.721 387.075C567.687 387.549 577.653 387.549 581.45 383.753C589.043 374.736 583.348 370.465 583.348 370.465C574.331 363.347 550.128 357.177 550.128 357.177L593.788 306.874L590.466 289.79C590.466 288.841 590.941 286.468 589.517 286.468L540.163 281.722L493.181 11.6971L480.843 9.79883C478.47 9.79883 477.046 10.748 475.622 12.1716Z" fill="url(#paint0_linear_628_519)"/>
<path d="M484.88 357.721C480.07 357.721 476.151 353.808 476.144 348.998L475.675 17.7869C475.669 12.9709 479.582 9.04687 484.398 9.03987L538.129 8.96387C542.946 8.96387 546.869 12.8769 546.877 17.6869L547.247 279.109C547.253 283.937 551.187 287.864 556.014 287.864L588.437 287.818C593.254 287.818 597.177 291.731 597.185 296.54L597.259 348.825C597.261 351.159 596.356 353.354 594.709 355.005C593.063 356.658 590.87 357.57 588.536 357.574L484.893 357.721H484.88Z" fill="#30D8DE"/>
<path d="M538.13 7.27686H538.125L484.395 7.35284C478.65 7.36184 473.982 12.0438 473.989 17.7888L474.458 349C474.467 354.738 479.142 359.406 484.879 359.406L588.537 359.259C591.322 359.255 593.939 358.167 595.903 356.195C597.866 354.226 598.947 351.608 598.944 348.824L598.87 296.538C598.861 290.8 594.182 286.132 588.438 286.132L556.009 286.178C552.114 286.178 548.938 283.005 548.933 279.107L548.563 17.6839C548.554 11.9449 543.874 7.27686 538.13 7.27686ZM538.13 10.6489C542.022 10.6489 545.184 13.8068 545.19 17.6888L545.56 279.111C545.567 284.867 550.257 289.55 556.013 289.55L588.438 289.504C592.329 289.504 595.491 292.661 595.497 296.543L595.571 348.827C595.573 350.71 594.843 352.482 593.514 353.815C592.185 355.149 590.415 355.884 588.532 355.887L484.89 356.034H484.879C480.998 356.034 477.836 352.876 477.83 348.995L477.361 17.7838C477.356 13.8978 480.514 10.7319 484.4 10.7259L538.13 10.6489Z" fill="#08AFBB"/>
<path d="M19.7262 358.313C14.0252 358.313 9.38021 353.674 9.37221 347.973L8.90821 19.9249C8.90421 17.1599 9.97721 14.5579 11.9302 12.5999C13.8832 10.6409 16.4822 9.56088 19.2472 9.55688L144.125 9.37988C146.911 9.37988 149.514 10.4599 151.471 12.4219C153.428 14.3849 154.501 16.9919 154.494 19.7639L154.429 69.5399C154.413 75.2279 149.774 79.8579 144.089 79.8659L89.8992 79.9429C88.0352 79.9449 86.2832 80.6739 84.9652 81.9949C83.6492 83.3149 82.9252 85.0689 82.9282 86.9339L82.9762 120.938C82.9812 124.782 86.1132 127.91 89.9572 127.91L138.654 127.841C144.369 127.841 149.013 132.479 149.022 138.18L149.092 187.958C149.1 193.667 144.462 198.318 138.752 198.327L90.0672 198.396C88.2032 198.398 86.4512 199.127 85.1332 200.448C83.8172 201.768 83.0932 203.522 83.0962 205.387L83.2982 347.869C83.3052 353.578 78.6662 358.229 72.9572 358.238L19.7262 358.313Z" fill="#30D8DE"/>
<path d="M144.14 7.69287H144.127L19.2437 7.86987C16.0287 7.87387 13.0067 9.13087 10.7357 11.4079C8.46469 13.6859 7.21669 16.7108 7.22169 19.9268L7.6857 347.976C7.6957 354.605 13.0967 359.998 19.7257 359.998L72.9607 359.923C76.1767 359.918 79.1977 358.661 81.4687 356.385C83.7397 354.108 84.9877 351.082 84.9837 347.866L84.7817 205.384C84.7797 203.969 85.3287 202.639 86.3267 201.637C87.3257 200.636 88.6547 200.083 90.0697 200.081L138.756 200.012C141.972 200.007 144.994 198.751 147.264 196.474C149.535 194.196 150.783 191.171 150.779 187.955L150.708 138.177C150.699 131.547 145.298 126.154 138.668 126.154L89.9647 126.223C87.0417 126.223 84.6657 123.851 84.6617 120.935L84.6137 86.9309C84.6117 85.5169 85.1607 84.1859 86.1597 83.1849C87.1587 82.1829 88.4877 81.6309 89.9017 81.6279L144.092 81.5509C150.702 81.5419 156.096 76.1569 156.115 69.5469L156.18 19.7629C156.189 16.5459 154.941 13.5139 152.665 11.2319C150.39 8.94987 147.362 7.69287 144.14 7.69287ZM144.14 11.0648C148.936 11.0648 152.821 14.9609 152.807 19.7579L152.743 69.5369C152.729 74.3099 148.86 78.1719 144.088 78.1789L89.8967 78.2559C85.1097 78.2629 81.2347 82.1489 81.2417 86.9359L81.2897 120.94C81.2967 125.723 85.1757 129.595 89.9567 129.595H89.9697L138.656 129.526H138.668C143.45 129.526 147.329 133.399 147.336 138.182L147.406 187.96C147.413 192.747 143.538 196.633 138.751 196.64L90.0647 196.709C85.2777 196.715 81.4027 200.602 81.4097 205.389L81.6107 347.871C81.6177 352.657 77.7427 356.544 72.9557 356.551L19.7387 356.626H19.7257C14.9447 356.626 11.0647 352.754 11.0577 347.971L10.5937 19.9219C10.5867 15.1349 14.4617 11.2489 19.2487 11.2419L144.127 11.0648H144.14Z" fill="#08AFBB"/>
<path d="M138.885 358.074C136.139 358.074 133.609 356.822 131.943 354.64C130.277 352.459 129.735 349.688 130.457 347.04L189.086 15.7404L189.11 15.6584C190.169 11.9264 193.619 9.31543 197.5 9.31043L267.199 9.21143C271.107 9.21143 274.57 11.8334 275.621 15.5874L275.645 15.6684L333.837 346.806C334.537 349.506 333.986 352.232 332.34 354.382C330.678 356.556 328.154 357.805 325.415 357.809L274.269 357.883C270.24 357.883 266.75 355.157 265.78 351.256L249.423 295.81C248.442 291.866 244.95 289.16 240.915 289.16L220.232 289.19C216.211 289.196 212.719 291.924 211.74 295.823L196.981 351.394C196.007 355.27 192.526 357.997 188.521 358.004L138.897 358.074H138.885Z" fill="#30D8DE"/>
<path d="M267.202 7.5249H267.197L197.497 7.6239C192.869 7.6299 188.752 10.7449 187.488 15.1969L187.441 15.3619L187.411 15.5309L128.809 346.678C127.977 349.798 128.627 353.077 130.603 355.664C132.591 358.268 135.61 359.76 138.885 359.76L188.523 359.69C193.303 359.683 197.455 356.432 198.621 351.783L213.365 296.278C214.166 293.084 216.987 290.881 220.235 290.876L240.921 290.847C244.175 290.847 246.993 293.026 247.768 296.147L247.785 296.218L247.806 296.288L264.163 351.74C265.348 356.354 269.492 359.568 274.267 359.568L325.418 359.495C328.684 359.491 331.696 358.001 333.68 355.406C335.649 352.833 336.305 349.568 335.485 346.439L277.32 15.4589L277.291 15.2939L277.246 15.1319C275.99 10.6529 271.86 7.5249 267.202 7.5249ZM267.202 10.8969C270.368 10.8969 273.148 13.0089 273.999 16.0429L332.189 347.167L332.209 347.241C332.784 349.374 332.344 351.603 331.002 353.358C329.66 355.112 327.622 356.12 325.413 356.123L274.267 356.196C271.014 356.196 268.2 353.997 267.416 350.849L251.041 295.334C249.898 290.735 245.727 287.475 240.916 287.475L220.23 287.504C215.435 287.511 211.272 290.764 210.105 295.413L195.351 350.962C194.558 354.119 191.751 356.313 188.518 356.317L138.895 356.388H138.885C136.67 356.388 134.628 355.378 133.283 353.617C131.938 351.857 131.501 349.621 132.085 347.483L132.105 347.408L190.732 16.1179C191.588 13.1029 194.362 11.0009 197.502 10.9959L267.202 10.8969Z" fill="#08AFBB"/>
<path d="M354.66 357.518C349.85 357.518 345.932 353.605 345.925 348.795L345.455 17.5837C345.449 12.7677 349.362 8.84374 354.178 8.83674L407.909 8.76074C412.726 8.76074 416.649 12.6737 416.657 17.4837L417.027 278.906C417.033 283.734 420.967 287.661 425.794 287.661L458.218 287.615C463.034 287.615 466.957 291.528 466.965 296.337L467.039 348.622C467.041 350.956 466.136 353.152 464.489 354.803C462.842 356.455 460.649 357.367 458.316 357.371L354.672 357.518H354.66Z" fill="#30D8DE"/>
<path d="M407.911 7.0752H407.906L354.176 7.15118C348.43 7.15918 343.762 11.8412 343.769 17.5872L344.238 348.798C344.247 354.536 348.922 359.204 354.659 359.204L458.317 359.056C461.102 359.053 463.718 357.965 465.682 355.994C467.647 354.024 468.727 351.405 468.724 348.621L468.65 296.336C468.641 290.597 463.962 285.929 458.219 285.929L425.789 285.975C421.894 285.975 418.718 282.803 418.713 278.904L418.343 17.4822C418.334 11.7432 413.654 7.0752 407.911 7.0752ZM407.911 10.4482C411.802 10.4482 414.964 13.6052 414.97 17.4862L415.34 278.909C415.348 284.665 420.037 289.347 425.793 289.347L458.219 289.302C462.11 289.302 465.272 292.459 465.278 296.341L465.351 348.625C465.354 350.509 464.624 352.28 463.294 353.613C461.965 354.946 460.196 355.681 458.312 355.684L354.67 355.832H354.659C350.778 355.832 347.616 352.674 347.61 348.793L347.141 17.5822C347.136 13.6962 350.294 10.5292 354.181 10.5232L407.911 10.4482Z" fill="#08AFBB"/>
<path d="M91.0161 525.005C61.5161 525.005 38.5881 514.818 29.7681 505.355C17.5741 492.277 11.3771 471.486 11.3511 443.559C11.3041 391.666 41.6181 361.873 94.5201 361.819C101.218 361.819 108.188 362.989 116.612 364.747C124.736 366.443 131.7 369.917 136.785 372.453L137.86 372.988C143.892 375.984 147.148 379.799 147.15 381.869C147.151 383.446 144.271 391.047 142.318 395.008C139.777 400.153 136.37 406.426 134.429 408.596C132.391 410.873 130.123 411.687 128.68 411.689C128.663 411.687 127.753 411.616 124.065 410.128C122.967 409.686 121.343 408.844 119.463 407.868C115.759 405.947 111.149 403.556 107.699 402.801C107.037 402.656 106.36 402.499 105.665 402.337C102.358 401.567 98.6091 400.694 94.2781 400.694C92.5601 400.694 90.8381 400.836 89.1611 401.115C80.3671 402.583 68.9611 407.689 64.1751 414.61C57.8751 423.721 55.3191 428.127 55.3191 445.93C55.3191 458.684 58.9961 469.151 65.9541 476.2C72.5981 482.932 82.0951 486.49 93.4181 486.489C99.6841 486.483 103.687 485.948 109.802 484.827L111.199 484.57L111.172 463.716L91.1071 463.736C88.6221 463.736 87.6851 462.634 87.1961 461.806C86.2661 460.232 85.7921 457.567 85.7881 453.888L85.7781 438.505C85.7741 434.825 86.2431 432.16 87.1701 430.586C87.6601 429.753 88.5961 428.648 91.0781 428.645L139.76 428.599C142.56 428.599 144.549 429.171 145.697 430.299C146.833 431.423 147.412 433.387 147.415 436.133L147.478 508.37C147.483 514.451 142.188 518.6 131.289 521.053C121.137 523.337 108.764 524.621 93.4631 524.977C92.6541 524.995 91.8381 525.005 91.0161 525.005Z" fill="#F73CA3"/>
<path d="M94.576 360.118H94.518C42.472 360.172 9.59898 388.714 9.64898 443.561C9.67598 472.065 15.966 493.051 28.523 506.516C40.636 519.514 68.042 526.708 91.014 526.708C91.851 526.708 92.679 526.699 93.503 526.68C106.431 526.38 119.979 525.345 131.662 522.715C143.347 520.085 149.186 515.302 149.18 508.369L149.117 436.133C149.114 432.896 148.37 430.551 146.889 429.086C145.409 427.629 143.041 426.897 139.781 426.897H139.759L91.076 426.944C88.582 426.946 86.79 427.874 85.703 429.722C84.614 431.573 84.072 434.502 84.075 438.507L84.086 453.891C84.09 457.899 84.637 460.823 85.73 462.672C86.819 464.516 88.609 465.439 91.098 465.439H91.109L109.472 465.421L109.494 483.154C103.572 484.239 99.701 484.781 93.471 484.788H93.417C71.939 484.788 57.021 471.654 57.021 445.931C57.021 428.522 59.39 424.523 65.576 415.579C69.951 409.252 80.741 404.247 89.44 402.797C91.129 402.514 92.741 402.397 94.28 402.397C99.309 402.397 103.576 403.644 107.335 404.465C112.244 405.539 119.997 410.326 123.428 411.709C126.852 413.09 128.212 413.391 128.68 413.391C130.55 413.389 133.282 412.431 135.698 409.732C138.11 407.036 142.132 399.23 143.845 395.763C145.555 392.294 148.854 384.028 148.852 381.869C148.849 378.788 144.798 374.533 138.617 371.465C133.378 368.864 125.891 364.945 116.959 363.082C109.226 361.469 101.724 360.118 94.576 360.118ZM94.576 363.522C101.072 363.523 107.944 364.679 116.263 366.415C124.172 368.064 131.022 371.482 136.024 373.977L137.103 374.514C143.325 377.603 145.403 380.975 145.447 381.846C145.313 383.398 142.676 390.432 140.792 394.255C138.414 399.07 134.989 405.418 133.161 407.462C131.561 409.25 129.847 409.931 128.807 409.984C128.53 409.927 127.456 409.662 124.701 408.551C123.679 408.139 122.013 407.274 120.25 406.36C116.456 404.391 111.734 401.942 108.061 401.139C107.407 400.996 106.737 400.84 106.05 400.68C102.654 399.889 98.805 398.993 94.28 398.993C92.467 398.993 90.65 399.142 88.88 399.438C79.735 400.963 67.831 406.332 62.775 413.642C56.261 423.063 53.617 427.616 53.617 445.931C53.617 459.141 57.464 470.023 64.742 477.397C71.712 484.46 81.628 488.193 93.417 488.193L93.474 488.192C99.812 488.186 103.888 487.642 110.108 486.503L112.903 485.991L112.899 483.149L112.876 465.417L112.872 462.013L109.468 462.016L91.098 462.035C89.308 462.035 88.888 461.323 88.661 460.938C88.225 460.203 87.495 458.308 87.491 453.889L87.48 438.504C87.476 434.084 88.203 432.187 88.639 431.448C88.864 431.064 89.284 430.35 91.08 430.348L139.781 430.303C142.064 430.303 143.697 430.722 144.495 431.506C145.289 432.292 145.71 433.892 145.712 436.136L145.775 508.372C145.777 510.27 145.782 516.047 130.915 519.393C120.872 521.653 108.609 522.924 93.424 523.276C92.626 523.295 91.825 523.304 91.014 523.304C70.047 523.304 42.704 516.74 31.013 504.195C19.121 491.442 13.079 471.041 13.054 443.558C13.03 417.684 20.378 397.564 34.894 383.759C48.785 370.546 69.405 363.549 94.523 363.522H94.576Z" fill="#E81A87"/>
<path d="M243.65 525.162C221.758 525.162 203.03 520.05 192.267 511.137C179.728 500.763 172.814 486.474 172.799 470.902L172.699 369.404C172.698 368.023 172.694 363.818 184.76 363.806L205.154 363.794C217.22 363.794 217.224 367.989 217.226 369.368L217.322 457.018C217.33 466.305 220.013 473.003 225.765 478.098C232.386 483.967 239.867 484.843 243.737 484.843C249.543 484.837 255.703 484.378 261.853 478.977C267.52 474 270.389 466.594 270.379 456.965L270.283 369.313C270.282 367.933 270.278 363.727 282.343 363.716L302.509 363.703C314.575 363.703 314.579 367.898 314.581 369.277L314.681 470.775C314.695 486.338 307.808 500.64 295.287 511.044C284.518 519.994 265.748 525.14 243.789 525.162H243.65Z" fill="#F73CA3"/>
<path d="M302.561 362.002H302.508L282.342 362.014C273.164 362.023 268.577 364.458 268.581 369.315L268.677 456.967C268.685 465.017 266.612 472.531 260.729 477.698C254.844 482.867 248.925 483.136 243.759 483.141H243.734C239.363 483.141 232.701 481.971 226.894 476.824C221.074 471.669 219.032 465.067 219.024 457.017L218.928 369.366C218.924 364.519 214.349 362.092 205.206 362.092H205.153L184.758 362.105C175.58 362.113 170.993 364.549 170.997 369.406L171.097 470.904C171.114 488.367 179.544 502.82 191.181 512.449C202.788 522.06 222.592 526.864 243.651 526.864H243.791C264.903 526.843 284.756 522.01 296.375 512.354C307.991 502.701 316.4 488.236 316.383 470.774L316.283 369.275C316.279 364.428 311.704 362.002 302.561 362.002ZM302.561 365.406C307.528 365.406 310.03 366.18 311.254 366.829C312.605 367.545 312.877 368.298 312.878 369.279L312.978 470.777C312.993 485.824 306.323 499.66 294.199 509.735C283.73 518.436 265.356 523.438 243.788 523.46H243.651C222.149 523.46 203.816 518.49 193.352 509.825C181.21 499.78 174.516 485.956 174.502 470.901L174.402 369.403C174.401 368.419 174.673 367.665 176.03 366.944C177.259 366.293 179.771 365.514 184.761 365.509L205.155 365.497H205.206C210.173 365.497 212.675 366.271 213.899 366.919C215.25 367.636 215.522 368.388 215.523 369.37L215.62 457.021C215.629 466.829 218.494 473.932 224.636 479.371C231.677 485.613 239.623 486.546 243.763 486.546C248.275 486.541 255.829 486.533 262.976 480.256C269.028 474.94 272.091 467.104 272.082 456.963L271.986 369.313C271.985 368.329 272.257 367.574 273.614 366.855C274.843 366.202 277.355 365.424 282.344 365.418L302.514 365.406H302.561Z" fill="#E81A87"/>
<path d="M398.136 524.39C386.146 524.389 386.142 520.241 386.141 518.877L386.066 444.179L337.616 371.304C335.807 368.27 335.606 367.002 335.605 366.601C335.605 366.313 335.967 363.786 348.564 363.773L373.616 363.761C382.102 363.761 384.974 365.632 385.9 367.202L411.902 407.746L438.012 367.195C438.973 365.559 441.853 363.679 450.325 363.67L473.774 363.661C486.153 363.661 486.509 366.175 486.51 366.462C486.51 367.275 486.197 368.761 484.7 371.225L436.419 444.824L436.493 518.842C436.496 522.508 432.447 524.37 424.454 524.378L398.136 524.39Z" fill="#F73CA3"/>
<path d="M473.868 361.958H473.773L450.323 361.968C442.839 361.976 438.258 363.413 436.581 366.273L411.905 404.597L387.366 366.336C385.685 363.487 381.121 362.059 373.676 362.059H373.615L348.561 362.07C338.785 362.08 333.9 363.593 333.903 366.603C333.904 367.809 334.671 369.689 336.199 372.246L384.364 444.694L384.438 518.88C384.443 523.69 389.01 526.092 398.138 526.092H398.191L424.456 526.081C433.62 526.071 438.2 523.66 438.196 518.84L438.122 445.331L486.155 372.108C487.527 369.849 488.214 367.967 488.212 366.461C488.209 363.46 483.427 361.958 473.868 361.958ZM473.868 365.362C481.67 365.362 484.12 366.413 484.776 366.82C484.687 367.395 484.363 368.49 483.274 370.292L435.275 443.464L434.717 444.315L434.718 445.334L434.791 518.843C434.792 519.805 434.522 520.543 433.177 521.252C431.949 521.898 429.439 522.671 424.454 522.676L398.19 522.687H398.138C393.174 522.687 390.675 521.92 389.452 521.277C388.113 520.572 387.844 519.836 387.844 518.876L387.768 444.69L387.767 443.664L387.199 442.809L339.08 370.432C337.932 368.5 337.527 367.436 337.385 366.944C338.122 366.511 340.701 365.483 348.563 365.475L373.62 365.464H373.676C382.233 365.464 384.073 367.456 384.433 368.066L384.466 368.121L384.5 368.174L409.039 406.435L411.899 410.895L414.767 406.44L439.443 368.116L439.481 368.057L439.517 367.996C439.877 367.383 441.72 365.381 450.325 365.372L473.781 365.362H473.868Z" fill="#E81A87"/>
<path d="M541.891 523.883C531.432 523.883 522.126 522.843 514.231 520.791C506.081 518.675 499.802 515.982 495.036 512.557C489.895 509.098 487.308 505.32 487.303 501.296C487.301 498.5 488.221 495.403 490.116 491.826C491.851 488.545 493.944 485.6 496.338 483.072C498.227 481.078 501.139 478.428 504.599 478.424C506.014 478.424 507.817 478.923 512.448 481.405C516.902 483.599 520.935 485.312 524.488 486.522C527.791 487.648 531.782 488.218 536.346 488.218C541.309 488.213 545.497 487.263 548.843 485.395C551.548 483.884 552.806 481.245 552.801 477.088C552.799 473.76 551.554 471.32 548.885 469.408C545.484 466.977 539.759 464.154 531.87 461.016L521.651 456.636C512.127 452.166 504.462 446.464 498.921 439.709C493.176 432.71 490.258 422.811 490.246 410.285C490.238 399.811 492.92 390.887 498.22 383.76C503.458 376.717 510.391 371.457 518.828 368.129C527.04 364.89 535.968 363.242 545.361 363.233H545.471C553.067 363.233 560.084 364.02 566.328 365.572C572.845 367.196 577.907 369.308 581.8 372.026C586.044 375.071 588.206 378.426 588.21 381.987C588.212 384.529 587.476 387.468 585.96 390.972C584.524 394.292 582.726 397.238 580.618 399.728C577.977 402.845 575.222 404.427 572.428 404.43C571.101 404.43 569.518 404.002 567.288 403.043C565.737 402.381 564.417 401.847 563.365 401.452C558.575 399.892 553.586 399.113 548.469 399.113C539.869 399.122 536.498 400.843 535.251 401.867C533.214 403.538 532.225 405.3 532.227 407.251C532.23 410.069 532.933 412.276 534.374 413.999C536.071 416.035 538.085 417.641 540.532 418.906C543.321 420.349 547.53 422.281 553.041 424.649C561.365 428.101 568.276 431.437 573.603 434.57C579.286 437.919 584.263 442.775 588.396 449C592.624 455.375 594.773 463.518 594.783 473.201C594.792 484.88 592.22 494.651 587.135 502.242C582.05 509.83 575.406 515.415 567.385 518.84C559.576 522.177 551.051 523.873 542.049 523.883H541.891Z" fill="#F73CA3"/>
<path d="M545.472 361.532H545.359C535.751 361.542 526.615 363.228 518.202 366.546C509.465 369.995 502.283 375.445 496.855 382.745C491.33 390.173 488.534 399.438 488.545 410.288C488.557 423.217 491.605 433.48 497.605 440.791C503.309 447.742 511.173 453.599 520.98 458.202L531.106 462.543L531.242 462.598C539.004 465.686 544.608 468.443 547.894 470.793C550.108 472.378 551.097 474.32 551.1 477.092C551.104 481.605 549.453 483.106 548.014 483.909C544.924 485.635 541.015 486.511 536.394 486.516H536.34C531.964 486.516 528.163 485.976 525.036 484.911C521.546 483.721 517.581 482.037 513.253 479.906C508.292 477.247 506.32 476.722 504.606 476.722H504.597C500.484 476.726 497.209 479.679 495.102 481.902C492.601 484.544 490.416 487.617 488.613 491.03C486.583 494.859 485.599 498.219 485.602 501.299C485.606 505.923 488.446 510.175 494.043 513.94C498.981 517.489 505.446 520.269 513.803 522.439C521.838 524.527 531.287 525.586 541.889 525.586H542.051C551.283 525.577 560.031 523.834 568.055 520.407C576.382 516.849 583.278 511.057 588.55 503.191C593.826 495.313 596.496 485.224 596.485 473.2C596.476 463.178 594.232 454.719 589.814 448.06C585.538 441.617 580.374 436.586 574.467 433.105C569.071 429.93 562.068 426.55 553.713 423.085C548.244 420.736 544.075 418.823 541.315 417.394C539.076 416.238 537.235 414.772 535.68 412.907C534.504 411.502 533.932 409.652 533.93 407.251C533.929 406.351 534.177 404.953 536.331 403.184C537.195 402.474 540.101 400.825 548.422 400.816H548.471C553.409 400.816 558.219 401.568 562.768 403.048C563.803 403.434 565.1 403.961 566.617 404.607C569.068 405.663 570.86 406.134 572.423 406.134H572.431C575.746 406.13 578.938 404.346 581.917 400.829C584.132 398.213 586.019 395.124 587.524 391.648C589.134 387.925 589.915 384.762 589.912 381.985C589.909 377.846 587.528 374.041 582.775 370.631C578.705 367.791 573.461 365.596 566.74 363.922C560.364 362.336 553.208 361.532 545.472 361.532ZM545.472 364.936C552.932 364.936 559.811 365.707 565.916 367.225C572.227 368.798 577.105 370.825 580.79 373.397C584.581 376.117 586.505 379.008 586.508 381.988C586.51 384.292 585.82 387.01 584.399 390.296C583.028 393.464 581.319 396.267 579.32 398.629C577.016 401.346 574.698 402.726 572.423 402.728C571.359 402.728 569.941 402.332 567.952 401.475C566.383 400.806 565.04 400.262 563.96 399.859L563.892 399.833L563.822 399.81C558.93 398.219 553.765 397.412 548.471 397.412H548.418C539.79 397.421 535.908 399.126 534.171 400.553C531.715 402.568 530.523 404.761 530.525 407.254C530.528 410.44 531.384 413.078 533.065 415.087C534.912 417.304 537.1 419.049 539.749 420.418C542.576 421.881 546.822 423.831 552.409 426.23C560.635 429.641 567.476 432.942 572.739 436.039C578.199 439.256 582.99 443.934 586.977 449.942C591.018 456.034 593.072 463.86 593.08 473.204C593.09 484.539 590.615 493.99 585.722 501.296C580.823 508.605 574.429 513.981 566.717 517.275C559.118 520.522 550.817 522.173 542.048 522.181H541.889C531.576 522.181 522.415 521.16 514.659 519.144C506.714 517.081 500.62 514.474 496.03 511.176L495.987 511.145L495.944 511.116C491.343 508.021 489.009 504.718 489.006 501.296C489.004 498.785 489.859 495.949 491.622 492.621C493.284 489.479 495.285 486.66 497.574 484.245C499.247 482.478 501.797 480.13 504.606 480.128C505.569 480.128 507.087 480.464 511.645 482.907L511.749 482.961C516.213 485.159 520.315 486.899 523.939 488.134C527.42 489.32 531.592 489.922 536.34 489.922H536.397C541.606 489.916 546.073 488.893 549.672 486.883C552.928 485.066 554.509 481.862 554.504 477.088C554.5 473.217 552.987 470.252 549.874 468.023C546.363 465.513 540.517 462.624 532.54 459.451L532.448 459.414L522.375 455.095C513.055 450.715 505.607 445.176 500.237 438.631C494.749 431.944 491.961 422.407 491.95 410.285C491.941 400.185 494.51 391.603 499.587 384.776C504.631 377.993 511.315 372.925 519.451 369.714C527.466 366.553 536.183 364.946 545.364 364.936H545.472Z" fill="#E81A87"/>
<g opacity="0.5">
<path d="M13.7051 251.132C13.4131 235.991 13.3041 220.851 13.1011 205.711L12.7981 160.29C12.6621 145.15 12.7011 130.009 12.6851 114.869L12.6631 69.4492L12.8791 24.0302L12.9111 18.3462C12.9361 17.3072 13.0111 16.0582 13.8411 14.8552C14.2531 14.2702 14.8571 13.8062 15.4621 13.5332C16.0721 13.2472 16.6711 13.1302 17.2381 13.0632C18.4181 12.9592 19.2541 13.0142 20.2271 12.9902L23.0651 12.9732L28.7431 12.9372C36.3121 12.8892 43.8811 12.8292 51.4511 12.8492L96.8711 12.8512L119.582 12.9842C127.152 13.0162 134.724 13.0812 142.295 13.1802C134.726 13.4222 127.158 13.6292 119.589 13.8032L96.8821 14.3632L51.4651 15.2172C43.8961 15.3802 36.3261 15.4622 28.7561 15.5562L23.0791 15.6272L20.2401 15.6622C19.3221 15.6852 18.2591 15.6592 17.5561 15.7352C16.7821 15.8202 16.2891 16.0722 16.0461 16.4292C15.7721 16.7962 15.6351 17.5332 15.6401 18.3622L15.6421 24.0332L15.6351 69.4542L15.3911 114.874C15.3021 130.014 15.2661 145.154 15.0571 160.294L14.5311 205.714C14.2541 220.853 14.0721 235.993 13.7051 251.132Z" fill="white"/>
</g>
<g opacity="0.5">
<path d="M152.141 251.885L158.379 214.168L164.743 176.475L177.671 101.13C182.088 76.0339 186.421 50.9259 191.166 25.8839L192.048 21.1869L192.489 18.8389L192.709 17.6649C192.78 17.2029 192.928 16.6529 193.144 16.1769C193.57 15.2049 194.344 14.2999 195.352 13.7719C195.85 13.5029 196.389 13.3489 196.914 13.2619C197.451 13.1679 197.971 13.1929 198.327 13.1909L203.105 13.2329L222.46 12.8199C235.203 12.9999 248.475 12.2579 261.221 12.6859C248.481 13.2539 235.21 14.5689 222.468 14.8879L203.113 15.8489L198.334 15.9439C197.896 15.9569 197.614 15.9459 197.365 15.9999C197.108 16.0499 196.87 16.1189 196.67 16.2369C196.268 16.4619 195.948 16.8269 195.74 17.3149C195.634 17.5679 195.572 17.7929 195.526 18.1189L195.325 19.2969L194.116 26.3619C189.861 51.4889 185.194 76.5499 180.612 101.624L166.539 176.787L159.403 214.348L152.141 251.885Z" fill="white"/>
</g>
<g opacity="0.5">
<path d="M350.883 257.421L350.204 182.631L349.6 107.842C349.406 82.9129 349.117 57.9839 349.154 33.0529L349.171 23.7039L349.18 19.0299L349.183 17.8609L349.184 17.2769L349.186 16.9749L349.208 16.5619C349.32 15.4579 349.882 14.4069 350.737 13.7119C351.162 13.3609 351.657 13.0929 352.185 12.9299C352.449 12.8509 352.72 12.7939 352.993 12.7629C353.276 12.7369 353.552 12.7349 353.715 12.7389L356.053 12.7559L360.727 12.7889L370.076 12.8959C382.541 13.0609 395.007 13.3649 407.473 13.9039C395.008 14.4789 382.544 14.8169 370.079 15.0169L360.731 15.1499L356.056 15.1959L353.719 15.2189C353.493 15.2189 353.379 15.2289 353.274 15.2379C353.16 15.2539 353.05 15.2799 352.941 15.3129C352.726 15.3839 352.525 15.4989 352.352 15.6479C352.004 15.9459 351.777 16.3699 351.736 16.8199L351.728 16.9909V17.2729L351.732 17.8579L351.737 19.0259L351.763 23.6999L351.815 33.0489C351.939 57.9789 351.738 82.9089 351.634 107.839L351.295 182.63L350.883 257.421Z" fill="white"/>
</g>
<g opacity="0.5">
<path d="M80.0723 129.307C82.3013 130.895 84.9963 131.854 87.6593 131.818L95.8963 131.552C101.389 131.397 106.883 131.296 112.376 131.223C117.87 131.14 123.364 131.106 128.857 131.085L137.097 131.082C137.462 131.09 137.738 131.066 138.174 131.101C138.584 131.122 138.996 131.19 139.385 131.325C140.163 131.58 140.896 131.986 141.456 132.565C142.617 133.68 143.082 135.383 142.684 136.761C142.294 135.381 141.441 134.386 140.475 133.76C139.976 133.463 139.451 133.242 138.904 133.146C138.631 133.105 138.359 133.056 138.083 133.06C137.834 133.05 137.423 133.06 137.1 133.059L128.86 133.082C123.366 133.078 117.872 133.061 112.379 132.995C106.885 132.938 101.391 132.853 95.8973 132.716C93.1493 132.661 90.4073 132.566 87.6533 132.47C84.8133 132.316 82.1373 131.119 80.0723 129.307Z" fill="white"/>
</g>
<path d="M15.7743 17.4127C16.1453 16.9827 16.4103 17.0047 16.8433 16.7507C17.0433 16.6337 17.2483 16.5167 17.4443 16.3937C17.7783 16.1857 17.9233 15.9247 18.1183 15.6107C18.3823 15.1867 18.2423 14.4687 17.7613 14.2477C17.3023 14.0377 16.8853 13.9007 16.3803 14.0477C15.9883 14.1627 15.5123 14.4857 15.2363 14.7817C14.7363 15.3197 14.5723 16.2417 14.6553 16.9497C14.7143 17.4527 15.3623 17.8897 15.7743 17.4127Z" fill="white"/>
<path d="M195.388 18.0187C195.759 17.5887 196.024 17.6107 196.457 17.3567C196.657 17.2397 196.862 17.1227 197.058 16.9997C197.392 16.7917 197.537 16.5317 197.733 16.2167C197.996 15.7927 197.856 15.0747 197.375 14.8537C196.917 14.6437 196.499 14.5067 195.994 14.6537C195.602 14.7687 195.126 15.0917 194.851 15.3877C194.35 15.9257 194.186 16.8477 194.269 17.5557C194.329 18.0587 194.976 18.4957 195.388 18.0187Z" fill="white"/>
<path d="M352.269 18.1837C352.64 17.7537 352.905 17.7757 353.337 17.5217C353.538 17.4047 353.744 17.2877 353.939 17.1647C354.274 16.9567 354.418 16.6967 354.614 16.3817C354.877 15.9577 354.738 15.2397 354.256 15.0187C353.797 14.8097 353.38 14.6717 352.875 14.8197C352.483 14.9337 352.007 15.2567 351.732 15.5527C351.232 16.0907 351.067 17.0127 351.15 17.7207C351.209 18.2237 351.858 18.6607 352.269 18.1837Z" fill="white"/>
<g opacity="0.5">
<path d="M481.284 257.751L480.605 182.962L480.001 108.173C479.807 83.2429 479.518 58.3139 479.555 33.3829L479.572 24.0349L479.582 19.3598L479.585 17.6068L479.587 17.3048L479.609 16.8918C479.721 15.7878 480.283 14.7378 481.138 14.0418C481.563 13.6908 482.058 13.4228 482.586 13.2598C482.85 13.1808 483.121 13.1238 483.394 13.0928C483.677 13.0678 483.953 13.0648 484.116 13.0688L486.454 13.0858L491.128 13.1198L500.477 13.2258C512.942 13.3908 525.408 13.6948 537.874 14.2348C525.409 14.8088 512.945 15.1478 500.48 15.3468L491.132 15.4798L486.457 15.5258L484.12 15.5498C483.894 15.5488 483.781 15.5588 483.675 15.5678C483.561 15.5838 483.451 15.6098 483.342 15.6428C483.127 15.7148 482.926 15.8288 482.753 15.9778C482.406 16.2758 482.178 16.7008 482.137 17.1498L482.129 17.3208V17.6028L482.133 18.1878L482.138 19.3558L482.164 24.0299L482.216 33.3788C482.34 58.3088 482.14 83.2388 482.035 108.169L481.696 182.96L481.284 257.751Z" fill="white"/>
</g>
<path d="M482.672 18.5137C483.043 18.0837 483.309 18.1067 483.74 17.8517C483.941 17.7347 484.147 17.6177 484.342 17.4957C484.677 17.2867 484.821 17.0267 485.017 16.7127C485.28 16.2887 485.141 15.5697 484.659 15.3497C484.2 15.1397 483.783 15.0017 483.278 15.1497C482.886 15.2637 482.41 15.5877 482.135 15.8837C481.635 16.4217 481.47 17.3427 481.554 18.0507C481.612 18.5537 482.261 18.9907 482.672 18.5137Z" fill="white"/>
<g opacity="0.3">
<path d="M138.616 376.807C135.329 375.399 132.052 373.972 128.709 372.758C125.364 371.553 121.949 370.563 118.478 369.935C111.481 368.684 104.419 367.527 97.4088 367.493C90.3508 367.574 83.2608 368.113 76.3318 369.377C69.3878 370.575 62.5968 372.547 56.1738 375.337C52.9858 376.777 49.8488 378.341 46.8988 380.216C43.9638 382.104 41.1208 384.147 38.5248 386.482C33.2708 391.082 28.8798 396.634 25.4328 402.743C23.7168 405.8 22.2188 408.994 20.9908 412.297C19.6968 415.578 18.7248 418.985 17.8818 422.423C16.1938 429.314 15.4088 436.421 15.0558 443.561C14.7198 436.415 15.2068 429.219 16.4238 422.116C17.1028 418.578 17.9468 415.057 19.1148 411.628C20.2178 408.178 21.6838 404.844 23.3468 401.613C26.6698 395.138 31.2198 389.28 36.6028 384.34C39.2808 381.845 42.2608 379.705 45.3118 377.706C48.3848 375.728 51.6408 374.068 54.9558 372.555C61.6608 369.705 68.6938 367.681 75.8468 366.549C83.0058 365.414 90.2218 364.93 97.4498 365.13C104.75 365.38 111.808 366.88 118.791 368.488C125.839 370.241 132.368 373.362 138.616 376.807Z" fill="white"/>
</g>
<g opacity="0.3">
<path d="M205.591 366.846C200.626 367.517 195.658 368.079 190.686 368.529C188.198 368.792 185.699 368.909 183.295 369.284C182.106 369.45 180.884 369.645 179.926 369.992C179.449 370.159 179.096 370.386 179 370.539C178.906 370.669 178.811 370.899 178.783 371.41L178.767 375.046C178.754 376.295 178.757 377.543 178.723 378.792L178.549 386.283L178.124 401.262L177.372 431.22L176.477 461.176C176.474 461.259 176.405 461.324 176.322 461.322C176.242 461.319 176.178 461.253 176.177 461.173L175.896 431.207L175.759 401.245L175.642 386.265L175.621 378.775C175.612 377.527 175.642 376.279 175.654 375.031L175.684 373.158C175.706 372.523 175.692 371.956 175.75 371.177C175.784 370.798 175.842 370.379 175.991 369.92C176.136 369.465 176.396 368.971 176.753 368.579C177.488 367.784 178.32 367.476 179.017 367.252C180.44 366.833 181.716 366.727 183.002 366.604C185.562 366.416 188.062 366.418 190.558 366.393C195.56 366.332 200.567 366.386 205.576 366.546C205.659 366.549 205.724 366.618 205.721 366.701C205.719 366.777 205.663 366.836 205.591 366.846Z" fill="white"/>
</g>
<g opacity="0.3">
<path d="M303.022 366.846C298.991 367.395 294.957 367.853 290.921 368.261C286.909 368.704 282.768 368.868 278.973 369.568C278.064 369.744 277.11 370.005 276.649 370.336C276.424 370.507 276.389 370.583 276.315 370.77C276.246 370.962 276.205 371.341 276.203 371.778C276.21 373.749 276.2 375.818 276.133 377.832C276.047 381.886 275.822 385.94 275.693 389.993L274.871 414.315L273.908 438.632C273.904 438.715 273.835 438.78 273.752 438.777C273.672 438.774 273.609 438.707 273.608 438.628L273.313 414.298L273.158 389.971C273.141 385.917 273.027 381.863 273.053 377.809C273.041 375.77 273.087 373.783 273.149 371.7C273.178 371.128 273.21 370.48 273.493 369.717C273.762 368.942 274.432 368.219 275.065 367.854C276.348 367.122 277.438 367.001 278.509 366.817C279.577 366.665 280.61 366.579 281.643 366.527L283.197 366.458L284.72 366.432C286.749 366.386 288.782 366.394 290.812 366.373C294.875 366.367 298.939 366.411 303.006 366.546C303.089 366.549 303.155 366.618 303.152 366.702C303.149 366.777 303.093 366.836 303.022 366.846Z" fill="white"/>
</g>
<g opacity="0.5">
<path d="M144.305 433.739C143.938 433.2 143.57 432.762 143.085 432.561C142.612 432.343 142.055 432.273 141.478 432.273L137.748 432.436L130.173 432.773L115.017 433.433L99.854 434.006L96.063 434.149L94.167 434.22C93.451 434.241 93.117 434.259 92.712 434.389C92.332 434.518 92.05 434.699 91.811 434.896C91.693 434.999 91.578 435.111 91.479 435.26C91.343 435.458 91.179 435.726 91.042 435.972C90.472 436.988 89.95 438.122 89.439 439.346L89.436 439.354C89.402 439.437 89.306 439.476 89.223 439.442C89.18 439.424 89.147 439.388 89.133 439.346C88.668 438.045 88.552 436.661 88.708 435.258C88.76 434.9 88.801 434.57 88.904 434.184C89.042 433.747 89.266 433.316 89.563 432.943C90.156 432.183 91.007 431.706 91.834 431.47C92.642 431.215 93.59 431.24 94.133 431.237L96.026 431.224L99.813 431.199L114.962 431.096L130.117 431.081L137.698 431.08H139.593C140.222 431.091 140.848 431.053 141.546 431.114C142.222 431.183 142.948 431.37 143.554 431.82C144.175 432.278 144.457 433.004 144.578 433.615L144.58 433.624C144.597 433.706 144.543 433.786 144.461 433.802C144.399 433.815 144.338 433.788 144.305 433.739Z" fill="white"/>
</g>
<g opacity="0.3">
<path d="M479.544 367.718C476.151 367.955 472.757 368.164 469.361 368.34C465.965 368.501 462.569 368.706 459.173 368.832L448.997 369.233C447.366 369.303 445.775 369.455 444.306 369.829C442.84 370.199 441.514 370.772 440.685 371.78L440.642 371.833C440.276 372.278 439.62 372.342 439.176 371.977C438.8 371.668 438.696 371.152 438.894 370.73C439.343 369.774 440.097 368.974 440.92 368.407C441.749 367.832 442.65 367.45 443.547 367.164C445.351 366.615 447.176 366.462 448.935 366.469L459.137 366.427C462.532 366.405 465.93 366.459 469.326 366.472C472.724 366.498 476.121 366.558 479.521 366.646C479.817 366.654 480.051 366.901 480.043 367.197C480.036 367.475 479.816 367.697 479.544 367.718Z" fill="white"/>
</g>
<g opacity="0.3">
<path d="M577.794 375.403C573.931 372.988 569.648 371.341 565.262 370.214C560.869 369.082 556.36 368.466 551.841 368.208C547.32 367.94 542.774 367.966 538.302 368.445C533.824 368.932 529.405 369.865 525.148 371.259C520.885 372.668 516.816 374.527 513.177 377.033C511.341 378.255 509.621 379.639 508.004 381.128C506.383 382.611 504.85 384.197 503.455 385.906C500.626 389.273 498.465 393.15 496.957 397.34C495.466 401.534 494.614 406.001 494.206 410.553C494.199 410.636 494.126 410.697 494.043 410.69C493.97 410.684 493.912 410.625 493.906 410.553C493.5 405.979 493.749 401.273 494.94 396.724C496.092 392.174 498.219 387.806 501.106 384.042C503.961 380.269 507.562 377.061 511.558 374.543C515.58 372.052 519.98 370.261 524.437 368.967C528.907 367.664 533.505 366.852 538.124 366.504C542.752 366.162 547.374 366.29 551.959 366.713C556.543 367.176 561.1 368.004 565.505 369.347C569.903 370.684 574.174 372.549 577.959 375.152C578.027 375.199 578.044 375.292 577.997 375.36C577.952 375.426 577.862 375.445 577.794 375.403Z" fill="white"/>
</g>
<g opacity="0.3">
<path d="M549.004 488.722C548.086 489.766 546.889 490.575 545.641 491.218C544.387 491.867 543.058 492.361 541.699 492.77C540.334 493.156 538.933 493.433 537.485 493.566C536.765 493.642 536.021 493.633 535.278 493.598L533.234 493.491C531.865 493.432 530.48 493.377 529.068 493.233C527.657 493.088 526.21 492.894 524.748 492.45C522.147 491.622 519.483 490.849 516.831 489.837C515.521 489.31 514.21 488.739 512.934 488.055C511.714 487.389 510.524 486.773 509.322 486.165C508.136 485.565 506.909 484.983 505.782 484.655C505.509 484.579 505.235 484.519 505.035 484.509C504.804 484.507 504.487 484.496 504.231 484.535C503.686 484.578 503.163 484.717 502.661 484.965C501.647 485.444 500.749 486.345 499.822 487.332C499.356 487.826 498.882 488.35 498.35 488.857C497.855 489.323 497.383 489.794 496.91 490.281C495.015 492.211 493.336 494.373 491.757 496.649C492.751 494.059 494.135 491.611 495.787 489.332C496.203 488.767 496.651 488.215 497.098 487.678C497.509 487.182 497.9 486.634 498.316 486.073C499.146 484.959 500.127 483.767 501.541 482.913C502.24 482.488 503.048 482.189 503.866 482.048C504.285 481.957 504.664 481.953 505.117 481.937C505.607 481.943 506.012 482.021 506.406 482.105C507.946 482.472 509.24 483.035 510.54 483.603C511.826 484.175 513.076 484.832 514.287 485.456C515.447 486.054 516.673 486.564 517.923 487.043C520.397 488.048 523.02 488.827 525.634 489.753C527.964 490.593 530.712 490.767 533.441 491.158L535.507 491.442C536.136 491.527 536.768 491.579 537.422 491.597C538.727 491.634 540.061 491.528 541.384 491.328C542.712 491.147 544.029 490.845 545.321 490.448C546.608 490.038 547.874 489.526 549.004 488.722Z" fill="white"/>
</g>
<g opacity="0.3">
<path d="M391.354 445.786L390.496 517.456C390.493 517.706 390.289 517.906 390.039 517.902C389.793 517.899 389.595 517.701 389.592 517.457L388.626 445.788C388.617 445.035 389.219 444.416 389.972 444.406C390.725 444.396 391.343 444.998 391.354 445.751V445.786Z" fill="white"/>
</g>
<g opacity="0.3">
<path d="M380.344 368.062C376.892 368.306 373.44 368.476 369.987 368.636C366.533 368.79 363.08 368.899 359.627 368.992C356.173 369.085 352.72 369.153 349.266 369.193C347.548 369.219 345.791 369.269 344.11 369.172C343.282 369.147 342.424 369.098 341.799 369.128C341.658 369.13 341.521 369.157 341.506 369.136C341.455 369.134 341.559 368.968 341.52 368.887C341.426 368.766 341.429 369.22 341.529 369.575L341.552 369.658C341.657 370.032 341.44 370.421 341.065 370.527C340.786 370.606 340.498 370.503 340.326 370.292C340.164 370.092 339.979 369.925 339.84 369.649C339.763 369.532 339.694 369.382 339.643 369.194C339.578 369.037 339.555 368.804 339.574 368.556C339.574 368.328 339.7 368.027 339.825 367.808C339.963 367.614 340.16 367.385 340.309 367.292C340.474 367.167 340.651 367.062 340.785 367.005C340.931 366.937 341.09 366.863 341.213 366.826C342.275 366.47 343.156 366.391 344.052 366.321C345.824 366.181 347.52 366.249 349.256 366.236C352.708 366.231 356.161 366.253 359.615 366.302C363.068 366.35 366.521 366.415 369.975 366.522C373.428 366.637 376.882 366.762 380.337 366.961C380.641 366.979 380.873 367.24 380.856 367.543C380.84 367.824 380.616 368.043 380.344 368.062Z" fill="white"/>
</g>
<path d="M36.2635 387.838C40.5341 384.152 44.9922 381.101 49.6817 378.003C50.1668 377.68 49.8707 376.772 49.2606 377.003C43.9736 378.992 39.5822 383.368 36.1248 387.699C36.0471 387.797 36.1665 387.921 36.2635 387.838Z" fill="white"/>
<path d="M178.548 371.497C179.474 371.042 180.544 370.814 181.528 370.516C182.194 370.313 182.616 369.613 182.428 368.93C182.223 368.184 181.535 367.936 180.842 368.029C179.304 368.236 178.089 369.309 177.572 370.747C177.361 371.337 178.072 371.73 178.548 371.497Z" fill="white"/>
<path d="M274.829 371.895C276.188 371.497 277.647 371.336 278.877 370.615C279.955 369.981 279.38 368.549 278.286 368.431C276.559 368.246 275.184 369.523 274.182 370.785C273.8 371.267 274.134 372.098 274.829 371.895Z" fill="white"/>
<path d="M346.982 367.018C345.082 366.766 342.729 365.813 341.118 367.372C340.574 367.898 341.021 368.72 341.697 368.771C343.478 368.909 345.209 367.689 346.982 367.564C347.341 367.539 347.326 367.063 346.982 367.018Z" fill="white"/>
<path d="M447.443 367.744C445.771 367.267 444.208 367.18 442.801 368.32C441.957 369.006 443.037 370.058 443.866 369.701C445.071 369.184 446.162 368.487 447.444 368.159C447.652 368.105 447.643 367.802 447.443 367.744Z" fill="white"/>
<path d="M510.256 377.732C514.63 374.5 519.755 372.679 524.941 371.243C526.228 370.887 525.664 369.08 524.401 369.285C518.719 370.2 514.019 373.453 509.974 377.363C509.787 377.544 510.038 377.893 510.256 377.732Z" fill="white"/>
<path d="M529.088 369.725C529.491 369.56 529.942 369.414 530.385 369.453C530.617 369.472 530.837 369.548 531.075 369.536C531.326 369.522 531.575 369.441 531.824 369.404C532.174 369.351 532.426 368.941 532.426 368.613C532.426 368.229 532.165 367.951 531.824 367.822C531.13 367.557 530.639 367.647 529.98 367.957C529.467 368.198 529.02 368.528 528.632 368.942C528.341 369.252 528.626 369.914 529.088 369.725Z" fill="white"/>
<path d="M500.726 486.686C501.921 485.681 503.264 485.121 504.799 484.875C505.939 484.695 505.685 482.708 504.524 482.843C502.508 483.074 500.656 484.352 500.333 486.457C500.299 486.69 500.538 486.843 500.726 486.686Z" fill="white"/>
<path d="M55.1728 375.37C55.6828 374.886 56.2588 374.485 56.9328 374.265C57.5818 374.052 58.2478 374.011 58.8968 373.791C59.7078 373.516 59.8298 372.238 58.8968 372.02C56.9528 371.566 55.1448 373.017 54.0988 374.542C53.6478 375.199 54.6268 375.891 55.1728 375.37Z" fill="white"/>
<g opacity="0.5">
<path d="M192.542 210.984C198.719 216.432 205.887 220.636 213.629 223.25C221.367 225.848 229.639 226.885 237.793 226.212C241.873 225.91 245.916 225.166 249.837 224.027C253.776 222.932 257.559 221.353 261.188 219.484C268.421 215.685 274.837 210.409 280.084 204.06C276.039 211.17 269.879 217.29 262.55 221.688C258.901 223.922 254.919 225.654 250.806 226.993C246.675 228.294 242.381 229.111 238.053 229.486C233.72 229.792 229.35 229.666 225.066 229.025C220.793 228.351 216.589 227.263 212.634 225.631C204.705 222.44 197.659 217.367 192.542 210.984Z" fill="white"/>
</g>
<g opacity="0.6">
<path d="M177.108 172.643C174.692 142.223 197.933 115.563 229.018 113.097C260.104 110.63 287.26 133.29 289.676 163.71C292.091 194.13 268.851 219.611 237.766 222.078C206.681 224.544 179.524 203.062 177.108 172.643Z" fill="#08AFBB"/>
</g>
<path d="M229.487 118.698C199.95 121.052 178.082 146.349 180.172 175.219C182.47 206.06 208.274 224.397 237.762 222.098C267.245 219.747 289.051 197.071 287.059 166.729C285.189 139.307 261.544 118.5 233.856 118.514C232.413 118.522 230.922 118.586 229.487 118.698Z" fill="url(#paint1_radial_628_519)"/>
<path d="M229.953 124.684C202.005 126.864 181.471 150.504 183.273 177.427C185.204 205.995 209.75 223.208 237.694 220.972C265.579 218.741 286.075 198.415 284.349 169.431C282.825 143.799 260.305 124.487 234.144 124.529C232.782 124.521 231.365 124.574 229.953 124.684Z" fill="url(#paint2_radial_628_519)"/>
<path d="M212.867 194.247C209.03 194.497 205.679 191.79 205.421 188.231L204.481 175.289C204.223 171.729 207.151 168.612 210.988 168.362C214.825 168.111 218.176 170.818 218.434 174.377L219.373 187.32C219.632 190.879 216.704 193.997 212.867 194.247Z" fill="#222326"/>
<path d="M211.062 169.468C208.059 169.64 205.748 172.115 205.921 174.93L206.667 185.112C206.888 187.928 209.504 190.052 212.553 189.88C215.556 189.66 217.867 187.186 217.694 184.417L216.948 174.188C216.727 171.513 214.298 169.437 211.437 169.423C211.343 169.422 211.202 169.469 211.062 169.468Z" fill="url(#paint3_linear_628_519)"/>
<path d="M209.307 171.823C209.234 172.155 209.309 172.501 209.224 172.839C209.113 173.277 208.977 173.62 208.657 173.966C208.188 174.473 207.477 174.384 207.131 173.834C206.799 173.307 206.863 172.698 207.18 172.167C207.493 171.642 207.91 171.479 208.464 171.255C208.859 171.095 209.405 171.385 209.307 171.823Z" fill="white"/>
<path d="M257.623 191.745C253.786 191.995 250.435 189.288 250.177 185.729L249.237 172.787C248.979 169.227 251.907 166.11 255.744 165.86C259.581 165.609 262.932 168.316 263.19 171.875L264.129 184.818C264.388 188.377 261.46 191.495 257.623 191.745Z" fill="#222326"/>
<path d="M255.808 167.161C252.805 167.333 250.494 169.807 250.667 172.623L251.413 182.805C251.634 185.621 254.25 187.745 257.299 187.572C260.302 187.353 262.613 184.879 262.44 182.11L261.694 171.881C261.473 169.206 259.044 167.13 256.183 167.116C256.089 167.115 255.948 167.161 255.808 167.161Z" fill="url(#paint4_linear_628_519)"/>
<path d="M254.3 169.179C254.226 169.51 254.302 169.856 254.217 170.195C254.106 170.633 253.97 170.976 253.65 171.322C253.181 171.828 252.469 171.74 252.124 171.19C251.792 170.663 251.856 170.054 252.173 169.523C252.485 168.998 252.903 168.835 253.456 168.611C253.852 168.451 254.397 168.741 254.3 169.179Z" fill="white"/>
<defs>
<linearGradient id="paint0_linear_628_519" x1="309.147" y1="5.52778" x2="309.147" y2="480.089" gradientUnits="userSpaceOnUse">
<stop stop-color="#257EA5"/>
<stop offset="0.23" stop-color="#257EA5"/>
<stop offset="0.94" stop-color="#B5097A"/>
<stop offset="1" stop-color="#B5097A"/>
</linearGradient>
<radialGradient id="paint1_radial_628_519" cx="0" cy="0" r="1" gradientUnits="userSpaceOnUse" gradientTransform="translate(233.57 170.39) rotate(175.542) scale(53.292 52.1522)">
<stop stop-color="#D6D6D6"/>
<stop offset="0.14" stop-color="#D6D6D6"/>
<stop offset="0.94" stop-color="#E5E5E5"/>
<stop offset="1" stop-color="#E5E5E5"/>
</radialGradient>
<radialGradient id="paint2_radial_628_519" cx="0" cy="0" r="1" gradientUnits="userSpaceOnUse" gradientTransform="translate(235.207 193.905) rotate(-164.698) scale(62.4973 78.3879)">
<stop stop-color="white"/>
<stop offset="0.14" stop-color="white"/>
<stop offset="0.94" stop-color="white"/>
<stop offset="1" stop-color="white"/>
</radialGradient>
<linearGradient id="paint3_linear_628_519" x1="211.883" y1="164.922" x2="211.646" y2="211.827" gradientUnits="userSpaceOnUse">
<stop stop-color="#4D4D4D"/>
<stop offset="0.11" stop-color="#4D4D4D"/>
<stop offset="1" stop-color="#222326"/>
</linearGradient>
<linearGradient id="paint4_linear_628_519" x1="256.627" y1="162.615" x2="256.391" y2="209.52" gradientUnits="userSpaceOnUse">
<stop stop-color="#4D4D4D"/>
<stop offset="0.11" stop-color="#4D4D4D"/>
<stop offset="1" stop-color="#222326"/>
</linearGradient>
</defs>
</svg>
