<svg width="546" height="278" viewBox="0 0 546 278" fill="none" xmlns="http://www.w3.org/2000/svg">
<path d="M254 46C254 65.33 238.33 81 219 81C238.33 81 254 96.67 254 116C254 96.67 269.67 81 289 81C269.67 81 254 65.33 254 46Z" fill="white"/>
<path d="M224.5 114C224.5 119.799 219.799 124.5 214 124.5C219.799 124.5 224.5 129.201 224.5 135C224.5 129.201 229.201 124.5 235 124.5C229.201 124.5 224.5 119.799 224.5 114Z" fill="white"/>
<path d="M178 103C178 105.209 176.209 107 174 107C176.209 107 178 108.791 178 111C178 108.791 179.791 107 182 107C179.791 107 178 105.209 178 103Z" fill="white"/>
<path d="M165.753 167.988C167.955 171.165 167.165 175.526 163.988 177.729C167.165 175.526 171.526 176.317 173.729 179.494C171.526 176.317 172.317 171.955 175.494 169.753C172.317 171.955 167.955 171.165 165.753 167.988Z" fill="white"/>
<path d="M102.499 195.193C102.606 208.171 92.1711 218.778 79.1928 218.885C92.1711 218.778 102.778 229.213 102.885 242.192C102.778 229.213 113.213 218.606 126.192 218.499C113.213 218.606 102.606 208.171 102.499 195.193Z" fill="white"/>
<path d="M268.5 152C268.5 157.247 264.247 161.5 259 161.5C264.247 161.5 268.5 165.753 268.5 171C268.5 165.753 272.753 161.5 278 161.5C272.753 161.5 268.5 157.247 268.5 152Z" fill="white"/>
<path d="M312.5 118C312.5 123.799 307.799 128.5 302 128.5C307.799 128.5 312.5 133.201 312.5 139C312.5 133.201 317.201 128.5 323 128.5C317.201 128.5 312.5 123.799 312.5 118Z" fill="white"/>
<path d="M211.428 162.718C212.861 165.716 211.593 169.308 208.595 170.741C211.593 169.308 215.184 170.576 216.618 173.573C215.184 170.576 216.453 166.984 219.45 165.551C216.453 166.984 212.861 165.716 211.428 162.718Z" fill="white"/>
<path d="M201.172 188.438C210.802 201.235 208.235 219.417 195.438 229.047C208.235 219.417 226.416 221.984 236.047 234.781C226.416 221.984 228.984 203.802 241.781 194.172C228.984 203.802 210.802 201.235 201.172 188.438Z" fill="white"/>
<path d="M204.5 252C204.5 255.038 202.038 257.5 199 257.5C202.038 257.5 204.5 259.962 204.5 263C204.5 259.962 206.962 257.5 210 257.5C206.962 257.5 204.5 255.038 204.5 252Z" fill="white"/>
<path d="M278.692 213.123C280.417 221.789 274.789 230.213 266.123 231.938C274.789 230.213 283.213 235.841 284.938 244.507C283.213 235.841 288.841 227.417 297.507 225.692C288.841 227.417 280.417 221.789 278.692 213.123Z" fill="white"/>
<path d="M351.5 171C351.5 184.531 340.531 195.5 327 195.5C340.531 195.5 351.5 206.469 351.5 220C351.5 206.469 362.469 195.5 376 195.5C362.469 195.5 351.5 184.531 351.5 171Z" fill="white"/>
<path d="M417 139C417 143.418 413.418 147 409 147C413.418 147 417 150.582 417 155C417 150.582 420.582 147 425 147C420.582 147 417 143.418 417 139Z" fill="white"/>
<path d="M351.659 80.3099C352.935 84.54 350.54 89.0034 346.31 90.2791C350.54 89.0034 355.003 91.3984 356.279 95.6285C355.003 91.3984 357.398 86.935 361.628 85.6593C357.398 86.935 352.935 84.54 351.659 80.3099Z" fill="white"/>
<path d="M439.5 147C439.5 150.59 436.59 153.5 433 153.5C436.59 153.5 439.5 156.41 439.5 160C439.5 156.41 442.41 153.5 446 153.5C442.41 153.5 439.5 150.59 439.5 147Z" fill="white"/>
<path d="M330.5 206C330.5 209.038 328.038 211.5 325 211.5C328.038 211.5 330.5 213.962 330.5 217C330.5 213.962 332.962 211.5 336 211.5C332.962 211.5 330.5 209.038 330.5 206Z" fill="white"/>
<path d="M424.5 73C424.5 76.0376 422.038 78.5 419 78.5C422.038 78.5 424.5 80.9624 424.5 84C424.5 80.9624 426.962 78.5 430 78.5C426.962 78.5 424.5 76.0376 424.5 73Z" fill="white"/>
<path d="M368.5 45C368.5 48.0376 366.038 50.5 363 50.5C366.038 50.5 368.5 52.9624 368.5 56C368.5 52.9624 370.962 50.5 374 50.5C370.962 50.5 368.5 48.0376 368.5 45Z" fill="white"/>
<path d="M432.5 32C432.5 35.0376 430.038 37.5 427 37.5C430.038 37.5 432.5 39.9624 432.5 43C432.5 39.9624 434.962 37.5 438 37.5C434.962 37.5 432.5 35.0376 432.5 32Z" fill="white"/>
<path d="M340.5 18C340.5 21.0376 338.038 23.5 335 23.5C338.038 23.5 340.5 25.9624 340.5 29C340.5 25.9624 342.962 23.5 346 23.5C342.962 23.5 340.5 21.0376 340.5 18Z" fill="white"/>
<path d="M29.9063 239.114C29.9693 246.794 23.7943 253.071 16.1141 253.134C23.7943 253.071 30.0715 259.246 30.1345 266.927C30.0715 259.246 36.2465 252.969 43.9267 252.906C36.2465 252.969 29.9693 246.794 29.9063 239.114Z" fill="white"/>
<path d="M63.05 140.704C61.5564 148.238 54.2382 153.135 46.7043 151.641C54.2382 153.135 59.1348 160.453 57.6412 167.987C59.1348 160.453 66.453 155.556 73.9869 157.05C66.453 155.556 61.5564 148.238 63.05 140.704Z" fill="white"/>
<path d="M83 233C83 235.761 80.7614 238 78 238C80.7614 238 83 240.239 83 243C83 240.239 85.2386 238 88 238C85.2386 238 83 235.761 83 233Z" fill="white"/>
<path d="M106 109C106 112.314 103.314 115 100 115C103.314 115 106 117.686 106 121C106 117.686 108.686 115 112 115C108.686 115 106 112.314 106 109Z" fill="white"/>
<path d="M118 69C118 72.3137 115.314 75 112 75C115.314 75 118 77.6863 118 81C118 77.6863 120.686 75 124 75C120.686 75 118 72.3137 118 69Z" fill="white"/>
<path d="M88 43C88 46.3137 85.3137 49 82 49C85.3137 49 88 51.6863 88 55C88 51.6863 90.6863 49 94 49C90.6863 49 88 46.3137 88 43Z" fill="white"/>
<path d="M451.873 164.911C461.139 177.659 458.316 195.504 445.569 204.77C458.316 195.504 476.161 198.327 485.427 211.074C476.161 198.327 478.984 180.481 491.731 171.216C478.984 180.481 461.139 177.659 451.873 164.911Z" fill="white"/>
<path d="M461 142C461 145.314 458.314 148 455 148C458.314 148 461 150.686 461 154C461 150.686 463.686 148 467 148C463.686 148 461 145.314 461 142Z" fill="white"/>
<path d="M472.999 88.7633C472.577 94.547 467.547 98.8938 461.763 98.4722C467.547 98.8938 471.894 103.924 471.472 109.708C471.894 103.924 476.924 99.5773 482.708 99.9989C476.924 99.5773 472.577 94.547 472.999 88.7633Z" fill="white"/>
<path d="M454.457 226.578C454.138 230.958 450.328 234.25 445.949 233.93C450.328 234.25 453.62 238.059 453.301 242.439C453.62 238.059 457.43 234.767 461.809 235.086C457.43 234.767 454.138 230.958 454.457 226.578Z" fill="white"/>
<path d="M527.511 191.877C529.546 197.682 526.216 204.133 520.075 206.286C526.216 204.133 532.845 207.093 534.879 212.898C532.845 207.093 536.174 200.642 542.316 198.489C536.174 200.642 529.546 197.682 527.511 191.877Z" fill="white"/>
</svg>
